<mxfile host="app.diagrams.net" agent="Mozilla/5.0 (Macintosh; Intel Mac OS X 10_15_7) AppleWebKit/605.1.15 (KHTML, like Gecko) Version/18.2 Safari/605.1.15" version="26.0.11" pages="2">
  <diagram name="Non-paying customers" id="YYRwiA1xToAAdd3JtBlB">
    <mxGraphModel dx="1240" dy="997" grid="1" gridSize="10" guides="1" tooltips="1" connect="1" arrows="1" fold="1" page="1" pageScale="1" pageWidth="827" pageHeight="1169" math="0" shadow="0">
      <root>
        <mxCell id="0" />
        <mxCell id="N4uxb6JnLH10JCopEIms-1" value="Login flow" parent="0" />
        <mxCell id="N4uxb6JnLH10JCopEIms-2" style="edgeStyle=orthogonalEdgeStyle;rounded=0;orthogonalLoop=1;jettySize=auto;html=1;exitX=1;exitY=0.5;exitDx=0;exitDy=0;sketch=1;curveFitting=1;jiggle=2;elbow=vertical;curved=1;dashed=1;" parent="N4uxb6JnLH10JCopEIms-1" edge="1">
          <mxGeometry relative="1" as="geometry">
            <Array as="points">
              <mxPoint x="690" y="240" />
              <mxPoint x="690" y="110" />
            </Array>
            <mxPoint x="600" y="240" as="sourcePoint" />
            <mxPoint x="600" y="110" as="targetPoint" />
          </mxGeometry>
        </mxCell>
        <mxCell id="N4uxb6JnLH10JCopEIms-3" value="Set password&amp;nbsp;&lt;div&gt;(first time registration email)&lt;/div&gt;" style="edgeLabel;html=1;align=center;verticalAlign=middle;resizable=0;points=[];" parent="N4uxb6JnLH10JCopEIms-2" vertex="1" connectable="0">
          <mxGeometry x="0.5601" y="1" relative="1" as="geometry">
            <mxPoint x="31" y="69" as="offset" />
          </mxGeometry>
        </mxCell>
        <mxCell id="N4uxb6JnLH10JCopEIms-4" style="rounded=0;orthogonalLoop=1;jettySize=auto;html=1;exitX=1;exitY=0.25;exitDx=0;exitDy=0;entryX=0;entryY=0.25;entryDx=0;entryDy=0;strokeColor=#000000;startArrow=classic;startFill=1;sketch=1;curveFitting=1;jiggle=2;" parent="N4uxb6JnLH10JCopEIms-1" edge="1">
          <mxGeometry relative="1" as="geometry">
            <mxPoint x="216" y="220" as="sourcePoint" />
            <mxPoint x="502" y="218" as="targetPoint" />
          </mxGeometry>
        </mxCell>
        <mxCell id="N4uxb6JnLH10JCopEIms-5" value="SSO flow" style="edgeLabel;html=1;align=center;verticalAlign=middle;resizable=0;points=[];" parent="N4uxb6JnLH10JCopEIms-4" vertex="1" connectable="0">
          <mxGeometry x="-0.3333" relative="1" as="geometry">
            <mxPoint x="25" as="offset" />
          </mxGeometry>
        </mxCell>
        <mxCell id="N4uxb6JnLH10JCopEIms-6" style="rounded=0;orthogonalLoop=1;jettySize=auto;html=1;entryX=0.005;entryY=0.63;entryDx=0;entryDy=0;exitX=1;exitY=0.75;exitDx=0;exitDy=0;sketch=1;curveFitting=1;jiggle=2;entryPerimeter=0;" parent="N4uxb6JnLH10JCopEIms-1" target="yslGIPZhhn_wftm4TBrQ-2" edge="1">
          <mxGeometry relative="1" as="geometry">
            <mxPoint x="212" y="260" as="sourcePoint" />
            <mxPoint x="498" y="263" as="targetPoint" />
          </mxGeometry>
        </mxCell>
        <mxCell id="N4uxb6JnLH10JCopEIms-7" value="API Call: Get User Account&lt;div&gt;Authorisation Token&lt;/div&gt;" style="edgeLabel;html=1;align=center;verticalAlign=middle;resizable=0;points=[];" parent="N4uxb6JnLH10JCopEIms-6" vertex="1" connectable="0">
          <mxGeometry x="0.2099" y="1" relative="1" as="geometry">
            <mxPoint x="-13" y="-3" as="offset" />
          </mxGeometry>
        </mxCell>
        <mxCell id="N4uxb6JnLH10JCopEIms-8" style="rounded=0;orthogonalLoop=1;jettySize=auto;html=1;sketch=1;curveFitting=1;jiggle=2;edgeStyle=orthogonalEdgeStyle;curved=1;entryX=1.028;entryY=0.622;entryDx=0;entryDy=0;entryPerimeter=0;" parent="N4uxb6JnLH10JCopEIms-1" edge="1">
          <mxGeometry relative="1" as="geometry">
            <Array as="points">
              <mxPoint x="389" y="103" />
              <mxPoint x="389" y="192" />
            </Array>
            <mxPoint x="545" y="103" as="sourcePoint" />
            <mxPoint x="230" y="192" as="targetPoint" />
          </mxGeometry>
        </mxCell>
        <mxCell id="N4uxb6JnLH10JCopEIms-9" value="anna.andersson@hotmail.com" style="edgeLabel;html=1;align=center;verticalAlign=middle;resizable=0;points=[];" parent="N4uxb6JnLH10JCopEIms-8" vertex="1" connectable="0">
          <mxGeometry x="-0.3722" y="-2" relative="1" as="geometry">
            <mxPoint x="-54" y="52" as="offset" />
          </mxGeometry>
        </mxCell>
        <mxCell id="N4uxb6JnLH10JCopEIms-10" value="GP.se&lt;div&gt;&lt;br&gt;&lt;div&gt;Thanos&amp;nbsp;&lt;div&gt;Front End&lt;/div&gt;&lt;/div&gt;&lt;/div&gt;" style="whiteSpace=wrap;html=1;aspect=fixed;strokeColor=#000000;fontStyle=1;rounded=1;sketch=1;curveFitting=1;jiggle=2;" parent="N4uxb6JnLH10JCopEIms-1" vertex="1">
          <mxGeometry x="132" y="188" width="80" height="80" as="geometry" />
        </mxCell>
        <mxCell id="N4uxb6JnLH10JCopEIms-11" value="Okta&amp;nbsp;&lt;div&gt;Auth0&lt;/div&gt;" style="whiteSpace=wrap;html=1;aspect=fixed;strokeColor=#000000;fontStyle=1;rounded=1;sketch=1;curveFitting=1;jiggle=2;fillStyle=hachure;" parent="N4uxb6JnLH10JCopEIms-1" vertex="1">
          <mxGeometry x="500" y="185" width="90" height="90" as="geometry" />
        </mxCell>
        <mxCell id="N4uxb6JnLH10JCopEIms-12" value="B2C User" style="sketch=0;outlineConnect=0;fontColor=#232F3E;gradientColor=none;fillColor=#232F3D;strokeColor=none;dashed=0;verticalLabelPosition=bottom;verticalAlign=top;align=center;html=1;fontSize=12;fontStyle=1;aspect=fixed;pointerEvents=1;shape=mxgraph.aws4.user;" parent="N4uxb6JnLH10JCopEIms-1" vertex="1">
          <mxGeometry x="544.18" y="61" width="48" height="48" as="geometry" />
        </mxCell>
        <mxCell id="N4uxb6JnLH10JCopEIms-13" value="1" style="ellipse;whiteSpace=wrap;html=1;aspect=fixed;rotation=0;gradientColor=#223548;strokeColor=none;gradientDirection=east;fillColor=#5b738b;rounded=0;pointerEvents=0;fontFamily=Helvetica;fontSize=16;fontColor=#FFFFFF;spacingTop=4;spacingBottom=4;spacingLeft=4;spacingRight=4;points=[];fontStyle=1" parent="N4uxb6JnLH10JCopEIms-1" vertex="1">
          <mxGeometry x="201" y="164" width="30" height="30" as="geometry" />
        </mxCell>
        <mxCell id="yslGIPZhhn_wftm4TBrQ-2" value="" style="aspect=fixed;sketch=0;html=1;dashed=0;whitespace=wrap;verticalLabelPosition=bottom;verticalAlign=top;fillColor=#2875E2;strokeColor=#ffffff;points=[[0.005,0.63,0],[0.1,0.2,0],[0.9,0.2,0],[0.5,0,0],[0.995,0.63,0],[0.72,0.99,0],[0.5,1,0],[0.28,0.99,0]];shape=mxgraph.kubernetes.icon2;prIcon=api" parent="N4uxb6JnLH10JCopEIms-1" vertex="1">
          <mxGeometry x="480" y="235" width="41.67" height="40" as="geometry" />
        </mxCell>
        <mxCell id="Oc9iRaVv8JoBrQkCamYU-11" value="1" style="ellipse;whiteSpace=wrap;html=1;aspect=fixed;rotation=0;gradientColor=#223548;strokeColor=none;gradientDirection=east;fillColor=#5b738b;rounded=0;pointerEvents=0;fontFamily=Helvetica;fontSize=16;fontColor=#FFFFFF;spacingTop=4;spacingBottom=4;spacingLeft=4;spacingRight=4;points=[];fontStyle=1" parent="N4uxb6JnLH10JCopEIms-1" vertex="1">
          <mxGeometry x="514.1800000000001" y="280" width="30" height="30" as="geometry" />
        </mxCell>
        <mxCell id="JIOs8HF9aQNVbFvBmBlv-20" value="Publish subscribe" parent="0" />
        <mxCell id="3ExE7GxzhrG30xC6ED5a-20" style="edgeStyle=orthogonalEdgeStyle;rounded=0;orthogonalLoop=1;jettySize=auto;html=1;entryX=0;entryY=0.5;entryDx=0;entryDy=0;exitX=0.986;exitY=0.339;exitDx=0;exitDy=0;exitPerimeter=0;sketch=1;curveFitting=1;jiggle=2;strokeColor=#FF00FF;" parent="JIOs8HF9aQNVbFvBmBlv-20" source="3ExE7GxzhrG30xC6ED5a-21" target="JIOs8HF9aQNVbFvBmBlv-114" edge="1">
          <mxGeometry relative="1" as="geometry">
            <mxPoint x="168.46000000000004" y="554.2950000000001" as="sourcePoint" />
          </mxGeometry>
        </mxCell>
        <mxCell id="yslGIPZhhn_wftm4TBrQ-12" style="edgeStyle=orthogonalEdgeStyle;rounded=0;orthogonalLoop=1;jettySize=auto;html=1;exitX=0.462;exitY=0.003;exitDx=0;exitDy=0;entryX=1;entryY=0.5;entryDx=0;entryDy=0;flowAnimation=1;exitPerimeter=0;" parent="JIOs8HF9aQNVbFvBmBlv-20" source="Oc9iRaVv8JoBrQkCamYU-14" target="JIOs8HF9aQNVbFvBmBlv-21" edge="1">
          <mxGeometry relative="1" as="geometry">
            <Array as="points">
              <mxPoint x="610" y="496" />
              <mxPoint x="610" y="394" />
            </Array>
          </mxGeometry>
        </mxCell>
        <mxCell id="yslGIPZhhn_wftm4TBrQ-13" value="account data&amp;nbsp;&lt;div&gt;in Event payload&lt;/div&gt;" style="edgeLabel;html=1;align=center;verticalAlign=middle;resizable=0;points=[];" parent="yslGIPZhhn_wftm4TBrQ-12" vertex="1" connectable="0">
          <mxGeometry x="-0.3398" y="-2" relative="1" as="geometry">
            <mxPoint x="-32" y="-9" as="offset" />
          </mxGeometry>
        </mxCell>
        <mxCell id="JIOs8HF9aQNVbFvBmBlv-114" value="&lt;b&gt;Event Mesh&lt;/b&gt;" style="rounded=0;whiteSpace=wrap;html=1;sketch=1;curveFitting=1;jiggle=2;" parent="JIOs8HF9aQNVbFvBmBlv-20" vertex="1">
          <mxGeometry x="510" y="525" width="200.5" height="60" as="geometry" />
        </mxCell>
        <mxCell id="JIOs8HF9aQNVbFvBmBlv-116" style="rounded=0;orthogonalLoop=1;jettySize=auto;html=1;sketch=1;curveFitting=1;jiggle=2;exitX=0.75;exitY=1;exitDx=0;exitDy=0;fillColor=#ffe6cc;strokeColor=#d79b00;entryX=0.512;entryY=-0.067;entryDx=0;entryDy=0;entryPerimeter=0;" parent="JIOs8HF9aQNVbFvBmBlv-20" source="JIOs8HF9aQNVbFvBmBlv-82" target="yslGIPZhhn_wftm4TBrQ-7" edge="1">
          <mxGeometry relative="1" as="geometry">
            <mxPoint x="650" y="274" as="sourcePoint" />
            <mxPoint x="650" y="524" as="targetPoint" />
          </mxGeometry>
        </mxCell>
        <mxCell id="JIOs8HF9aQNVbFvBmBlv-126" value="Events #UserAccount&lt;div&gt;Okta Account Created&lt;/div&gt;&lt;div&gt;Okta Account Updated&lt;/div&gt;" style="edgeLabel;html=1;align=center;verticalAlign=middle;resizable=0;points=[];" parent="JIOs8HF9aQNVbFvBmBlv-116" vertex="1" connectable="0">
          <mxGeometry x="0.3827" y="-1" relative="1" as="geometry">
            <mxPoint x="7" y="-117" as="offset" />
          </mxGeometry>
        </mxCell>
        <mxCell id="399uIYjcvqAqCW6wGWdr-2" value="&lt;span&gt;data feed&lt;/span&gt;" style="edgeLabel;html=1;align=center;verticalAlign=middle;resizable=0;points=[];fontSize=9;" parent="JIOs8HF9aQNVbFvBmBlv-116" vertex="1" connectable="0">
          <mxGeometry x="-0.1515" relative="1" as="geometry">
            <mxPoint as="offset" />
          </mxGeometry>
        </mxCell>
        <mxCell id="JIOs8HF9aQNVbFvBmBlv-36" value="&lt;div&gt;Iterable&amp;nbsp;&lt;/div&gt;" style="whiteSpace=wrap;html=1;aspect=fixed;strokeColor=#000000;fontStyle=1;rounded=1;sketch=1;curveFitting=1;jiggle=2;" parent="JIOs8HF9aQNVbFvBmBlv-20" vertex="1">
          <mxGeometry x="204" y="720" width="80" height="80" as="geometry" />
        </mxCell>
        <mxCell id="JIOs8HF9aQNVbFvBmBlv-21" value="&lt;font style=&quot;font-size: 10px;&quot;&gt;Segment.io Amplitude or equivalent&amp;nbsp;&lt;/font&gt;" style="whiteSpace=wrap;html=1;aspect=fixed;strokeColor=#000000;fontStyle=1;rounded=1;sketch=1;curveFitting=1;jiggle=2;" parent="JIOs8HF9aQNVbFvBmBlv-20" vertex="1">
          <mxGeometry x="377" y="354" width="80" height="80" as="geometry" />
        </mxCell>
        <mxCell id="JIOs8HF9aQNVbFvBmBlv-22" value="" style="rounded=1;whiteSpace=wrap;html=1;" parent="JIOs8HF9aQNVbFvBmBlv-20" vertex="1">
          <mxGeometry x="410" y="1030" width="220.13" height="120" as="geometry" />
        </mxCell>
        <mxCell id="JIOs8HF9aQNVbFvBmBlv-23" value="" style="rounded=1;whiteSpace=wrap;html=1;" parent="JIOs8HF9aQNVbFvBmBlv-20" vertex="1">
          <mxGeometry x="279.88" y="1030" width="171" height="120" as="geometry" />
        </mxCell>
        <mxCell id="JIOs8HF9aQNVbFvBmBlv-28" value="GP.se&lt;div&gt;&lt;br&gt;&lt;div&gt;Thanos&amp;nbsp;&lt;div&gt;Front End&lt;/div&gt;&lt;/div&gt;&lt;/div&gt;" style="whiteSpace=wrap;html=1;aspect=fixed;strokeColor=#000000;fontStyle=1;rounded=1;sketch=1;curveFitting=1;jiggle=2;" parent="JIOs8HF9aQNVbFvBmBlv-20" vertex="1">
          <mxGeometry x="134" y="190" width="80" height="80" as="geometry" />
        </mxCell>
        <mxCell id="JIOs8HF9aQNVbFvBmBlv-29" style="edgeStyle=orthogonalEdgeStyle;rounded=0;orthogonalLoop=1;jettySize=auto;html=1;entryX=0;entryY=0.25;entryDx=0;entryDy=0;strokeColor=#d79b00;sketch=1;curveFitting=1;jiggle=2;exitX=0.5;exitY=1;exitDx=0;exitDy=0;exitPerimeter=0;fillColor=#ffe6cc;" parent="JIOs8HF9aQNVbFvBmBlv-20" source="JIOs8HF9aQNVbFvBmBlv-72" target="JIOs8HF9aQNVbFvBmBlv-114" edge="1">
          <mxGeometry relative="1" as="geometry">
            <Array as="points">
              <mxPoint x="417" y="540" />
            </Array>
            <mxPoint x="514" y="585" as="targetPoint" />
          </mxGeometry>
        </mxCell>
        <mxCell id="JIOs8HF9aQNVbFvBmBlv-30" value="Events #UserAccount:&amp;nbsp;&lt;div&gt;User Account Created&lt;div&gt;User Account Updated&lt;/div&gt;&lt;/div&gt;" style="edgeLabel;html=1;align=center;verticalAlign=middle;resizable=0;points=[];" parent="JIOs8HF9aQNVbFvBmBlv-29" vertex="1" connectable="0">
          <mxGeometry x="-0.478" y="-2" relative="1" as="geometry">
            <mxPoint x="21" y="-13" as="offset" />
          </mxGeometry>
        </mxCell>
        <mxCell id="399uIYjcvqAqCW6wGWdr-1" value="data feed" style="edgeLabel;html=1;align=center;verticalAlign=middle;resizable=0;points=[];fontSize=9;" parent="JIOs8HF9aQNVbFvBmBlv-29" vertex="1" connectable="0">
          <mxGeometry x="0.1807" y="3" relative="1" as="geometry">
            <mxPoint x="18" as="offset" />
          </mxGeometry>
        </mxCell>
        <mxCell id="JIOs8HF9aQNVbFvBmBlv-31" value="Okta&amp;nbsp;&lt;div&gt;Auth0&lt;/div&gt;" style="whiteSpace=wrap;html=1;aspect=fixed;strokeColor=#000000;fontStyle=1;rounded=1;sketch=1;curveFitting=1;jiggle=2;fillStyle=hachure;" parent="JIOs8HF9aQNVbFvBmBlv-20" vertex="1">
          <mxGeometry x="500" y="185" width="90" height="90" as="geometry" />
        </mxCell>
        <mxCell id="JIOs8HF9aQNVbFvBmBlv-32" style="edgeStyle=orthogonalEdgeStyle;rounded=0;orthogonalLoop=1;jettySize=auto;html=1;exitX=0.102;exitY=1.019;exitDx=0;exitDy=0;strokeColor=#000000;dashed=1;dashPattern=8 8;flowAnimation=1;exitPerimeter=0;entryX=0.501;entryY=-0.011;entryDx=0;entryDy=0;entryPerimeter=0;" parent="JIOs8HF9aQNVbFvBmBlv-20" source="JIOs8HF9aQNVbFvBmBlv-114" target="JIOs8HF9aQNVbFvBmBlv-75" edge="1">
          <mxGeometry relative="1" as="geometry">
            <Array as="points">
              <mxPoint x="531" y="650" />
              <mxPoint x="245" y="650" />
            </Array>
            <mxPoint x="40" y="853.8000000000001" as="sourcePoint" />
            <mxPoint x="235" y="688.4300000000001" as="targetPoint" />
          </mxGeometry>
        </mxCell>
        <mxCell id="JIOs8HF9aQNVbFvBmBlv-33" value="&lt;div&gt;&lt;br&gt;&lt;/div&gt;" style="edgeLabel;html=1;align=center;verticalAlign=middle;resizable=0;points=[];" parent="JIOs8HF9aQNVbFvBmBlv-32" vertex="1" connectable="0">
          <mxGeometry x="0.0114" y="-4" relative="1" as="geometry">
            <mxPoint as="offset" />
          </mxGeometry>
        </mxCell>
        <mxCell id="Oc9iRaVv8JoBrQkCamYU-12" value="account data in Event payload" style="edgeLabel;html=1;align=center;verticalAlign=middle;resizable=0;points=[];" parent="JIOs8HF9aQNVbFvBmBlv-32" vertex="1" connectable="0">
          <mxGeometry x="-0.1334" y="3" relative="1" as="geometry">
            <mxPoint as="offset" />
          </mxGeometry>
        </mxCell>
        <mxCell id="JIOs8HF9aQNVbFvBmBlv-37" value="Aria" style="whiteSpace=wrap;html=1;aspect=fixed;strokeColor=#000000;fontStyle=1;rounded=1;sketch=1;curveFitting=1;jiggle=2;" parent="JIOs8HF9aQNVbFvBmBlv-20" vertex="1">
          <mxGeometry x="634" y="720" width="80" height="80" as="geometry" />
        </mxCell>
        <mxCell id="JIOs8HF9aQNVbFvBmBlv-40" value="Marketing Automation" style="rounded=1;whiteSpace=wrap;html=1;fillColor=#f5f5f5;strokeColor=#666666;sketch=1;curveFitting=1;jiggle=2;glass=0;fillWeight=3;disableMultiStroke=0;disableMultiStrokeFill=0;fillStyle=auto;sketchStyle=rough;align=center;verticalAlign=middle;fontFamily=Helvetica;fontSize=12;gradientColor=#b3b3b3;gradientDirection=north;" parent="JIOs8HF9aQNVbFvBmBlv-20" vertex="1">
          <mxGeometry x="100" y="790" width="130" height="20" as="geometry" />
        </mxCell>
        <mxCell id="JIOs8HF9aQNVbFvBmBlv-41" value="Contract &amp;amp; Billing Management" style="rounded=1;whiteSpace=wrap;html=1;fillColor=#f5f5f5;strokeColor=#666666;sketch=1;curveFitting=1;jiggle=2;fillStyle=auto;glass=0;fillWeight=3;disableMultiStroke=0;disableMultiStrokeFill=0;sketchStyle=rough;align=center;verticalAlign=middle;fontFamily=Helvetica;fontSize=12;gradientColor=#b3b3b3;gradientDirection=north;" parent="JIOs8HF9aQNVbFvBmBlv-20" vertex="1">
          <mxGeometry x="670" y="770" width="140" height="34" as="geometry" />
        </mxCell>
        <mxCell id="JIOs8HF9aQNVbFvBmBlv-42" value="User Experience Mgmt" style="rounded=1;whiteSpace=wrap;html=1;fillColor=#f5f5f5;strokeColor=#666666;sketch=1;curveFitting=1;jiggle=2;glass=0;fillWeight=3;disableMultiStroke=0;disableMultiStrokeFill=0;fillStyle=auto;sketchStyle=rough;align=center;verticalAlign=middle;fontFamily=Helvetica;fontSize=12;gradientColor=#b3b3b3;gradientDirection=north;" parent="JIOs8HF9aQNVbFvBmBlv-20" vertex="1">
          <mxGeometry x="30" y="260" width="130" height="20" as="geometry" />
        </mxCell>
        <mxCell id="JIOs8HF9aQNVbFvBmBlv-48" value="Thanos&amp;nbsp;&lt;div&gt;Back End&lt;/div&gt;" style="whiteSpace=wrap;html=1;aspect=fixed;strokeColor=#000000;fontStyle=1;rounded=1;sketch=1;curveFitting=1;jiggle=2;" parent="JIOs8HF9aQNVbFvBmBlv-20" vertex="1">
          <mxGeometry x="134" y="300" width="80" height="80" as="geometry" />
        </mxCell>
        <mxCell id="JIOs8HF9aQNVbFvBmBlv-49" value="Content Management" style="rounded=1;whiteSpace=wrap;html=1;fillColor=#f5f5f5;strokeColor=#666666;sketch=1;curveFitting=1;jiggle=2;glass=0;fillWeight=3;disableMultiStroke=0;disableMultiStrokeFill=0;fillStyle=auto;sketchStyle=rough;align=center;verticalAlign=middle;fontFamily=Helvetica;fontSize=12;gradientColor=#b3b3b3;gradientDirection=north;" parent="JIOs8HF9aQNVbFvBmBlv-20" vertex="1">
          <mxGeometry x="30" y="370" width="130" height="20" as="geometry" />
        </mxCell>
        <mxCell id="JIOs8HF9aQNVbFvBmBlv-50" value="" style="endArrow=none;html=1;rounded=0;entryX=0.5;entryY=1;entryDx=0;entryDy=0;exitX=0.5;exitY=0;exitDx=0;exitDy=0;sketch=1;curveFitting=1;jiggle=2;" parent="JIOs8HF9aQNVbFvBmBlv-20" source="JIOs8HF9aQNVbFvBmBlv-48" target="JIOs8HF9aQNVbFvBmBlv-28" edge="1">
          <mxGeometry width="50" height="50" relative="1" as="geometry">
            <mxPoint x="310" y="420" as="sourcePoint" />
            <mxPoint x="360" y="370" as="targetPoint" />
          </mxGeometry>
        </mxCell>
        <mxCell id="JIOs8HF9aQNVbFvBmBlv-60" style="edgeStyle=orthogonalEdgeStyle;rounded=0;orthogonalLoop=1;jettySize=auto;html=1;exitX=1;exitY=0.467;exitDx=0;exitDy=0;strokeColor=#000000;dashed=1;dashPattern=8 8;flowAnimation=1;exitPerimeter=0;entryX=0.995;entryY=0.63;entryDx=0;entryDy=0;entryPerimeter=0;" parent="JIOs8HF9aQNVbFvBmBlv-20" source="JIOs8HF9aQNVbFvBmBlv-74" target="JIOs8HF9aQNVbFvBmBlv-117" edge="1">
          <mxGeometry relative="1" as="geometry">
            <Array as="points">
              <mxPoint x="770" y="700" />
              <mxPoint x="770" y="344" />
            </Array>
            <mxPoint x="254" y="730" as="sourcePoint" />
            <mxPoint x="710" y="380" as="targetPoint" />
          </mxGeometry>
        </mxCell>
        <mxCell id="JIOs8HF9aQNVbFvBmBlv-61" value="&lt;span style=&quot;caret-color: rgba(0, 0, 0, 0); color: rgba(0, 0, 0, 0); font-family: monospace; font-size: 0px; text-align: start; background-color: rgb(251, 251, 251);&quot;&gt;%3CmxGraphModel%3E%3Croot%3E%3CmxCell%20id%3D%220%22%2F%3E%3CmxCell%20id%3D%221%22%20parent%3D%220%22%2F%3E%3CmxCell%20id%3D%222%22%20value%3D%22API%20Call%3A%26amp%3Bnbsp%3B%26lt%3Bdiv%26gt%3BGet%20New%20User%20Profile%26lt%3B%2Fdiv%26gt%3B%26lt%3Bdiv%26gt%3BGet%20Updated%20User%20Profile%26lt%3Bbr%26gt%3B%26lt%3B%2Fdiv%26gt%3B%22%20style%3D%22edgeLabel%3Bhtml%3D1%3Balign%3Dcenter%3BverticalAlign%3Dmiddle%3Bresizable%3D0%3Bpoints%3D%5B%5D%3B%22%20vertex%3D%221%22%20connectable%3D%220%22%20parent%3D%221%22%3E%3CmxGeometry%20x%3D%22248%22%20y%3D%22515%22%20as%3D%22geometry%22%2F%3E%3C%2FmxCell%3E%3C%2Froot%3E%3C%2FmxGraphModel%3E&lt;/span&gt;" style="edgeLabel;html=1;align=center;verticalAlign=middle;resizable=0;points=[];" parent="JIOs8HF9aQNVbFvBmBlv-60" vertex="1" connectable="0">
          <mxGeometry x="0.0114" y="-4" relative="1" as="geometry">
            <mxPoint as="offset" />
          </mxGeometry>
        </mxCell>
        <mxCell id="JIOs8HF9aQNVbFvBmBlv-62" value="API Call:&amp;nbsp;&lt;div&gt;Get New &lt;b&gt;Customer&lt;/b&gt;&lt;/div&gt;&lt;div&gt;Get Updated &lt;b&gt;Customer&lt;/b&gt;&lt;/div&gt;" style="edgeLabel;html=1;align=center;verticalAlign=middle;resizable=0;points=[];" parent="JIOs8HF9aQNVbFvBmBlv-60" vertex="1" connectable="0">
          <mxGeometry x="0.0195" y="-3" relative="1" as="geometry">
            <mxPoint x="-13" y="54" as="offset" />
          </mxGeometry>
        </mxCell>
        <mxCell id="JIOs8HF9aQNVbFvBmBlv-69" value="&lt;h1 style=&quot;margin-top: 0px;&quot;&gt;&lt;b style=&quot;font-size: 12px;&quot;&gt;Non-paying customer with registered user account&lt;/b&gt;&lt;br&gt;&lt;/h1&gt;&lt;p&gt;&lt;b&gt;(1) &lt;/b&gt;User registration via online SSO flow. Okta account created.&amp;nbsp;&lt;b&gt;(2) &lt;/b&gt;A&lt;b&gt;&amp;nbsp;&lt;/b&gt;Stampen user ID is generated by User Service 2.0.&amp;nbsp;&lt;b&gt;3)&lt;/b&gt;&amp;nbsp;All common user account data is stored in Segment. &lt;b&gt;(4)&lt;/b&gt;&amp;nbsp;The data is published to downstream systems via events on our Event Mesh.&amp;nbsp;&lt;b&gt;(5)&lt;/b&gt;&amp;nbsp;Common user account data is consumed downstream via events,&amp;nbsp;&lt;b&gt;(6) &lt;/b&gt;cached locally&amp;nbsp;and&lt;b&gt;&amp;nbsp;&lt;/b&gt;extended in downstream systems.&lt;/p&gt;" style="text;html=1;whiteSpace=wrap;overflow=hidden;rounded=0;" parent="JIOs8HF9aQNVbFvBmBlv-20" vertex="1">
          <mxGeometry x="10" width="340" height="170" as="geometry" />
        </mxCell>
        <mxCell id="JIOs8HF9aQNVbFvBmBlv-71" value="3" style="ellipse;whiteSpace=wrap;html=1;aspect=fixed;rotation=0;gradientColor=#223548;strokeColor=none;gradientDirection=east;fillColor=#5b738b;rounded=0;pointerEvents=0;fontFamily=Helvetica;fontSize=16;fontColor=#FFFFFF;spacingTop=4;spacingBottom=4;spacingLeft=4;spacingRight=4;points=[];fontStyle=1" parent="JIOs8HF9aQNVbFvBmBlv-20" vertex="1">
          <mxGeometry x="342.88" y="389" width="30" height="30" as="geometry" />
        </mxCell>
        <mxCell id="JIOs8HF9aQNVbFvBmBlv-72" value="4" style="ellipse;whiteSpace=wrap;html=1;aspect=fixed;rotation=0;gradientColor=#223548;strokeColor=none;gradientDirection=east;fillColor=#5b738b;rounded=0;pointerEvents=0;fontFamily=Helvetica;fontSize=16;fontColor=#FFFFFF;spacingTop=4;spacingBottom=4;spacingLeft=4;spacingRight=4;points=[];fontStyle=1" parent="JIOs8HF9aQNVbFvBmBlv-20" vertex="1">
          <mxGeometry x="402" y="437" width="30" height="30" as="geometry" />
        </mxCell>
        <mxCell id="yslGIPZhhn_wftm4TBrQ-14" style="edgeStyle=orthogonalEdgeStyle;rounded=0;orthogonalLoop=1;jettySize=auto;html=1;entryX=0.25;entryY=1;entryDx=0;entryDy=0;sketch=1;curveFitting=1;jiggle=2;strokeColor=#FF00FF;exitX=0.971;exitY=0.443;exitDx=0;exitDy=0;exitPerimeter=0;" parent="JIOs8HF9aQNVbFvBmBlv-20" source="JIOs8HF9aQNVbFvBmBlv-75" target="JIOs8HF9aQNVbFvBmBlv-114" edge="1">
          <mxGeometry relative="1" as="geometry">
            <Array as="points">
              <mxPoint x="283" y="701" />
              <mxPoint x="560" y="701" />
            </Array>
            <mxPoint x="290" y="703" as="sourcePoint" />
          </mxGeometry>
        </mxCell>
        <mxCell id="yslGIPZhhn_wftm4TBrQ-16" value="Event Listener:&lt;div&gt;#UserAccount Topics&lt;/div&gt;" style="edgeLabel;html=1;align=center;verticalAlign=middle;resizable=0;points=[];" parent="yslGIPZhhn_wftm4TBrQ-14" vertex="1" connectable="0">
          <mxGeometry x="-0.2269" relative="1" as="geometry">
            <mxPoint as="offset" />
          </mxGeometry>
        </mxCell>
        <mxCell id="JIOs8HF9aQNVbFvBmBlv-75" value="5" style="ellipse;whiteSpace=wrap;html=1;aspect=fixed;rotation=0;gradientColor=#223548;strokeColor=none;gradientDirection=east;fillColor=#5b738b;rounded=0;pointerEvents=0;fontFamily=Helvetica;fontSize=16;fontColor=#FFFFFF;spacingTop=4;spacingBottom=4;spacingLeft=4;spacingRight=4;points=[];fontStyle=1" parent="JIOs8HF9aQNVbFvBmBlv-20" vertex="1">
          <mxGeometry x="230" y="688" width="30" height="30" as="geometry" />
        </mxCell>
        <mxCell id="JIOs8HF9aQNVbFvBmBlv-82" value="Authentication &amp;amp; Authorisation Mgmt" style="rounded=1;whiteSpace=wrap;html=1;fillColor=#f5f5f5;strokeColor=#666666;sketch=1;curveFitting=1;jiggle=2;fillStyle=auto;sketchStyle=rough;disableMultiStroke=0;disableMultiStrokeFill=0;treeFolding=0;treeMoving=0;backgroundOutline=0;imageAspect=1;glass=0;gradientColor=#b3b3b3;gradientDirection=north;fillWeight=3;" parent="JIOs8HF9aQNVbFvBmBlv-20" vertex="1">
          <mxGeometry x="554" y="256" width="130" height="40" as="geometry" />
        </mxCell>
        <mxCell id="JIOs8HF9aQNVbFvBmBlv-91" value="" style="shape=image;editableCssRules=.*;verticalLabelPosition=bottom;labelBackgroundColor=default;verticalAlign=top;aspect=fixed;imageAspect=0;image=data:image/svg+xml,PHN2ZyB4bWxucz0iaHR0cDovL3d3dy53My5vcmcvMjAwMC9zdmciIHZpZXdCb3g9Ii0wLjUgLTAuNSAyOCAyOCIgaGVpZ2h0PSIyOCIgd2lkdGg9IjI4Ij4mI3hhOwkgIDxzdHlsZSB0eXBlPSJ0ZXh0L2NzcyI+LnN0MCB7IHN0b3AtY29sb3I6IHJnYigxMDIsIDE3OCwgMjU1KTsgfSAuc3QxIHsgc3RvcC1jb2xvcjogcmdiKDAsIDEyNywgMjU1KTsgfSA8L3N0eWxlPiYjeGE7CTxkZWZzPiYjeGE7CQk8bGluZWFyR3JhZGllbnQgZ3JhZGllbnRVbml0cz0idXNlclNwYWNlT25Vc2UiIHkyPSIyNS4zMDkiIHgyPSIyMy40NTQiIHkxPSIzLjQ3NCIgeDE9IjIuMDM5IiBpZD0iQSI+JiN4YTsJCQk8c3RvcCBjbGFzcz0ic3QwIi8+JiN4YTsJCQk8c3RvcCBjbGFzcz0ic3QxIiBvZmZzZXQ9IjEiLz4mI3hhOwkJPC9saW5lYXJHcmFkaWVudD4mI3hhOwk8L2RlZnM+JiN4YTsJPHBhdGggZmlsbD0idXJsKCNBKSIgZD0iTS0uNSAxMy40NzJjMC0xLjkzLjM3MS0zLjczIDEuMTEzLTUuNC43NDItMS43MDcgMS43NDQtMy4xOTIgMy4wMDYtNC40NTNTNi4zNjUgMS4zNTYgOC4wNzMuNjEzIDExLjU5OC0uNSAxMy41MjgtLjVzMy43My4zNzEgNS40IDEuMTEzYzEuNzA3Ljc0MiAzLjE5MiAxLjc0NCA0LjQ1MyAzLjAwNnMyLjI2NCAyLjc0NiAzLjAwNiA0LjQ1M2MuNzQyIDEuNjcgMS4xMTMgMy40NyAxLjExMyA1LjRzLS4zNzEgMy43NDgtMS4xMTMgNS40NTUtMS43NDQgMy4xOTItMy4wMDYgNC40NTNhMTQuMjggMTQuMjggMCAwIDEtNC40NTMgMy4wMDZjLTEuNjcuNzQyLTMuNDcgMS4xMTMtNS40IDEuMTEzcy0zLjc0OC0uMzcxLTUuNDU1LTEuMTEzYTE0LjI4IDE0LjI4IDAgMCAxLTQuNDUzLTMuMDA2IDE0LjI4IDE0LjI4IDAgMCAxLTMuMDA2LTQuNDUzQy0uMTI5IDE3LjIyLS41IDE1LjQwMi0uNSAxMy40NzJ6bTE2LjgxMSA0LjIzMWE2LjY1IDYuNjUgMCAwIDEgMy4yODQuODM1YzEuMDAyLjUyIDEuODE4IDEuMjQzIDIuNDQ5IDIuMTcxYTEwLjE0IDEwLjE0IDAgMCAwIDEuOTQ4LTMuMjg0Yy40ODItMS4yMjUuNzI0LTIuNTQyLjcyNC0zLjk1MiAwLTEuNTU5LS4yOTctMy4wMDYtLjg5MS00LjM0Mi0uNTk0LTEuMzczLTEuMzkyLTIuNTYxLTIuMzk0LTMuNTYzcy0yLjE5LTEuOC0zLjU2My0yLjM5NGMtMS4zMzYtLjU5NC0yLjc4My0uODkxLTQuMzQyLS44OTFzLTMuMDI0LjI5Ny00LjM5OC44OTFjLTEuMzM2LjU5NC0yLjUyNCAxLjM5Mi0zLjU2MyAyLjM5NEExMS4zNSAxMS4zNSAwIDAgMCAzLjE3NCA5LjEzYy0uNTk0IDEuMzM2LS44OTEgMi43ODMtLjg5MSA0LjM0MiAwIDEuNDEuMjIzIDIuNzI4LjY2OCAzLjk1Mi40ODIgMS4yMjUgMS4xNSAyLjMxOSAyLjAwNCAzLjI4NC42MzEtLjkyOCAxLjQ0Ny0xLjY1MSAyLjQ0OS0yLjE3MWE2LjY1IDYuNjUgMCAwIDEgMy4yODQtLjgzNXptMi43ODMtNy4wMTRhNS42OCA1LjY4IDAgMCAxLS40NDUgMi4yMjcgNS44NyA1Ljg3IDAgMCAxLTEuMjI1IDEuNzgxYy0uNDgyLjQ4Mi0xLjA1OC44NzItMS43MjYgMS4xNjlzLTEuMzkyLjQ0NS0yLjE3MS40NDVhNS42OCA1LjY4IDAgMCAxLTIuMjI3LS40NDUgNi40NCA2LjQ0IDAgMCAxLTEuNzgxLTEuMTY5IDYuNDQgNi40NCAwIDAgMS0xLjE2OS0xLjc4MSA1LjY4IDUuNjggMCAwIDEtLjQ0NS0yLjIyN2MwLS43NzkuMTQ4LTEuNTAzLjQ0NS0yLjE3MUE2LjQ0IDYuNDQgMCAwIDEgOS41MiA2LjczN2E1Ljg3IDUuODcgMCAwIDEgMS43ODEtMS4yMjUgNS42OCA1LjY4IDAgMCAxIDIuMjI3LS40NDVjLjc3OSAwIDEuNTAzLjE0OCAyLjE3MS40NDVzMS4yNDMuNzA1IDEuNzI2IDEuMjI1YTUuODcgNS44NyAwIDAgMSAxLjIyNSAxLjc4MWMuMjk3LjY2OC40NDUgMS4zOTIuNDQ1IDIuMTcxem0tMi43ODMgMGMwLS43NzktLjI3OC0xLjQyOS0uODM1LTEuOTQ4LS41NTctLjU1Ny0xLjIwNi0uODM1LTEuOTQ4LS44MzVhMi43MyAyLjczIDAgMCAwLTIuMDA0LjgzNWMtLjU1Ny41Mi0uODM1IDEuMTY5LS44MzUgMS45NDhhMi43MyAyLjczIDAgMCAwIC44MzUgMi4wMDRjLjU1Ny41MiAxLjIyNS43NzkgMi4wMDQuNzc5Ljc0MiAwIDEuMzkyLS4yNiAxLjk0OC0uNzc5YTIuNzMgMi43MyAwIDAgMCAuODM1LTIuMDA0ek03LjA3MSAyMi42NTdjLjg5MS42MzEgMS44NzQgMS4xMzIgMi45NSAxLjUwMyAxLjExMy4zNzEgMi4yODIuNTU3IDMuNTA3LjU1NyAxLjE4OCAwIDIuMzE5LS4xODYgMy4zOTYtLjU1NyAxLjExMy0uMzcxIDIuMTE1LS44NzIgMy4wMDYtMS41MDMtLjM3MS0uNjY4LS44OTEtMS4xODgtMS41NTktMS41NTktLjYzMS0uNDA4LTEuMzE3LS42MTItMi4wNi0uNjEyaC01LjYyMmMtLjc0MiAwLTEuNDQ3LjIwNC0yLjExNS42MTItLjYzMS4zNzEtMS4xMzIuODkxLTEuNTAzIDEuNTU5eiIvPiYjeGE7PC9zdmc+;imageBackground=default;" parent="JIOs8HF9aQNVbFvBmBlv-20" vertex="1">
          <mxGeometry x="290.88" y="1071" width="20" height="20" as="geometry" />
        </mxCell>
        <mxCell id="JIOs8HF9aQNVbFvBmBlv-92" value="" style="shape=image;editableCssRules=.*;verticalLabelPosition=bottom;labelBackgroundColor=default;verticalAlign=top;aspect=fixed;imageAspect=0;image=data:image/svg+xml,PHN2ZyB4bWxucz0iaHR0cDovL3d3dy53My5vcmcvMjAwMC9zdmciIHZpZXdCb3g9Ii0wLjUgLTAuNSAyOCAyOCIgaGVpZ2h0PSIyOCIgd2lkdGg9IjI4Ij4mI3hhOwkgIDxzdHlsZSB0eXBlPSJ0ZXh0L2NzcyI+LnN0MCB7IHN0b3AtY29sb3I6IHJnYigyNDEsIDE1NiwgMTUzKTsgfSAuc3QxIHsgc3RvcC1jb2xvcjogcmdiKDIzNCwgMTA3LCAxMDIpOyB9IDwvc3R5bGU+JiN4YTsJPGRlZnM+JiN4YTsJCTxsaW5lYXJHcmFkaWVudCBncmFkaWVudFVuaXRzPSJ1c2VyU3BhY2VPblVzZSIgeTI9IjI1LjMwOSIgeDI9IjIzLjQ1NCIgeTE9IjMuNDc0IiB4MT0iMi4wMzkiIGlkPSJBIj4mI3hhOwkJCTxzdG9wIGNsYXNzPSJzdDAiLz4mI3hhOwkJCTxzdG9wIGNsYXNzPSJzdDEiIG9mZnNldD0iMSIvPiYjeGE7CQk8L2xpbmVhckdyYWRpZW50PiYjeGE7CTwvZGVmcz4mI3hhOwk8cGF0aCBmaWxsPSJ1cmwoI0EpIiBkPSJNLS41IDEzLjQ3MmMwLTEuOTMuMzcxLTMuNzMgMS4xMTMtNS40Ljc0Mi0xLjcwNyAxLjc0NC0zLjE5MiAzLjAwNi00LjQ1M1M2LjM2NSAxLjM1NiA4LjA3My42MTMgMTEuNTk4LS41IDEzLjUyOC0uNXMzLjczLjM3MSA1LjQgMS4xMTNjMS43MDcuNzQyIDMuMTkyIDEuNzQ0IDQuNDUzIDMuMDA2czIuMjY0IDIuNzQ2IDMuMDA2IDQuNDUzYy43NDIgMS42NyAxLjExMyAzLjQ3IDEuMTEzIDUuNHMtLjM3MSAzLjc0OC0xLjExMyA1LjQ1NS0xLjc0NCAzLjE5Mi0zLjAwNiA0LjQ1M2ExNC4yOCAxNC4yOCAwIDAgMS00LjQ1MyAzLjAwNmMtMS42Ny43NDItMy40NyAxLjExMy01LjQgMS4xMTNzLTMuNzQ4LS4zNzEtNS40NTUtMS4xMTNhMTQuMjggMTQuMjggMCAwIDEtNC40NTMtMy4wMDYgMTQuMjggMTQuMjggMCAwIDEtMy4wMDYtNC40NTNDLS4xMjkgMTcuMjItLjUgMTUuNDAyLS41IDEzLjQ3MnptMTYuODExIDQuMjMxYTYuNjUgNi42NSAwIDAgMSAzLjI4NC44MzVjMS4wMDIuNTIgMS44MTggMS4yNDMgMi40NDkgMi4xNzFhMTAuMTQgMTAuMTQgMCAwIDAgMS45NDgtMy4yODRjLjQ4Mi0xLjIyNS43MjQtMi41NDIuNzI0LTMuOTUyIDAtMS41NTktLjI5Ny0zLjAwNi0uODkxLTQuMzQyLS41OTQtMS4zNzMtMS4zOTItMi41NjEtMi4zOTQtMy41NjNzLTIuMTktMS44LTMuNTYzLTIuMzk0Yy0xLjMzNi0uNTk0LTIuNzgzLS44OTEtNC4zNDItLjg5MXMtMy4wMjQuMjk3LTQuMzk4Ljg5MWMtMS4zMzYuNTk0LTIuNTI0IDEuMzkyLTMuNTYzIDIuMzk0QTExLjM1IDExLjM1IDAgMCAwIDMuMTc0IDkuMTNjLS41OTQgMS4zMzYtLjg5MSAyLjc4My0uODkxIDQuMzQyIDAgMS40MS4yMjMgMi43MjguNjY4IDMuOTUyLjQ4MiAxLjIyNSAxLjE1IDIuMzE5IDIuMDA0IDMuMjg0LjYzMS0uOTI4IDEuNDQ3LTEuNjUxIDIuNDQ5LTIuMTcxYTYuNjUgNi42NSAwIDAgMSAzLjI4NC0uODM1em0yLjc4My03LjAxNGE1LjY4IDUuNjggMCAwIDEtLjQ0NSAyLjIyNyA1Ljg3IDUuODcgMCAwIDEtMS4yMjUgMS43ODFjLS40ODIuNDgyLTEuMDU4Ljg3Mi0xLjcyNiAxLjE2OXMtMS4zOTIuNDQ1LTIuMTcxLjQ0NWE1LjY4IDUuNjggMCAwIDEtMi4yMjctLjQ0NSA2LjQ0IDYuNDQgMCAwIDEtMS43ODEtMS4xNjkgNi40NCA2LjQ0IDAgMCAxLTEuMTY5LTEuNzgxIDUuNjggNS42OCAwIDAgMS0uNDQ1LTIuMjI3YzAtLjc3OS4xNDgtMS41MDMuNDQ1LTIuMTcxQTYuNDQgNi40NCAwIDAgMSA5LjUyIDYuNzM3YTUuODcgNS44NyAwIDAgMSAxLjc4MS0xLjIyNSA1LjY4IDUuNjggMCAwIDEgMi4yMjctLjQ0NWMuNzc5IDAgMS41MDMuMTQ4IDIuMTcxLjQ0NXMxLjI0My43MDUgMS43MjYgMS4yMjVhNS44NyA1Ljg3IDAgMCAxIDEuMjI1IDEuNzgxYy4yOTcuNjY4LjQ0NSAxLjM5Mi40NDUgMi4xNzF6bS0yLjc4MyAwYzAtLjc3OS0uMjc4LTEuNDI5LS44MzUtMS45NDgtLjU1Ny0uNTU3LTEuMjA2LS44MzUtMS45NDgtLjgzNWEyLjczIDIuNzMgMCAwIDAtMi4wMDQuODM1Yy0uNTU3LjUyLS44MzUgMS4xNjktLjgzNSAxLjk0OGEyLjczIDIuNzMgMCAwIDAgLjgzNSAyLjAwNGMuNTU3LjUyIDEuMjI1Ljc3OSAyLjAwNC43NzkuNzQyIDAgMS4zOTItLjI2IDEuOTQ4LS43NzlhMi43MyAyLjczIDAgMCAwIC44MzUtMi4wMDR6TTcuMDcxIDIyLjY1N2MuODkxLjYzMSAxLjg3NCAxLjEzMiAyLjk1IDEuNTAzIDEuMTEzLjM3MSAyLjI4Mi41NTcgMy41MDcuNTU3IDEuMTg4IDAgMi4zMTktLjE4NiAzLjM5Ni0uNTU3IDEuMTEzLS4zNzEgMi4xMTUtLjg3MiAzLjAwNi0xLjUwMy0uMzcxLS42NjgtLjg5MS0xLjE4OC0xLjU1OS0xLjU1OS0uNjMxLS40MDgtMS4zMTctLjYxMi0yLjA2LS42MTJoLTUuNjIyYy0uNzQyIDAtMS40NDcuMjA0LTIuMTE1LjYxMi0uNjMxLjM3MS0xLjEzMi44OTEtMS41MDMgMS41NTl6Ii8+JiN4YTs8L3N2Zz4=;imageBackground=default;" parent="JIOs8HF9aQNVbFvBmBlv-20" vertex="1">
          <mxGeometry x="290.88" y="1096" width="20" height="20" as="geometry" />
        </mxCell>
        <mxCell id="JIOs8HF9aQNVbFvBmBlv-93" value="&lt;font style=&quot;font-size: 10px;&quot;&gt;User account variant&lt;/font&gt;" style="text;html=1;align=center;verticalAlign=middle;whiteSpace=wrap;rounded=0;fontSize=11;textShadow=1;labelBorderColor=none;labelBackgroundColor=none;" parent="JIOs8HF9aQNVbFvBmBlv-20" vertex="1">
          <mxGeometry x="314.88" y="1122.5" width="104" height="15" as="geometry" />
        </mxCell>
        <mxCell id="JIOs8HF9aQNVbFvBmBlv-94" value="&lt;font style=&quot;font-size: 10px;&quot;&gt;Normalised user account&lt;/font&gt;" style="text;html=1;align=center;verticalAlign=middle;whiteSpace=wrap;rounded=0;fontSize=11;shadow=0;textShadow=1;labelBorderColor=none;labelBackgroundColor=none;" parent="JIOs8HF9aQNVbFvBmBlv-20" vertex="1">
          <mxGeometry x="314.88" y="1073" width="121" height="16" as="geometry" />
        </mxCell>
        <mxCell id="JIOs8HF9aQNVbFvBmBlv-95" value="&lt;h1 style=&quot;margin-top: 0px;&quot;&gt;Legend&lt;/h1&gt;&lt;h1 style=&quot;margin-top: 0px;&quot;&gt;&lt;br&gt;&lt;/h1&gt;" style="text;html=1;whiteSpace=wrap;overflow=hidden;rounded=0;shadow=0;" parent="JIOs8HF9aQNVbFvBmBlv-20" vertex="1">
          <mxGeometry x="411" y="988" width="88" height="42" as="geometry" />
        </mxCell>
        <mxCell id="JIOs8HF9aQNVbFvBmBlv-96" value="" style="shape=image;editableCssRules=.*;verticalLabelPosition=bottom;labelBackgroundColor=default;verticalAlign=top;aspect=fixed;imageAspect=0;image=data:image/svg+xml,PHN2ZyB4bWxucz0iaHR0cDovL3d3dy53My5vcmcvMjAwMC9zdmciIHZpZXdCb3g9Ii0wLjUgLTAuNSAyOCAyOCIgaGVpZ2h0PSIyOCIgd2lkdGg9IjI4Ij4mI3hhOwkgIDxzdHlsZSB0eXBlPSJ0ZXh0L2NzcyI+LnN0MCB7IHN0b3AtY29sb3I6IHJnYigxODUsIDIyNCwgMTY1KTsgfSAuc3QxIHsgc3RvcC1jb2xvcjogcmdiKDE1MSwgMjA4LCAxMTkpOyB9IDwvc3R5bGU+JiN4YTsJPGRlZnM+JiN4YTsJCTxsaW5lYXJHcmFkaWVudCBncmFkaWVudFVuaXRzPSJ1c2VyU3BhY2VPblVzZSIgeTI9IjI1LjMwOSIgeDI9IjIzLjQ1NCIgeTE9IjMuNDc0IiB4MT0iMi4wMzkiIGlkPSJBIj4mI3hhOwkJCTxzdG9wIGNsYXNzPSJzdDAiLz4mI3hhOwkJCTxzdG9wIGNsYXNzPSJzdDEiIG9mZnNldD0iMSIvPiYjeGE7CQk8L2xpbmVhckdyYWRpZW50PiYjeGE7CTwvZGVmcz4mI3hhOwk8cGF0aCBmaWxsPSJ1cmwoI0EpIiBkPSJNLS41IDEzLjQ3MmMwLTEuOTMuMzcxLTMuNzMgMS4xMTMtNS40Ljc0Mi0xLjcwNyAxLjc0NC0zLjE5MiAzLjAwNi00LjQ1M1M2LjM2NSAxLjM1NiA4LjA3My42MTMgMTEuNTk4LS41IDEzLjUyOC0uNXMzLjczLjM3MSA1LjQgMS4xMTNjMS43MDcuNzQyIDMuMTkyIDEuNzQ0IDQuNDUzIDMuMDA2czIuMjY0IDIuNzQ2IDMuMDA2IDQuNDUzYy43NDIgMS42NyAxLjExMyAzLjQ3IDEuMTEzIDUuNHMtLjM3MSAzLjc0OC0xLjExMyA1LjQ1NS0xLjc0NCAzLjE5Mi0zLjAwNiA0LjQ1M2ExNC4yOCAxNC4yOCAwIDAgMS00LjQ1MyAzLjAwNmMtMS42Ny43NDItMy40NyAxLjExMy01LjQgMS4xMTNzLTMuNzQ4LS4zNzEtNS40NTUtMS4xMTNhMTQuMjggMTQuMjggMCAwIDEtNC40NTMtMy4wMDYgMTQuMjggMTQuMjggMCAwIDEtMy4wMDYtNC40NTNDLS4xMjkgMTcuMjItLjUgMTUuNDAyLS41IDEzLjQ3MnptMTYuODExIDQuMjMxYTYuNjUgNi42NSAwIDAgMSAzLjI4NC44MzVjMS4wMDIuNTIgMS44MTggMS4yNDMgMi40NDkgMi4xNzFhMTAuMTQgMTAuMTQgMCAwIDAgMS45NDgtMy4yODRjLjQ4Mi0xLjIyNS43MjQtMi41NDIuNzI0LTMuOTUyIDAtMS41NTktLjI5Ny0zLjAwNi0uODkxLTQuMzQyLS41OTQtMS4zNzMtMS4zOTItMi41NjEtMi4zOTQtMy41NjNzLTIuMTktMS44LTMuNTYzLTIuMzk0Yy0xLjMzNi0uNTk0LTIuNzgzLS44OTEtNC4zNDItLjg5MXMtMy4wMjQuMjk3LTQuMzk4Ljg5MWMtMS4zMzYuNTk0LTIuNTI0IDEuMzkyLTMuNTYzIDIuMzk0QTExLjM1IDExLjM1IDAgMCAwIDMuMTc0IDkuMTNjLS41OTQgMS4zMzYtLjg5MSAyLjc4My0uODkxIDQuMzQyIDAgMS40MS4yMjMgMi43MjguNjY4IDMuOTUyLjQ4MiAxLjIyNSAxLjE1IDIuMzE5IDIuMDA0IDMuMjg0LjYzMS0uOTI4IDEuNDQ3LTEuNjUxIDIuNDQ5LTIuMTcxYTYuNjUgNi42NSAwIDAgMSAzLjI4NC0uODM1em0yLjc4My03LjAxNGE1LjY4IDUuNjggMCAwIDEtLjQ0NSAyLjIyNyA1Ljg3IDUuODcgMCAwIDEtMS4yMjUgMS43ODFjLS40ODIuNDgyLTEuMDU4Ljg3Mi0xLjcyNiAxLjE2OXMtMS4zOTIuNDQ1LTIuMTcxLjQ0NWE1LjY4IDUuNjggMCAwIDEtMi4yMjctLjQ0NSA2LjQ0IDYuNDQgMCAwIDEtMS43ODEtMS4xNjkgNi40NCA2LjQ0IDAgMCAxLTEuMTY5LTEuNzgxIDUuNjggNS42OCAwIDAgMS0uNDQ1LTIuMjI3YzAtLjc3OS4xNDgtMS41MDMuNDQ1LTIuMTcxQTYuNDQgNi40NCAwIDAgMSA5LjUyIDYuNzM3YTUuODcgNS44NyAwIDAgMSAxLjc4MS0xLjIyNSA1LjY4IDUuNjggMCAwIDEgMi4yMjctLjQ0NWMuNzc5IDAgMS41MDMuMTQ4IDIuMTcxLjQ0NXMxLjI0My43MDUgMS43MjYgMS4yMjVhNS44NyA1Ljg3IDAgMCAxIDEuMjI1IDEuNzgxYy4yOTcuNjY4LjQ0NSAxLjM5Mi40NDUgMi4xNzF6bS0yLjc4MyAwYzAtLjc3OS0uMjc4LTEuNDI5LS44MzUtMS45NDgtLjU1Ny0uNTU3LTEuMjA2LS44MzUtMS45NDgtLjgzNWEyLjczIDIuNzMgMCAwIDAtMi4wMDQuODM1Yy0uNTU3LjUyLS44MzUgMS4xNjktLjgzNSAxLjk0OGEyLjczIDIuNzMgMCAwIDAgLjgzNSAyLjAwNGMuNTU3LjUyIDEuMjI1Ljc3OSAyLjAwNC43NzkuNzQyIDAgMS4zOTItLjI2IDEuOTQ4LS43NzlhMi43MyAyLjczIDAgMCAwIC44MzUtMi4wMDR6TTcuMDcxIDIyLjY1N2MuODkxLjYzMSAxLjg3NCAxLjEzMiAyLjk1IDEuNTAzIDEuMTEzLjM3MSAyLjI4Mi41NTcgMy41MDcuNTU3IDEuMTg4IDAgMi4zMTktLjE4NiAzLjM5Ni0uNTU3IDEuMTEzLS4zNzEgMi4xMTUtLjg3MiAzLjAwNi0xLjUwMy0uMzcxLS42NjgtLjg5MS0xLjE4OC0xLjU1OS0xLjU1OS0uNjMxLS40MDgtMS4zMTctLjYxMi0yLjA2LS42MTJoLTUuNjIyYy0uNzQyIDAtMS40NDcuMjA0LTIuMTE1LjYxMi0uNjMxLjM3MS0xLjEzMi44OTEtMS41MDMgMS41NTl6Ii8+JiN4YTs8L3N2Zz4=;imageBackground=default;" parent="JIOs8HF9aQNVbFvBmBlv-20" vertex="1">
          <mxGeometry x="290.88" y="1120" width="20" height="20" as="geometry" />
        </mxCell>
        <mxCell id="JIOs8HF9aQNVbFvBmBlv-97" value="&lt;font style=&quot;font-size: 10px;&quot;&gt;User account variant&lt;/font&gt;" style="text;html=1;align=center;verticalAlign=middle;whiteSpace=wrap;rounded=0;fontSize=11;shadow=0;textShadow=1;labelBorderColor=none;labelBackgroundColor=none;" parent="JIOs8HF9aQNVbFvBmBlv-20" vertex="1">
          <mxGeometry x="314.88" y="1096.5" width="101" height="19" as="geometry" />
        </mxCell>
        <mxCell id="yslGIPZhhn_wftm4TBrQ-15" style="edgeStyle=orthogonalEdgeStyle;rounded=0;orthogonalLoop=1;jettySize=auto;html=1;sketch=1;curveFitting=1;jiggle=2;strokeColor=#FF00FF;exitX=0.536;exitY=0.052;exitDx=0;exitDy=0;exitPerimeter=0;" parent="JIOs8HF9aQNVbFvBmBlv-20" source="JIOs8HF9aQNVbFvBmBlv-74" target="JIOs8HF9aQNVbFvBmBlv-114" edge="1">
          <mxGeometry relative="1" as="geometry">
            <Array as="points">
              <mxPoint x="674" y="689" />
              <mxPoint x="674" y="640" />
              <mxPoint x="590" y="640" />
            </Array>
            <mxPoint x="674" y="687" as="sourcePoint" />
          </mxGeometry>
        </mxCell>
        <mxCell id="yslGIPZhhn_wftm4TBrQ-17" value="Event Listener:&lt;div&gt;#UserAccount Topics&lt;/div&gt;" style="edgeLabel;html=1;align=center;verticalAlign=middle;resizable=0;points=[];" parent="yslGIPZhhn_wftm4TBrQ-15" vertex="1" connectable="0">
          <mxGeometry x="-0.3735" y="2" relative="1" as="geometry">
            <mxPoint x="11" y="-2" as="offset" />
          </mxGeometry>
        </mxCell>
        <mxCell id="JIOs8HF9aQNVbFvBmBlv-99" style="rounded=0;orthogonalLoop=1;jettySize=auto;html=1;strokeColor=#FF00FF;sketch=1;curveFitting=1;jiggle=2;" parent="JIOs8HF9aQNVbFvBmBlv-20" edge="1">
          <mxGeometry relative="1" as="geometry">
            <mxPoint x="490.63" y="1105.04" as="sourcePoint" />
            <mxPoint x="590.63" y="1106.04" as="targetPoint" />
          </mxGeometry>
        </mxCell>
        <mxCell id="JIOs8HF9aQNVbFvBmBlv-100" value="&amp;nbsp;Consume event&amp;nbsp;" style="edgeLabel;html=1;align=center;verticalAlign=middle;resizable=0;points=[];fontSize=8;textShadow=1;" parent="JIOs8HF9aQNVbFvBmBlv-99" vertex="1" connectable="0">
          <mxGeometry x="0.19" y="-2" relative="1" as="geometry">
            <mxPoint x="-11" y="-2" as="offset" />
          </mxGeometry>
        </mxCell>
        <mxCell id="JIOs8HF9aQNVbFvBmBlv-101" style="rounded=0;orthogonalLoop=1;jettySize=auto;html=1;strokeColor=#d79b00;sketch=1;curveFitting=1;jiggle=2;fillColor=#ffe6cc;" parent="JIOs8HF9aQNVbFvBmBlv-20" edge="1">
          <mxGeometry relative="1" as="geometry">
            <mxPoint x="490.63" y="1081.54" as="sourcePoint" />
            <mxPoint x="590" y="1082" as="targetPoint" />
          </mxGeometry>
        </mxCell>
        <mxCell id="JIOs8HF9aQNVbFvBmBlv-102" value="&amp;nbsp;Emit event&amp;nbsp;" style="edgeLabel;html=1;align=center;verticalAlign=middle;resizable=0;points=[];fontSize=8;textShadow=1;" parent="JIOs8HF9aQNVbFvBmBlv-101" vertex="1" connectable="0">
          <mxGeometry x="0.19" y="-2" relative="1" as="geometry">
            <mxPoint x="-7" y="-3" as="offset" />
          </mxGeometry>
        </mxCell>
        <mxCell id="JIOs8HF9aQNVbFvBmBlv-103" style="rounded=0;orthogonalLoop=1;jettySize=auto;html=1;strokeColor=#000000;dashed=1;dashPattern=8 8;flowAnimation=1;" parent="JIOs8HF9aQNVbFvBmBlv-20" edge="1">
          <mxGeometry relative="1" as="geometry">
            <mxPoint x="490.63" y="1128.62" as="sourcePoint" />
            <mxPoint x="590.63" y="1130.4699999999998" as="targetPoint" />
          </mxGeometry>
        </mxCell>
        <mxCell id="JIOs8HF9aQNVbFvBmBlv-104" value="&lt;span style=&quot;caret-color: rgba(0, 0, 0, 0); color: rgba(0, 0, 0, 0); font-family: monospace; font-size: 0px; text-align: start; background-color: rgb(251, 251, 251);&quot;&gt;%3CmxGraphModel%3E%3Croot%3E%3CmxCell%20id%3D%220%22%2F%3E%3CmxCell%20id%3D%221%22%20parent%3D%220%22%2F%3E%3CmxCell%20id%3D%222%22%20value%3D%22API%20Call%3A%26amp%3Bnbsp%3B%26lt%3Bdiv%26gt%3BGet%20New%20User%20Profile%26lt%3B%2Fdiv%26gt%3B%26lt%3Bdiv%26gt%3BGet%20Updated%20User%20Profile%26lt%3Bbr%26gt%3B%26lt%3B%2Fdiv%26gt%3B%22%20style%3D%22edgeLabel%3Bhtml%3D1%3Balign%3Dcenter%3BverticalAlign%3Dmiddle%3Bresizable%3D0%3Bpoints%3D%5B%5D%3B%22%20vertex%3D%221%22%20connectable%3D%220%22%20parent%3D%221%22%3E%3CmxGeometry%20x%3D%22248%22%20y%3D%22515%22%20as%3D%22geometry%22%2F%3E%3C%2FmxCell%3E%3C%2Froot%3E%3C%2FmxGraphModel%3E&lt;/span&gt;" style="edgeLabel;html=1;align=center;verticalAlign=middle;resizable=0;points=[];" parent="JIOs8HF9aQNVbFvBmBlv-103" vertex="1" connectable="0">
          <mxGeometry x="0.0114" y="-4" relative="1" as="geometry">
            <mxPoint as="offset" />
          </mxGeometry>
        </mxCell>
        <mxCell id="JIOs8HF9aQNVbFvBmBlv-105" value="&amp;nbsp;Event outcome&amp;nbsp;" style="edgeLabel;html=1;align=center;verticalAlign=middle;resizable=0;points=[];fontSize=8;textShadow=1;spacingTop=2;spacingRight=9;" parent="JIOs8HF9aQNVbFvBmBlv-103" vertex="1" connectable="0">
          <mxGeometry x="0.0195" y="-3" relative="1" as="geometry">
            <mxPoint x="5" y="-6" as="offset" />
          </mxGeometry>
        </mxCell>
        <mxCell id="JIOs8HF9aQNVbFvBmBlv-106" value="&lt;h1 style=&quot;margin-top: 0px; font-size: 12px;&quot;&gt;Publish / Subscribe pattern&lt;/h1&gt;" style="text;html=1;whiteSpace=wrap;overflow=hidden;rounded=0;shadow=0;fontSize=12;" parent="JIOs8HF9aQNVbFvBmBlv-20" vertex="1">
          <mxGeometry x="464.63" y="1040" width="160" height="30" as="geometry" />
        </mxCell>
        <mxCell id="JIOs8HF9aQNVbFvBmBlv-113" value="&lt;h1 style=&quot;margin-top: 0px; font-size: 12px;&quot;&gt;Distributed customer data&amp;nbsp;&lt;/h1&gt;" style="text;html=1;whiteSpace=wrap;overflow=hidden;rounded=0;shadow=0;fontSize=12;" parent="JIOs8HF9aQNVbFvBmBlv-20" vertex="1">
          <mxGeometry x="290.88" y="1040" width="160" height="30" as="geometry" />
        </mxCell>
        <mxCell id="JIOs8HF9aQNVbFvBmBlv-115" value="Event Delivery Mgmt" style="rounded=1;whiteSpace=wrap;html=1;fillColor=#f5f5f5;strokeColor=#666666;sketch=1;curveFitting=1;jiggle=2;glass=0;fillWeight=3;disableMultiStroke=0;disableMultiStrokeFill=0;fillStyle=auto;sketchStyle=rough;align=center;verticalAlign=middle;fontFamily=Helvetica;fontSize=12;gradientColor=#b3b3b3;gradientDirection=north;" parent="JIOs8HF9aQNVbFvBmBlv-20" vertex="1">
          <mxGeometry x="624.63" y="574.5" width="130" height="20" as="geometry" />
        </mxCell>
        <mxCell id="JIOs8HF9aQNVbFvBmBlv-117" value="Proprietary API" style="aspect=fixed;sketch=0;html=1;dashed=0;whitespace=wrap;verticalLabelPosition=top;verticalAlign=bottom;fillColor=#2875E2;strokeColor=#ffffff;points=[[0.005,0.63,0],[0.1,0.2,0],[0.9,0.2,0],[0.5,0,0],[0.995,0.63,0],[0.72,0.99,0],[0.5,1,0],[0.28,0.99,0]];shape=mxgraph.kubernetes.icon2;prIcon=api;labelPosition=center;align=center;fontSize=9;" parent="JIOs8HF9aQNVbFvBmBlv-20" vertex="1">
          <mxGeometry x="405" y="319" width="41.67" height="40" as="geometry" />
        </mxCell>
        <mxCell id="JIOs8HF9aQNVbFvBmBlv-127" style="rounded=0;orthogonalLoop=1;jettySize=auto;html=1;exitX=1;exitY=0.75;exitDx=0;exitDy=0;entryX=0.082;entryY=0.033;entryDx=0;entryDy=0;entryPerimeter=0;edgeStyle=orthogonalEdgeStyle;strokeColor=#FF00FF;sketch=1;curveFitting=1;jiggle=2;" parent="JIOs8HF9aQNVbFvBmBlv-20" source="JIOs8HF9aQNVbFvBmBlv-21" target="JIOs8HF9aQNVbFvBmBlv-114" edge="1">
          <mxGeometry relative="1" as="geometry" />
        </mxCell>
        <mxCell id="JIOs8HF9aQNVbFvBmBlv-128" value="Event Listener:&amp;nbsp;&lt;div&gt;#UserAccount Topics&lt;/div&gt;" style="edgeLabel;html=1;align=center;verticalAlign=middle;resizable=0;points=[];" parent="JIOs8HF9aQNVbFvBmBlv-127" vertex="1" connectable="0">
          <mxGeometry x="0.3788" y="-3" relative="1" as="geometry">
            <mxPoint x="5" y="-20" as="offset" />
          </mxGeometry>
        </mxCell>
        <mxCell id="N4uxb6JnLH10JCopEIms-16" value="Customer Data Analysis" style="rounded=1;whiteSpace=wrap;html=1;fillColor=#f5f5f5;strokeColor=#666666;sketch=1;curveFitting=1;jiggle=2;fillStyle=auto;glass=0;fillWeight=3;disableMultiStroke=0;disableMultiStrokeFill=0;sketchStyle=rough;align=center;verticalAlign=middle;fontFamily=Helvetica;fontSize=12;gradientColor=#b3b3b3;gradientDirection=north;" parent="JIOs8HF9aQNVbFvBmBlv-20" vertex="1">
          <mxGeometry x="428.88" y="356" width="140" height="20" as="geometry" />
        </mxCell>
        <mxCell id="3ExE7GxzhrG30xC6ED5a-8" value="" style="shape=image;editableCssRules=.*;verticalLabelPosition=bottom;labelBackgroundColor=default;verticalAlign=top;aspect=fixed;imageAspect=0;image=data:image/svg+xml,PHN2ZyB4bWxucz0iaHR0cDovL3d3dy53My5vcmcvMjAwMC9zdmciIHZpZXdCb3g9Ii0wLjUgLTAuNSAyOCAyOCIgaGVpZ2h0PSIyOCIgd2lkdGg9IjI4Ij4mI3hhOwkgIDxzdHlsZSB0eXBlPSJ0ZXh0L2NzcyI+LnN0MCB7IHN0b3AtY29sb3I6IHJnYigyMzAsIDIzMCwgMjMwKTsgfSAuc3QxIHsgc3RvcC1jb2xvcjogcmdiKDE1MywgMTUzLCAxNTMpOyB9IDwvc3R5bGU+JiN4YTsJPGRlZnM+JiN4YTsJCTxsaW5lYXJHcmFkaWVudCBncmFkaWVudFVuaXRzPSJ1c2VyU3BhY2VPblVzZSIgeTI9IjI1LjMwOSIgeDI9IjIzLjQ1NCIgeTE9IjMuNDc0IiB4MT0iMi4wMzkiIGlkPSJBIj4mI3hhOwkJCTxzdG9wIGNsYXNzPSJzdDAiLz4mI3hhOwkJCTxzdG9wIGNsYXNzPSJzdDEiIG9mZnNldD0iMSIvPiYjeGE7CQk8L2xpbmVhckdyYWRpZW50PiYjeGE7CTwvZGVmcz4mI3hhOwk8cGF0aCBmaWxsPSJ1cmwoI0EpIiBkPSJNLS41IDEzLjQ3MmMwLTEuOTMuMzcxLTMuNzMgMS4xMTMtNS40Ljc0Mi0xLjcwNyAxLjc0NC0zLjE5MiAzLjAwNi00LjQ1M1M2LjM2NSAxLjM1NiA4LjA3My42MTMgMTEuNTk4LS41IDEzLjUyOC0uNXMzLjczLjM3MSA1LjQgMS4xMTNjMS43MDcuNzQyIDMuMTkyIDEuNzQ0IDQuNDUzIDMuMDA2czIuMjY0IDIuNzQ2IDMuMDA2IDQuNDUzYy43NDIgMS42NyAxLjExMyAzLjQ3IDEuMTEzIDUuNHMtLjM3MSAzLjc0OC0xLjExMyA1LjQ1NS0xLjc0NCAzLjE5Mi0zLjAwNiA0LjQ1M2ExNC4yOCAxNC4yOCAwIDAgMS00LjQ1MyAzLjAwNmMtMS42Ny43NDItMy40NyAxLjExMy01LjQgMS4xMTNzLTMuNzQ4LS4zNzEtNS40NTUtMS4xMTNhMTQuMjggMTQuMjggMCAwIDEtNC40NTMtMy4wMDYgMTQuMjggMTQuMjggMCAwIDEtMy4wMDYtNC40NTNDLS4xMjkgMTcuMjItLjUgMTUuNDAyLS41IDEzLjQ3MnptMTYuODExIDQuMjMxYTYuNjUgNi42NSAwIDAgMSAzLjI4NC44MzVjMS4wMDIuNTIgMS44MTggMS4yNDMgMi40NDkgMi4xNzFhMTAuMTQgMTAuMTQgMCAwIDAgMS45NDgtMy4yODRjLjQ4Mi0xLjIyNS43MjQtMi41NDIuNzI0LTMuOTUyIDAtMS41NTktLjI5Ny0zLjAwNi0uODkxLTQuMzQyLS41OTQtMS4zNzMtMS4zOTItMi41NjEtMi4zOTQtMy41NjNzLTIuMTktMS44LTMuNTYzLTIuMzk0Yy0xLjMzNi0uNTk0LTIuNzgzLS44OTEtNC4zNDItLjg5MXMtMy4wMjQuMjk3LTQuMzk4Ljg5MWMtMS4zMzYuNTk0LTIuNTI0IDEuMzkyLTMuNTYzIDIuMzk0QTExLjM1IDExLjM1IDAgMCAwIDMuMTc0IDkuMTNjLS41OTQgMS4zMzYtLjg5MSAyLjc4My0uODkxIDQuMzQyIDAgMS40MS4yMjMgMi43MjguNjY4IDMuOTUyLjQ4MiAxLjIyNSAxLjE1IDIuMzE5IDIuMDA0IDMuMjg0LjYzMS0uOTI4IDEuNDQ3LTEuNjUxIDIuNDQ5LTIuMTcxYTYuNjUgNi42NSAwIDAgMSAzLjI4NC0uODM1em0yLjc4My03LjAxNGE1LjY4IDUuNjggMCAwIDEtLjQ0NSAyLjIyNyA1Ljg3IDUuODcgMCAwIDEtMS4yMjUgMS43ODFjLS40ODIuNDgyLTEuMDU4Ljg3Mi0xLjcyNiAxLjE2OXMtMS4zOTIuNDQ1LTIuMTcxLjQ0NWE1LjY4IDUuNjggMCAwIDEtMi4yMjctLjQ0NSA2LjQ0IDYuNDQgMCAwIDEtMS43ODEtMS4xNjkgNi40NCA2LjQ0IDAgMCAxLTEuMTY5LTEuNzgxIDUuNjggNS42OCAwIDAgMS0uNDQ1LTIuMjI3YzAtLjc3OS4xNDgtMS41MDMuNDQ1LTIuMTcxQTYuNDQgNi40NCAwIDAgMSA5LjUyIDYuNzM3YTUuODcgNS44NyAwIDAgMSAxLjc4MS0xLjIyNSA1LjY4IDUuNjggMCAwIDEgMi4yMjctLjQ0NWMuNzc5IDAgMS41MDMuMTQ4IDIuMTcxLjQ0NXMxLjI0My43MDUgMS43MjYgMS4yMjVhNS44NyA1Ljg3IDAgMCAxIDEuMjI1IDEuNzgxYy4yOTcuNjY4LjQ0NSAxLjM5Mi40NDUgMi4xNzF6bS0yLjc4MyAwYzAtLjc3OS0uMjc4LTEuNDI5LS44MzUtMS45NDgtLjU1Ny0uNTU3LTEuMjA2LS44MzUtMS45NDgtLjgzNWEyLjczIDIuNzMgMCAwIDAtMi4wMDQuODM1Yy0uNTU3LjUyLS44MzUgMS4xNjktLjgzNSAxLjk0OGEyLjczIDIuNzMgMCAwIDAgLjgzNSAyLjAwNGMuNTU3LjUyIDEuMjI1Ljc3OSAyLjAwNC43NzkuNzQyIDAgMS4zOTItLjI2IDEuOTQ4LS43NzlhMi43MyAyLjczIDAgMCAwIC44MzUtMi4wMDR6TTcuMDcxIDIyLjY1N2MuODkxLjYzMSAxLjg3NCAxLjEzMiAyLjk1IDEuNTAzIDEuMTEzLjM3MSAyLjI4Mi41NTcgMy41MDcuNTU3IDEuMTg4IDAgMi4zMTktLjE4NiAzLjM5Ni0uNTU3IDEuMTEzLS4zNzEgMi4xMTUtLjg3MiAzLjAwNi0xLjUwMy0uMzcxLS42NjgtLjg5MS0xLjE4OC0xLjU1OS0xLjU1OS0uNjMxLS40MDgtMS4zMTctLjYxMi0yLjA2LS42MTJoLTUuNjIyYy0uNzQyIDAtMS40NDcuMjA0LTIuMTE1LjYxMi0uNjMxLjM3MS0xLjEzMi44OTEtMS41MDMgMS41NTl6Ii8+JiN4YTs8L3N2Zz4=;imageBackground=default;imageBorder=none;fillOpacity=100;strokeOpacity=100;comic=0;enumerate=0;treeMoving=0;treeFolding=0;" parent="JIOs8HF9aQNVbFvBmBlv-20" vertex="1">
          <mxGeometry x="112" y="486" width="28" height="28" as="geometry" />
        </mxCell>
        <mxCell id="3ExE7GxzhrG30xC6ED5a-9" value="" style="strokeWidth=1;html=1;shape=mxgraph.flowchart.database;whiteSpace=wrap;strokeColor=#000000;" parent="JIOs8HF9aQNVbFvBmBlv-20" vertex="1">
          <mxGeometry x="70" y="490" width="30" height="20" as="geometry" />
        </mxCell>
        <mxCell id="3ExE7GxzhrG30xC6ED5a-11" style="edgeStyle=orthogonalEdgeStyle;rounded=0;orthogonalLoop=1;jettySize=auto;html=1;exitX=0.75;exitY=1;exitDx=0;exitDy=0;sketch=1;curveFitting=1;jiggle=2;strokeColor=#FF00FF;entryX=0;entryY=0.5;entryDx=0;entryDy=0;" parent="JIOs8HF9aQNVbFvBmBlv-20" source="JIOs8HF9aQNVbFvBmBlv-48" target="JIOs8HF9aQNVbFvBmBlv-114" edge="1">
          <mxGeometry relative="1" as="geometry">
            <Array as="points">
              <mxPoint x="194" y="555" />
            </Array>
            <mxPoint x="204" y="390" as="sourcePoint" />
            <mxPoint x="230" y="460" as="targetPoint" />
          </mxGeometry>
        </mxCell>
        <mxCell id="3ExE7GxzhrG30xC6ED5a-12" value="Event Listener:&amp;nbsp;&lt;div&gt;#UserAccount Topics&lt;/div&gt;" style="edgeLabel;html=1;align=center;verticalAlign=middle;resizable=0;points=[];" parent="3ExE7GxzhrG30xC6ED5a-11" vertex="1" connectable="0">
          <mxGeometry x="0.0079" y="-1" relative="1" as="geometry">
            <mxPoint x="18" y="-6" as="offset" />
          </mxGeometry>
        </mxCell>
        <mxCell id="3ExE7GxzhrG30xC6ED5a-13" style="edgeStyle=orthogonalEdgeStyle;rounded=0;orthogonalLoop=1;jettySize=auto;html=1;sketch=1;curveFitting=1;jiggle=2;fillColor=#ffe6cc;strokeColor=#d79b00;exitX=1;exitY=0.75;exitDx=0;exitDy=0;entryX=-0.014;entryY=0.888;entryDx=0;entryDy=0;entryPerimeter=0;" parent="JIOs8HF9aQNVbFvBmBlv-20" source="3ExE7GxzhrG30xC6ED5a-21" target="JIOs8HF9aQNVbFvBmBlv-114" edge="1">
          <mxGeometry relative="1" as="geometry">
            <mxPoint x="522" y="585" as="targetPoint" />
            <mxPoint x="170" y="580.375" as="sourcePoint" />
            <Array as="points">
              <mxPoint x="312" y="579" />
              <mxPoint x="500" y="580" />
              <mxPoint x="500" y="578" />
            </Array>
          </mxGeometry>
        </mxCell>
        <mxCell id="3ExE7GxzhrG30xC6ED5a-16" value="&lt;div&gt;Events #UserAccount:&lt;br&gt;&lt;/div&gt;&lt;div&gt;Aggregated Pseudo&amp;nbsp;&lt;/div&gt;&lt;div&gt;User Data (non-PII)&lt;/div&gt;" style="edgeLabel;html=1;align=center;verticalAlign=middle;resizable=0;points=[];" parent="3ExE7GxzhrG30xC6ED5a-13" vertex="1" connectable="0">
          <mxGeometry x="0.2576" relative="1" as="geometry">
            <mxPoint x="22" y="5" as="offset" />
          </mxGeometry>
        </mxCell>
        <mxCell id="3ExE7GxzhrG30xC6ED5a-14" style="rounded=0;orthogonalLoop=1;jettySize=auto;html=1;exitX=1;exitY=1;exitDx=0;exitDy=0;flowAnimation=1;dashed=1;dashPattern=8 8;elbow=vertical;entryX=0;entryY=0.25;entryDx=0;entryDy=0;" parent="JIOs8HF9aQNVbFvBmBlv-20" source="3t2poUQqlpVYaqUKuZvh-3" target="JIOs8HF9aQNVbFvBmBlv-8" edge="1">
          <mxGeometry relative="1" as="geometry">
            <mxPoint x="150" y="530" as="targetPoint" />
          </mxGeometry>
        </mxCell>
        <mxCell id="3ExE7GxzhrG30xC6ED5a-15" value="API call: Get User&amp;nbsp;&lt;div&gt;Account Products&amp;nbsp;&amp;nbsp;&lt;/div&gt;" style="edgeLabel;html=1;align=center;verticalAlign=middle;resizable=0;points=[];" parent="3ExE7GxzhrG30xC6ED5a-14" vertex="1" connectable="0">
          <mxGeometry x="-0.1085" y="3" relative="1" as="geometry">
            <mxPoint x="3" y="8" as="offset" />
          </mxGeometry>
        </mxCell>
        <mxCell id="3ExE7GxzhrG30xC6ED5a-21" value="&lt;b&gt;User Service 2.0&lt;/b&gt;" style="rounded=0;whiteSpace=wrap;html=1;sketch=1;curveFitting=1;jiggle=2;" parent="JIOs8HF9aQNVbFvBmBlv-20" vertex="1">
          <mxGeometry x="50" y="534.5" width="120" height="60" as="geometry" />
        </mxCell>
        <mxCell id="3ExE7GxzhrG30xC6ED5a-23" value="User Data Aggregation" style="rounded=1;whiteSpace=wrap;html=1;fillColor=#f5f5f5;strokeColor=#666666;sketch=1;curveFitting=1;jiggle=2;glass=0;fillWeight=3;disableMultiStroke=0;disableMultiStrokeFill=0;fillStyle=auto;sketchStyle=rough;align=center;verticalAlign=middle;fontFamily=Helvetica;fontSize=12;gradientColor=#b3b3b3;gradientDirection=north;" parent="JIOs8HF9aQNVbFvBmBlv-20" vertex="1">
          <mxGeometry x="14" y="525" width="130" height="20" as="geometry" />
        </mxCell>
        <mxCell id="Oc9iRaVv8JoBrQkCamYU-5" value="&amp;nbsp;user ID xref table" style="swimlane;whiteSpace=wrap;html=1;fillColor=#dae8fc;strokeColor=#999999;fontSize=10;align=center;rounded=0;sketch=1;curveFitting=1;jiggle=2;" parent="JIOs8HF9aQNVbFvBmBlv-20" vertex="1">
          <mxGeometry x="40" y="610" width="131" height="85" as="geometry">
            <mxRectangle x="349" y="430" width="150" height="30" as="alternateBounds" />
          </mxGeometry>
        </mxCell>
        <mxCell id="Oc9iRaVv8JoBrQkCamYU-6" value="&lt;font style=&quot;font-size: 9px;&quot;&gt;Stampen ID:&lt;/font&gt;&lt;div&gt;&lt;span style=&quot;font-size: 9px;&quot;&gt;Okta ID:&amp;nbsp;&lt;/span&gt;&lt;/div&gt;&lt;div&gt;&lt;span style=&quot;font-size: 9px;&quot;&gt;Basic info:&lt;br&gt;&lt;/span&gt;&lt;div&gt;&lt;div&gt;&lt;font style=&quot;font-size: 9px;&quot;&gt;Aria ID:&lt;br&gt;&lt;/font&gt;&lt;/div&gt;&lt;/div&gt;&lt;/div&gt;&lt;div&gt;&lt;span style=&quot;font-size: 9px;&quot;&gt;Piano ID:&lt;/span&gt;&lt;/div&gt;" style="text;html=1;align=left;verticalAlign=middle;resizable=0;points=[];autosize=1;strokeColor=none;fillColor=none;fontSize=10;sketch=1;curveFitting=1;jiggle=2;" parent="Oc9iRaVv8JoBrQkCamYU-5" vertex="1">
          <mxGeometry x="10" y="18" width="70" height="70" as="geometry" />
        </mxCell>
        <mxCell id="JIOs8HF9aQNVbFvBmBlv-74" value="5" style="ellipse;whiteSpace=wrap;html=1;aspect=fixed;rotation=0;gradientColor=#223548;strokeColor=none;gradientDirection=east;fillColor=#5b738b;rounded=0;pointerEvents=0;fontFamily=Helvetica;fontSize=16;fontColor=#FFFFFF;spacingTop=4;spacingBottom=4;spacingLeft=4;spacingRight=4;points=[];fontStyle=1" parent="JIOs8HF9aQNVbFvBmBlv-20" vertex="1">
          <mxGeometry x="660" y="687" width="30" height="30" as="geometry" />
        </mxCell>
        <mxCell id="fCl8L_oT1smjxHd_BwfU-11" value="2" style="ellipse;whiteSpace=wrap;html=1;aspect=fixed;rotation=0;gradientColor=#223548;strokeColor=none;gradientDirection=east;fillColor=#5b738b;rounded=0;pointerEvents=0;fontFamily=Helvetica;fontSize=16;fontColor=#FFFFFF;spacingTop=4;spacingBottom=4;spacingLeft=4;spacingRight=4;points=[];fontStyle=1" parent="JIOs8HF9aQNVbFvBmBlv-20" vertex="1">
          <mxGeometry x="150" y="500" width="30" height="30" as="geometry" />
        </mxCell>
        <mxCell id="yslGIPZhhn_wftm4TBrQ-7" value="2" style="ellipse;whiteSpace=wrap;html=1;aspect=fixed;rotation=0;gradientColor=#223548;strokeColor=none;gradientDirection=east;fillColor=#5b738b;rounded=0;pointerEvents=0;fontFamily=Helvetica;fontSize=16;fontColor=#FFFFFF;spacingTop=4;spacingBottom=4;spacingLeft=4;spacingRight=4;points=[];fontStyle=1" parent="JIOs8HF9aQNVbFvBmBlv-20" vertex="1">
          <mxGeometry x="637.63" y="496" width="30" height="30" as="geometry" />
        </mxCell>
        <mxCell id="Oc9iRaVv8JoBrQkCamYU-14" value="3" style="ellipse;whiteSpace=wrap;html=1;aspect=fixed;rotation=0;gradientColor=#223548;strokeColor=none;gradientDirection=east;fillColor=#5b738b;rounded=0;pointerEvents=0;fontFamily=Helvetica;fontSize=16;fontColor=#FFFFFF;spacingTop=4;spacingBottom=4;spacingLeft=4;spacingRight=4;points=[];fontStyle=1" parent="JIOs8HF9aQNVbFvBmBlv-20" vertex="1">
          <mxGeometry x="594.63" y="496" width="30" height="30" as="geometry" />
        </mxCell>
        <mxCell id="1" value="Distributed profile data" parent="0" />
        <mxCell id="JIOs8HF9aQNVbFvBmBlv-8" value="&lt;font style=&quot;font-size: 10px;&quot;&gt;Segment.io Amplitude or equivalent&amp;nbsp;&lt;/font&gt;" style="whiteSpace=wrap;html=1;aspect=fixed;strokeColor=#000000;fontStyle=1;rounded=1;sketch=1;curveFitting=1;jiggle=2;" parent="1" vertex="1">
          <mxGeometry x="377" y="354" width="80" height="80" as="geometry" />
        </mxCell>
        <mxCell id="dd3niifwiFmpnuj567sv-12" value="" style="rounded=1;whiteSpace=wrap;html=1;" parent="1" vertex="1">
          <mxGeometry x="420" y="1030" width="210.13" height="120" as="geometry" />
        </mxCell>
        <mxCell id="dd3niifwiFmpnuj567sv-9" value="" style="rounded=1;whiteSpace=wrap;html=1;" parent="1" vertex="1">
          <mxGeometry x="279.88" y="1030" width="171" height="120" as="geometry" />
        </mxCell>
        <mxCell id="3t2poUQqlpVYaqUKuZvh-3" value="GP.se&lt;div&gt;&lt;br&gt;&lt;div&gt;Thanos&amp;nbsp;&lt;div&gt;Front End&lt;/div&gt;&lt;/div&gt;&lt;/div&gt;" style="whiteSpace=wrap;html=1;aspect=fixed;strokeColor=#000000;fontStyle=1;rounded=1;sketch=1;curveFitting=1;jiggle=2;" parent="1" vertex="1">
          <mxGeometry x="134" y="190" width="80" height="80" as="geometry" />
        </mxCell>
        <mxCell id="3t2poUQqlpVYaqUKuZvh-6" value="Okta&amp;nbsp;&lt;div&gt;Auth0&lt;/div&gt;" style="whiteSpace=wrap;html=1;aspect=fixed;strokeColor=#000000;fontStyle=1;rounded=1;sketch=1;curveFitting=1;jiggle=2;fillStyle=hachure;" parent="1" vertex="1">
          <mxGeometry x="500" y="185" width="90" height="90" as="geometry" />
        </mxCell>
        <mxCell id="3t2poUQqlpVYaqUKuZvh-12" value="&lt;div&gt;Iterable&amp;nbsp;&lt;/div&gt;" style="whiteSpace=wrap;html=1;aspect=fixed;strokeColor=#000000;fontStyle=1;rounded=1;sketch=1;curveFitting=1;jiggle=2;" parent="1" vertex="1">
          <mxGeometry x="204" y="720" width="80" height="80" as="geometry" />
        </mxCell>
        <mxCell id="3t2poUQqlpVYaqUKuZvh-16" value="Aria" style="whiteSpace=wrap;html=1;aspect=fixed;strokeColor=#000000;fontStyle=1;rounded=1;sketch=1;curveFitting=1;jiggle=2;" parent="1" vertex="1">
          <mxGeometry x="634" y="720" width="80" height="80" as="geometry" />
        </mxCell>
        <mxCell id="3t2poUQqlpVYaqUKuZvh-26" value="Marketing Automation" style="rounded=1;whiteSpace=wrap;html=1;fillColor=#f5f5f5;strokeColor=#666666;sketch=1;curveFitting=1;jiggle=2;glass=0;fillWeight=3;disableMultiStroke=0;disableMultiStrokeFill=0;fillStyle=auto;sketchStyle=rough;align=center;verticalAlign=middle;fontFamily=Helvetica;fontSize=12;gradientColor=#b3b3b3;gradientDirection=north;" parent="1" vertex="1">
          <mxGeometry x="100" y="790" width="130" height="20" as="geometry" />
        </mxCell>
        <mxCell id="3t2poUQqlpVYaqUKuZvh-29" value="Contract &amp;amp; Billing Management" style="rounded=1;whiteSpace=wrap;html=1;fillColor=#f5f5f5;strokeColor=#666666;sketch=1;curveFitting=1;jiggle=2;fillStyle=auto;glass=0;fillWeight=3;disableMultiStroke=0;disableMultiStrokeFill=0;sketchStyle=rough;align=center;verticalAlign=middle;fontFamily=Helvetica;fontSize=12;gradientColor=#b3b3b3;gradientDirection=north;" parent="1" vertex="1">
          <mxGeometry x="670" y="770" width="140" height="34" as="geometry" />
        </mxCell>
        <mxCell id="3t2poUQqlpVYaqUKuZvh-33" value="User Experience Mgmt" style="rounded=1;whiteSpace=wrap;html=1;fillColor=#f5f5f5;strokeColor=#666666;sketch=1;curveFitting=1;jiggle=2;glass=0;fillWeight=3;disableMultiStroke=0;disableMultiStrokeFill=0;fillStyle=auto;sketchStyle=rough;align=center;verticalAlign=middle;fontFamily=Helvetica;fontSize=12;gradientColor=#b3b3b3;gradientDirection=north;" parent="1" vertex="1">
          <mxGeometry x="30" y="260" width="130" height="20" as="geometry" />
        </mxCell>
        <mxCell id="3t2poUQqlpVYaqUKuZvh-36" value="Thanos&amp;nbsp;&lt;div&gt;Back End&lt;/div&gt;" style="whiteSpace=wrap;html=1;aspect=fixed;strokeColor=#000000;fontStyle=1;rounded=1;sketch=1;curveFitting=1;jiggle=2;" parent="1" vertex="1">
          <mxGeometry x="134" y="300" width="80" height="80" as="geometry" />
        </mxCell>
        <mxCell id="3t2poUQqlpVYaqUKuZvh-37" value="Content Management" style="rounded=1;whiteSpace=wrap;html=1;fillColor=#f5f5f5;strokeColor=#666666;sketch=1;curveFitting=1;jiggle=2;glass=0;fillWeight=3;disableMultiStroke=0;disableMultiStrokeFill=0;fillStyle=auto;sketchStyle=rough;align=center;verticalAlign=middle;fontFamily=Helvetica;fontSize=12;gradientColor=#b3b3b3;gradientDirection=north;" parent="1" vertex="1">
          <mxGeometry x="30" y="370" width="130" height="20" as="geometry" />
        </mxCell>
        <mxCell id="3t2poUQqlpVYaqUKuZvh-38" value="" style="endArrow=none;html=1;rounded=0;entryX=0.5;entryY=1;entryDx=0;entryDy=0;exitX=0.5;exitY=0;exitDx=0;exitDy=0;sketch=1;curveFitting=1;jiggle=2;" parent="1" source="3t2poUQqlpVYaqUKuZvh-36" target="3t2poUQqlpVYaqUKuZvh-3" edge="1">
          <mxGeometry width="50" height="50" relative="1" as="geometry">
            <mxPoint x="310" y="420" as="sourcePoint" />
            <mxPoint x="360" y="370" as="targetPoint" />
          </mxGeometry>
        </mxCell>
        <mxCell id="3t2poUQqlpVYaqUKuZvh-39" value="Normalised User Account" style="swimlane;whiteSpace=wrap;html=1;fillColor=#dae8fc;strokeColor=#6c8ebf;fontSize=10;align=right;rounded=0;sketch=1;curveFitting=1;jiggle=2;" parent="1" vertex="1">
          <mxGeometry x="242" y="441" width="131" height="85" as="geometry">
            <mxRectangle x="349" y="430" width="150" height="30" as="alternateBounds" />
          </mxGeometry>
        </mxCell>
        <mxCell id="3t2poUQqlpVYaqUKuZvh-40" value="&lt;font style=&quot;font-size: 9px;&quot;&gt;Stampen ID:&amp;nbsp;&lt;/font&gt;&lt;div&gt;&lt;font style=&quot;font-size: 9px;&quot;&gt;Förnamn:&lt;/font&gt;&lt;div&gt;&lt;font style=&quot;font-size: 9px;&quot;&gt;Efternamn:&lt;/font&gt;&lt;/div&gt;&lt;div&gt;&lt;font style=&quot;font-size: 9px;&quot;&gt;Emailadress:&lt;/font&gt;&lt;/div&gt;&lt;/div&gt;" style="text;html=1;align=left;verticalAlign=middle;resizable=0;points=[];autosize=1;strokeColor=none;fillColor=none;fontSize=10;sketch=1;curveFitting=1;jiggle=2;" parent="3t2poUQqlpVYaqUKuZvh-39" vertex="1">
          <mxGeometry x="10" y="20" width="80" height="60" as="geometry" />
        </mxCell>
        <mxCell id="3t2poUQqlpVYaqUKuZvh-47" value="Marketing User Account&lt;div style=&quot;font-size: 12px;&quot;&gt;Iterable Variant&lt;/div&gt;" style="swimlane;whiteSpace=wrap;html=1;fillColor=#B9E0A5;strokeColor=#97D077;startSize=30;fontSize=12;sketch=1;curveFitting=1;jiggle=2;swimlaneFillColor=default;" parent="1" vertex="1">
          <mxGeometry x="100" y="820" width="190" height="190" as="geometry" />
        </mxCell>
        <mxCell id="3t2poUQqlpVYaqUKuZvh-48" value="Iterable ID:&lt;div&gt;Newsletters:&lt;div&gt;Topic Interests:&lt;br&gt;&lt;div&gt;Family Name:&amp;nbsp;&lt;br&gt;&lt;/div&gt;&lt;/div&gt;&lt;/div&gt;" style="text;html=1;align=left;verticalAlign=middle;resizable=0;points=[[0,0.59,0,-6,0],[0,0.79,0,-6,0]];autosize=1;strokeColor=none;fillColor=none;fontStyle=0" parent="3t2poUQqlpVYaqUKuZvh-47" vertex="1">
          <mxGeometry x="33" y="25" width="100" height="70" as="geometry" />
        </mxCell>
        <mxCell id="3t2poUQqlpVYaqUKuZvh-49" value="Normalised User Account" style="swimlane;whiteSpace=wrap;html=1;fillColor=#dae8fc;strokeColor=#6c8ebf;fontSize=10;align=right;sketch=1;curveFitting=1;jiggle=2;" parent="3t2poUQqlpVYaqUKuZvh-47" vertex="1">
          <mxGeometry x="39" y="93" width="130" height="85" as="geometry" />
        </mxCell>
        <mxCell id="3t2poUQqlpVYaqUKuZvh-50" value="&lt;font style=&quot;font-size: 9px;&quot;&gt;Stampen ID:&amp;nbsp;&lt;/font&gt;&lt;div&gt;&lt;font style=&quot;font-size: 9px;&quot;&gt;Förnamn:&lt;/font&gt;&lt;div&gt;&lt;font style=&quot;font-size: 9px;&quot;&gt;Efternamn:&lt;/font&gt;&lt;/div&gt;&lt;div&gt;&lt;font style=&quot;font-size: 9px;&quot;&gt;Emailadress:&lt;/font&gt;&lt;/div&gt;&lt;/div&gt;" style="text;html=1;align=left;verticalAlign=middle;resizable=0;points=[[0,0.37,0,-6,0],[0,0.77,0,-6,0]];autosize=1;strokeColor=none;fillColor=none;fontSize=10;" parent="3t2poUQqlpVYaqUKuZvh-49" vertex="1">
          <mxGeometry x="10" y="20" width="80" height="60" as="geometry" />
        </mxCell>
        <mxCell id="3t2poUQqlpVYaqUKuZvh-52" style="edgeStyle=orthogonalEdgeStyle;rounded=0;orthogonalLoop=1;jettySize=auto;html=1;exitX=0;exitY=0.79;exitDx=-6;exitDy=0;exitPerimeter=0;entryX=0;entryY=0.37;entryDx=-6;entryDy=0;entryPerimeter=0;dashed=1;" parent="3t2poUQqlpVYaqUKuZvh-47" edge="1">
          <mxGeometry relative="1" as="geometry">
            <Array as="points">
              <mxPoint x="20" y="83" />
              <mxPoint x="20" y="138" />
            </Array>
            <mxPoint x="26.999999999999886" y="83.29999999999995" as="sourcePoint" />
            <mxPoint x="42.999999999999886" y="138.20000000000005" as="targetPoint" />
          </mxGeometry>
        </mxCell>
        <mxCell id="3t2poUQqlpVYaqUKuZvh-53" value="User Account Mgmt" style="rounded=1;whiteSpace=wrap;html=1;fillColor=#f5f5f5;strokeColor=#666666;fillStyle=auto;sketch=1;curveFitting=1;jiggle=2;perimeterSpacing=5;glass=0;fillWeight=3;disableMultiStroke=0;disableMultiStrokeFill=0;sketchStyle=rough;align=center;verticalAlign=middle;fontFamily=Helvetica;fontSize=12;gradientColor=#b3b3b3;gradientDirection=north;" parent="1" vertex="1">
          <mxGeometry x="242" y="421" width="131" height="20" as="geometry" />
        </mxCell>
        <mxCell id="tqv7MVxMLacuMXUG4oiM-6" style="edgeStyle=orthogonalEdgeStyle;rounded=0;orthogonalLoop=1;jettySize=auto;html=1;curved=1;exitX=0.5;exitY=1;exitDx=0;exitDy=0;sketch=1;curveFitting=1;jiggle=2;" parent="1" source="tqv7MVxMLacuMXUG4oiM-5" target="tqv7MVxMLacuMXUG4oiM-4" edge="1">
          <mxGeometry relative="1" as="geometry">
            <mxPoint x="540" y="850" as="sourcePoint" />
            <Array as="points">
              <mxPoint x="554" y="875" />
            </Array>
          </mxGeometry>
        </mxCell>
        <mxCell id="3t2poUQqlpVYaqUKuZvh-74" value="" style="shape=image;editableCssRules=.*;verticalLabelPosition=bottom;labelBackgroundColor=default;verticalAlign=top;aspect=fixed;imageAspect=0;image=data:image/svg+xml,PHN2ZyB4bWxucz0iaHR0cDovL3d3dy53My5vcmcvMjAwMC9zdmciIHZpZXdCb3g9Ii0wLjUgLTAuNSAyOCAyOCIgaGVpZ2h0PSIyOCIgd2lkdGg9IjI4Ij4mI3hhOwkgIDxzdHlsZSB0eXBlPSJ0ZXh0L2NzcyI+LnN0MCB7IHN0b3AtY29sb3I6IHJnYigxMDIsIDE3OCwgMjU1KTsgfSAuc3QxIHsgc3RvcC1jb2xvcjogcmdiKDAsIDEyNywgMjU1KTsgfSA8L3N0eWxlPiYjeGE7CTxkZWZzPiYjeGE7CQk8bGluZWFyR3JhZGllbnQgZ3JhZGllbnRVbml0cz0idXNlclNwYWNlT25Vc2UiIHkyPSIyNS4zMDkiIHgyPSIyMy40NTQiIHkxPSIzLjQ3NCIgeDE9IjIuMDM5IiBpZD0iQSI+JiN4YTsJCQk8c3RvcCBjbGFzcz0ic3QwIi8+JiN4YTsJCQk8c3RvcCBjbGFzcz0ic3QxIiBvZmZzZXQ9IjEiLz4mI3hhOwkJPC9saW5lYXJHcmFkaWVudD4mI3hhOwk8L2RlZnM+JiN4YTsJPHBhdGggZmlsbD0idXJsKCNBKSIgZD0iTS0uNSAxMy40NzJjMC0xLjkzLjM3MS0zLjczIDEuMTEzLTUuNC43NDItMS43MDcgMS43NDQtMy4xOTIgMy4wMDYtNC40NTNTNi4zNjUgMS4zNTYgOC4wNzMuNjEzIDExLjU5OC0uNSAxMy41MjgtLjVzMy43My4zNzEgNS40IDEuMTEzYzEuNzA3Ljc0MiAzLjE5MiAxLjc0NCA0LjQ1MyAzLjAwNnMyLjI2NCAyLjc0NiAzLjAwNiA0LjQ1M2MuNzQyIDEuNjcgMS4xMTMgMy40NyAxLjExMyA1LjRzLS4zNzEgMy43NDgtMS4xMTMgNS40NTUtMS43NDQgMy4xOTItMy4wMDYgNC40NTNhMTQuMjggMTQuMjggMCAwIDEtNC40NTMgMy4wMDZjLTEuNjcuNzQyLTMuNDcgMS4xMTMtNS40IDEuMTEzcy0zLjc0OC0uMzcxLTUuNDU1LTEuMTEzYTE0LjI4IDE0LjI4IDAgMCAxLTQuNDUzLTMuMDA2IDE0LjI4IDE0LjI4IDAgMCAxLTMuMDA2LTQuNDUzQy0uMTI5IDE3LjIyLS41IDE1LjQwMi0uNSAxMy40NzJ6bTE2LjgxMSA0LjIzMWE2LjY1IDYuNjUgMCAwIDEgMy4yODQuODM1YzEuMDAyLjUyIDEuODE4IDEuMjQzIDIuNDQ5IDIuMTcxYTEwLjE0IDEwLjE0IDAgMCAwIDEuOTQ4LTMuMjg0Yy40ODItMS4yMjUuNzI0LTIuNTQyLjcyNC0zLjk1MiAwLTEuNTU5LS4yOTctMy4wMDYtLjg5MS00LjM0Mi0uNTk0LTEuMzczLTEuMzkyLTIuNTYxLTIuMzk0LTMuNTYzcy0yLjE5LTEuOC0zLjU2My0yLjM5NGMtMS4zMzYtLjU5NC0yLjc4My0uODkxLTQuMzQyLS44OTFzLTMuMDI0LjI5Ny00LjM5OC44OTFjLTEuMzM2LjU5NC0yLjUyNCAxLjM5Mi0zLjU2MyAyLjM5NEExMS4zNSAxMS4zNSAwIDAgMCAzLjE3NCA5LjEzYy0uNTk0IDEuMzM2LS44OTEgMi43ODMtLjg5MSA0LjM0MiAwIDEuNDEuMjIzIDIuNzI4LjY2OCAzLjk1Mi40ODIgMS4yMjUgMS4xNSAyLjMxOSAyLjAwNCAzLjI4NC42MzEtLjkyOCAxLjQ0Ny0xLjY1MSAyLjQ0OS0yLjE3MWE2LjY1IDYuNjUgMCAwIDEgMy4yODQtLjgzNXptMi43ODMtNy4wMTRhNS42OCA1LjY4IDAgMCAxLS40NDUgMi4yMjcgNS44NyA1Ljg3IDAgMCAxLTEuMjI1IDEuNzgxYy0uNDgyLjQ4Mi0xLjA1OC44NzItMS43MjYgMS4xNjlzLTEuMzkyLjQ0NS0yLjE3MS40NDVhNS42OCA1LjY4IDAgMCAxLTIuMjI3LS40NDUgNi40NCA2LjQ0IDAgMCAxLTEuNzgxLTEuMTY5IDYuNDQgNi40NCAwIDAgMS0xLjE2OS0xLjc4MSA1LjY4IDUuNjggMCAwIDEtLjQ0NS0yLjIyN2MwLS43NzkuMTQ4LTEuNTAzLjQ0NS0yLjE3MUE2LjQ0IDYuNDQgMCAwIDEgOS41MiA2LjczN2E1Ljg3IDUuODcgMCAwIDEgMS43ODEtMS4yMjUgNS42OCA1LjY4IDAgMCAxIDIuMjI3LS40NDVjLjc3OSAwIDEuNTAzLjE0OCAyLjE3MS40NDVzMS4yNDMuNzA1IDEuNzI2IDEuMjI1YTUuODcgNS44NyAwIDAgMSAxLjIyNSAxLjc4MWMuMjk3LjY2OC40NDUgMS4zOTIuNDQ1IDIuMTcxem0tMi43ODMgMGMwLS43NzktLjI3OC0xLjQyOS0uODM1LTEuOTQ4LS41NTctLjU1Ny0xLjIwNi0uODM1LTEuOTQ4LS44MzVhMi43MyAyLjczIDAgMCAwLTIuMDA0LjgzNWMtLjU1Ny41Mi0uODM1IDEuMTY5LS44MzUgMS45NDhhMi43MyAyLjczIDAgMCAwIC44MzUgMi4wMDRjLjU1Ny41MiAxLjIyNS43NzkgMi4wMDQuNzc5Ljc0MiAwIDEuMzkyLS4yNiAxLjk0OC0uNzc5YTIuNzMgMi43MyAwIDAgMCAuODM1LTIuMDA0ek03LjA3MSAyMi42NTdjLjg5MS42MzEgMS44NzQgMS4xMzIgMi45NSAxLjUwMyAxLjExMy4zNzEgMi4yODIuNTU3IDMuNTA3LjU1NyAxLjE4OCAwIDIuMzE5LS4xODYgMy4zOTYtLjU1NyAxLjExMy0uMzcxIDIuMTE1LS44NzIgMy4wMDYtMS41MDMtLjM3MS0uNjY4LS44OTEtMS4xODgtMS41NTktMS41NTktLjYzMS0uNDA4LTEuMzE3LS42MTItMi4wNi0uNjEyaC01LjYyMmMtLjc0MiAwLTEuNDQ3LjIwNC0yLjExNS42MTItLjYzMS4zNzEtMS4xMzIuODkxLTEuNTAzIDEuNTU5eiIvPiYjeGE7PC9zdmc+;imageBackground=default;" parent="1" vertex="1">
          <mxGeometry x="252" y="391" width="28" height="28" as="geometry" />
        </mxCell>
        <mxCell id="3t2poUQqlpVYaqUKuZvh-72" value="" style="shape=image;editableCssRules=.*;verticalLabelPosition=bottom;labelBackgroundColor=default;verticalAlign=top;aspect=fixed;imageAspect=0;image=data:image/svg+xml,PHN2ZyB4bWxucz0iaHR0cDovL3d3dy53My5vcmcvMjAwMC9zdmciIHZpZXdCb3g9Ii0wLjUgLTAuNSAyOCAyOCIgaGVpZ2h0PSIyOCIgd2lkdGg9IjI4Ij4mI3hhOwkgIDxzdHlsZSB0eXBlPSJ0ZXh0L2NzcyI+LnN0MCB7IHN0b3AtY29sb3I6IHJnYigxODUsIDIyNCwgMTY1KTsgfSAuc3QxIHsgc3RvcC1jb2xvcjogcmdiKDE1MSwgMjA4LCAxMTkpOyB9IDwvc3R5bGU+JiN4YTsJPGRlZnM+JiN4YTsJCTxsaW5lYXJHcmFkaWVudCBncmFkaWVudFVuaXRzPSJ1c2VyU3BhY2VPblVzZSIgeTI9IjI1LjMwOSIgeDI9IjIzLjQ1NCIgeTE9IjMuNDc0IiB4MT0iMi4wMzkiIGlkPSJBIj4mI3hhOwkJCTxzdG9wIGNsYXNzPSJzdDAiLz4mI3hhOwkJCTxzdG9wIGNsYXNzPSJzdDEiIG9mZnNldD0iMSIvPiYjeGE7CQk8L2xpbmVhckdyYWRpZW50PiYjeGE7CTwvZGVmcz4mI3hhOwk8cGF0aCBmaWxsPSJ1cmwoI0EpIiBkPSJNLS41IDEzLjQ3MmMwLTEuOTMuMzcxLTMuNzMgMS4xMTMtNS40Ljc0Mi0xLjcwNyAxLjc0NC0zLjE5MiAzLjAwNi00LjQ1M1M2LjM2NSAxLjM1NiA4LjA3My42MTMgMTEuNTk4LS41IDEzLjUyOC0uNXMzLjczLjM3MSA1LjQgMS4xMTNjMS43MDcuNzQyIDMuMTkyIDEuNzQ0IDQuNDUzIDMuMDA2czIuMjY0IDIuNzQ2IDMuMDA2IDQuNDUzYy43NDIgMS42NyAxLjExMyAzLjQ3IDEuMTEzIDUuNHMtLjM3MSAzLjc0OC0xLjExMyA1LjQ1NS0xLjc0NCAzLjE5Mi0zLjAwNiA0LjQ1M2ExNC4yOCAxNC4yOCAwIDAgMS00LjQ1MyAzLjAwNmMtMS42Ny43NDItMy40NyAxLjExMy01LjQgMS4xMTNzLTMuNzQ4LS4zNzEtNS40NTUtMS4xMTNhMTQuMjggMTQuMjggMCAwIDEtNC40NTMtMy4wMDYgMTQuMjggMTQuMjggMCAwIDEtMy4wMDYtNC40NTNDLS4xMjkgMTcuMjItLjUgMTUuNDAyLS41IDEzLjQ3MnptMTYuODExIDQuMjMxYTYuNjUgNi42NSAwIDAgMSAzLjI4NC44MzVjMS4wMDIuNTIgMS44MTggMS4yNDMgMi40NDkgMi4xNzFhMTAuMTQgMTAuMTQgMCAwIDAgMS45NDgtMy4yODRjLjQ4Mi0xLjIyNS43MjQtMi41NDIuNzI0LTMuOTUyIDAtMS41NTktLjI5Ny0zLjAwNi0uODkxLTQuMzQyLS41OTQtMS4zNzMtMS4zOTItMi41NjEtMi4zOTQtMy41NjNzLTIuMTktMS44LTMuNTYzLTIuMzk0Yy0xLjMzNi0uNTk0LTIuNzgzLS44OTEtNC4zNDItLjg5MXMtMy4wMjQuMjk3LTQuMzk4Ljg5MWMtMS4zMzYuNTk0LTIuNTI0IDEuMzkyLTMuNTYzIDIuMzk0QTExLjM1IDExLjM1IDAgMCAwIDMuMTc0IDkuMTNjLS41OTQgMS4zMzYtLjg5MSAyLjc4My0uODkxIDQuMzQyIDAgMS40MS4yMjMgMi43MjguNjY4IDMuOTUyLjQ4MiAxLjIyNSAxLjE1IDIuMzE5IDIuMDA0IDMuMjg0LjYzMS0uOTI4IDEuNDQ3LTEuNjUxIDIuNDQ5LTIuMTcxYTYuNjUgNi42NSAwIDAgMSAzLjI4NC0uODM1em0yLjc4My03LjAxNGE1LjY4IDUuNjggMCAwIDEtLjQ0NSAyLjIyNyA1Ljg3IDUuODcgMCAwIDEtMS4yMjUgMS43ODFjLS40ODIuNDgyLTEuMDU4Ljg3Mi0xLjcyNiAxLjE2OXMtMS4zOTIuNDQ1LTIuMTcxLjQ0NWE1LjY4IDUuNjggMCAwIDEtMi4yMjctLjQ0NSA2LjQ0IDYuNDQgMCAwIDEtMS43ODEtMS4xNjkgNi40NCA2LjQ0IDAgMCAxLTEuMTY5LTEuNzgxIDUuNjggNS42OCAwIDAgMS0uNDQ1LTIuMjI3YzAtLjc3OS4xNDgtMS41MDMuNDQ1LTIuMTcxQTYuNDQgNi40NCAwIDAgMSA5LjUyIDYuNzM3YTUuODcgNS44NyAwIDAgMSAxLjc4MS0xLjIyNSA1LjY4IDUuNjggMCAwIDEgMi4yMjctLjQ0NWMuNzc5IDAgMS41MDMuMTQ4IDIuMTcxLjQ0NXMxLjI0My43MDUgMS43MjYgMS4yMjVhNS44NyA1Ljg3IDAgMCAxIDEuMjI1IDEuNzgxYy4yOTcuNjY4LjQ0NSAxLjM5Mi40NDUgMi4xNzF6bS0yLjc4MyAwYzAtLjc3OS0uMjc4LTEuNDI5LS44MzUtMS45NDgtLjU1Ny0uNTU3LTEuMjA2LS44MzUtMS45NDgtLjgzNWEyLjczIDIuNzMgMCAwIDAtMi4wMDQuODM1Yy0uNTU3LjUyLS44MzUgMS4xNjktLjgzNSAxLjk0OGEyLjczIDIuNzMgMCAwIDAgLjgzNSAyLjAwNGMuNTU3LjUyIDEuMjI1Ljc3OSAyLjAwNC43NzkuNzQyIDAgMS4zOTItLjI2IDEuOTQ4LS43NzlhMi43MyAyLjczIDAgMCAwIC44MzUtMi4wMDR6TTcuMDcxIDIyLjY1N2MuODkxLjYzMSAxLjg3NCAxLjEzMiAyLjk1IDEuNTAzIDEuMTEzLjM3MSAyLjI4Mi41NTcgMy41MDcuNTU3IDEuMTg4IDAgMi4zMTktLjE4NiAzLjM5Ni0uNTU3IDEuMTEzLS4zNzEgMi4xMTUtLjg3MiAzLjAwNi0xLjUwMy0uMzcxLS42NjgtLjg5MS0xLjE4OC0xLjU1OS0xLjU1OS0uNjMxLS40MDgtMS4zMTctLjYxMi0yLjA2LS42MTJoLTUuNjIyYy0uNzQyIDAtMS40NDcuMjA0LTIuMTE1LjYxMi0uNjMxLjM3MS0xLjEzMi44OTEtMS41MDMgMS41NTl6Ii8+JiN4YTs8L3N2Zz4=;imageBackground=default;" parent="1" vertex="1">
          <mxGeometry x="351" y="773" width="28" height="28" as="geometry" />
        </mxCell>
        <mxCell id="3t2poUQqlpVYaqUKuZvh-90" value="" style="shape=image;editableCssRules=.*;verticalLabelPosition=bottom;labelBackgroundColor=default;verticalAlign=top;aspect=fixed;imageAspect=0;image=data:image/svg+xml,PHN2ZyB4bWxucz0iaHR0cDovL3d3dy53My5vcmcvMjAwMC9zdmciIHZpZXdCb3g9Ii0wLjUgLTAuNSAyOCAyOCIgaGVpZ2h0PSIyOCIgd2lkdGg9IjI4Ij4mI3hhOwkgIDxzdHlsZSB0eXBlPSJ0ZXh0L2NzcyI+LnN0MCB7IHN0b3AtY29sb3I6IHJnYigxMDIsIDE3OCwgMjU1KTsgfSAuc3QxIHsgc3RvcC1jb2xvcjogcmdiKDAsIDEyNywgMjU1KTsgfSA8L3N0eWxlPiYjeGE7CTxkZWZzPiYjeGE7CQk8bGluZWFyR3JhZGllbnQgZ3JhZGllbnRVbml0cz0idXNlclNwYWNlT25Vc2UiIHkyPSIyNS4zMDkiIHgyPSIyMy40NTQiIHkxPSIzLjQ3NCIgeDE9IjIuMDM5IiBpZD0iQSI+JiN4YTsJCQk8c3RvcCBjbGFzcz0ic3QwIi8+JiN4YTsJCQk8c3RvcCBjbGFzcz0ic3QxIiBvZmZzZXQ9IjEiLz4mI3hhOwkJPC9saW5lYXJHcmFkaWVudD4mI3hhOwk8L2RlZnM+JiN4YTsJPHBhdGggZmlsbD0idXJsKCNBKSIgZD0iTS0uNSAxMy40NzJjMC0xLjkzLjM3MS0zLjczIDEuMTEzLTUuNC43NDItMS43MDcgMS43NDQtMy4xOTIgMy4wMDYtNC40NTNTNi4zNjUgMS4zNTYgOC4wNzMuNjEzIDExLjU5OC0uNSAxMy41MjgtLjVzMy43My4zNzEgNS40IDEuMTEzYzEuNzA3Ljc0MiAzLjE5MiAxLjc0NCA0LjQ1MyAzLjAwNnMyLjI2NCAyLjc0NiAzLjAwNiA0LjQ1M2MuNzQyIDEuNjcgMS4xMTMgMy40NyAxLjExMyA1LjRzLS4zNzEgMy43NDgtMS4xMTMgNS40NTUtMS43NDQgMy4xOTItMy4wMDYgNC40NTNhMTQuMjggMTQuMjggMCAwIDEtNC40NTMgMy4wMDZjLTEuNjcuNzQyLTMuNDcgMS4xMTMtNS40IDEuMTEzcy0zLjc0OC0uMzcxLTUuNDU1LTEuMTEzYTE0LjI4IDE0LjI4IDAgMCAxLTQuNDUzLTMuMDA2IDE0LjI4IDE0LjI4IDAgMCAxLTMuMDA2LTQuNDUzQy0uMTI5IDE3LjIyLS41IDE1LjQwMi0uNSAxMy40NzJ6bTE2LjgxMSA0LjIzMWE2LjY1IDYuNjUgMCAwIDEgMy4yODQuODM1YzEuMDAyLjUyIDEuODE4IDEuMjQzIDIuNDQ5IDIuMTcxYTEwLjE0IDEwLjE0IDAgMCAwIDEuOTQ4LTMuMjg0Yy40ODItMS4yMjUuNzI0LTIuNTQyLjcyNC0zLjk1MiAwLTEuNTU5LS4yOTctMy4wMDYtLjg5MS00LjM0Mi0uNTk0LTEuMzczLTEuMzkyLTIuNTYxLTIuMzk0LTMuNTYzcy0yLjE5LTEuOC0zLjU2My0yLjM5NGMtMS4zMzYtLjU5NC0yLjc4My0uODkxLTQuMzQyLS44OTFzLTMuMDI0LjI5Ny00LjM5OC44OTFjLTEuMzM2LjU5NC0yLjUyNCAxLjM5Mi0zLjU2MyAyLjM5NEExMS4zNSAxMS4zNSAwIDAgMCAzLjE3NCA5LjEzYy0uNTk0IDEuMzM2LS44OTEgMi43ODMtLjg5MSA0LjM0MiAwIDEuNDEuMjIzIDIuNzI4LjY2OCAzLjk1Mi40ODIgMS4yMjUgMS4xNSAyLjMxOSAyLjAwNCAzLjI4NC42MzEtLjkyOCAxLjQ0Ny0xLjY1MSAyLjQ0OS0yLjE3MWE2LjY1IDYuNjUgMCAwIDEgMy4yODQtLjgzNXptMi43ODMtNy4wMTRhNS42OCA1LjY4IDAgMCAxLS40NDUgMi4yMjcgNS44NyA1Ljg3IDAgMCAxLTEuMjI1IDEuNzgxYy0uNDgyLjQ4Mi0xLjA1OC44NzItMS43MjYgMS4xNjlzLTEuMzkyLjQ0NS0yLjE3MS40NDVhNS42OCA1LjY4IDAgMCAxLTIuMjI3LS40NDUgNi40NCA2LjQ0IDAgMCAxLTEuNzgxLTEuMTY5IDYuNDQgNi40NCAwIDAgMS0xLjE2OS0xLjc4MSA1LjY4IDUuNjggMCAwIDEtLjQ0NS0yLjIyN2MwLS43NzkuMTQ4LTEuNTAzLjQ0NS0yLjE3MUE2LjQ0IDYuNDQgMCAwIDEgOS41MiA2LjczN2E1Ljg3IDUuODcgMCAwIDEgMS43ODEtMS4yMjUgNS42OCA1LjY4IDAgMCAxIDIuMjI3LS40NDVjLjc3OSAwIDEuNTAzLjE0OCAyLjE3MS40NDVzMS4yNDMuNzA1IDEuNzI2IDEuMjI1YTUuODcgNS44NyAwIDAgMSAxLjIyNSAxLjc4MWMuMjk3LjY2OC40NDUgMS4zOTIuNDQ1IDIuMTcxem0tMi43ODMgMGMwLS43NzktLjI3OC0xLjQyOS0uODM1LTEuOTQ4LS41NTctLjU1Ny0xLjIwNi0uODM1LTEuOTQ4LS44MzVhMi43MyAyLjczIDAgMCAwLTIuMDA0LjgzNWMtLjU1Ny41Mi0uODM1IDEuMTY5LS44MzUgMS45NDhhMi43MyAyLjczIDAgMCAwIC44MzUgMi4wMDRjLjU1Ny41MiAxLjIyNS43NzkgMi4wMDQuNzc5Ljc0MiAwIDEuMzkyLS4yNiAxLjk0OC0uNzc5YTIuNzMgMi43MyAwIDAgMCAuODM1LTIuMDA0ek03LjA3MSAyMi42NTdjLjg5MS42MzEgMS44NzQgMS4xMzIgMi45NSAxLjUwMyAxLjExMy4zNzEgMi4yODIuNTU3IDMuNTA3LjU1NyAxLjE4OCAwIDIuMzE5LS4xODYgMy4zOTYtLjU1NyAxLjExMy0uMzcxIDIuMTE1LS44NzIgMy4wMDYtMS41MDMtLjM3MS0uNjY4LS44OTEtMS4xODgtMS41NTktMS41NTktLjYzMS0uNDA4LTEuMzE3LS42MTItMi4wNi0uNjEyaC01LjYyMmMtLjc0MiAwLTEuNDQ3LjIwNC0yLjExNS42MTItLjYzMS4zNzEtMS4xMzIuODkxLTEuNTAzIDEuNTU5eiIvPiYjeGE7PC9zdmc+;imageBackground=default;" parent="1" vertex="1">
          <mxGeometry x="301" y="773" width="28" height="28" as="geometry" />
        </mxCell>
        <mxCell id="3t2poUQqlpVYaqUKuZvh-93" value="" style="strokeWidth=2;html=1;shape=mxgraph.flowchart.database;whiteSpace=wrap;strokeColor=#007FFF;" parent="1" vertex="1">
          <mxGeometry x="283" y="395" width="30" height="20" as="geometry" />
        </mxCell>
        <mxCell id="3t2poUQqlpVYaqUKuZvh-94" value="" style="strokeWidth=1;html=1;shape=mxgraph.flowchart.database;whiteSpace=wrap;dashed=1;dashPattern=1 2;strokeColor=#007FFF;" parent="1" vertex="1">
          <mxGeometry x="299" y="807" width="30" height="20" as="geometry" />
        </mxCell>
        <mxCell id="3t2poUQqlpVYaqUKuZvh-95" value="" style="strokeWidth=2;html=1;shape=mxgraph.flowchart.database;whiteSpace=wrap;strokeColor=#97D077;" parent="1" vertex="1">
          <mxGeometry x="351" y="807" width="30" height="20" as="geometry" />
        </mxCell>
        <mxCell id="VjrFxz3kG7OPcShz4AbX-1" value="Authentication &amp;amp; Authorisation Mgmt" style="rounded=1;whiteSpace=wrap;html=1;fillColor=#f5f5f5;strokeColor=#666666;sketch=1;curveFitting=1;jiggle=2;fillStyle=auto;sketchStyle=rough;disableMultiStroke=0;disableMultiStrokeFill=0;treeFolding=0;treeMoving=0;backgroundOutline=0;imageAspect=1;glass=0;gradientColor=#b3b3b3;gradientDirection=north;fillWeight=3;" parent="1" vertex="1">
          <mxGeometry x="554" y="255" width="130" height="40" as="geometry" />
        </mxCell>
        <mxCell id="tqv7MVxMLacuMXUG4oiM-10" style="edgeStyle=orthogonalEdgeStyle;rounded=0;orthogonalLoop=1;jettySize=auto;html=1;exitX=0.5;exitY=1;exitDx=0;exitDy=0;entryX=0;entryY=0.5;entryDx=0;entryDy=0;curved=1;sketch=1;curveFitting=1;jiggle=2;" parent="1" source="tqv7MVxMLacuMXUG4oiM-3" target="tqv7MVxMLacuMXUG4oiM-4" edge="1">
          <mxGeometry relative="1" as="geometry" />
        </mxCell>
        <mxCell id="tqv7MVxMLacuMXUG4oiM-3" value="&lt;b&gt;&lt;font style=&quot;font-size: 15px;&quot;&gt;+&lt;/font&gt;&lt;/b&gt;" style="text;html=1;align=center;verticalAlign=middle;whiteSpace=wrap;rounded=0;" parent="1" vertex="1">
          <mxGeometry x="325" y="771" width="30" height="30" as="geometry" />
        </mxCell>
        <mxCell id="tqv7MVxMLacuMXUG4oiM-4" value="&lt;font style=&quot;font-size: 13px;&quot;&gt;Extended data model&lt;/font&gt;" style="text;html=1;align=center;verticalAlign=middle;whiteSpace=wrap;rounded=1;fontStyle=1;fontSize=13;strokeColor=#23445d;sketch=1;curveFitting=1;jiggle=2;fillColor=#bac8d3;" parent="1" vertex="1">
          <mxGeometry x="400" y="850" width="110" height="40" as="geometry" />
        </mxCell>
        <mxCell id="3t2poUQqlpVYaqUKuZvh-71" value="" style="shape=image;editableCssRules=.*;verticalLabelPosition=bottom;labelBackgroundColor=default;verticalAlign=top;aspect=fixed;imageAspect=0;image=data:image/svg+xml,PHN2ZyB4bWxucz0iaHR0cDovL3d3dy53My5vcmcvMjAwMC9zdmciIHZpZXdCb3g9Ii0wLjUgLTAuNSAyOCAyOCIgaGVpZ2h0PSIyOCIgd2lkdGg9IjI4Ij4mI3hhOwkgIDxzdHlsZSB0eXBlPSJ0ZXh0L2NzcyI+LnN0MCB7IHN0b3AtY29sb3I6IHJnYigxMDIsIDE3OCwgMjU1KTsgfSAuc3QxIHsgc3RvcC1jb2xvcjogcmdiKDAsIDEyNywgMjU1KTsgfSA8L3N0eWxlPiYjeGE7CTxkZWZzPiYjeGE7CQk8bGluZWFyR3JhZGllbnQgZ3JhZGllbnRVbml0cz0idXNlclNwYWNlT25Vc2UiIHkyPSIyNS4zMDkiIHgyPSIyMy40NTQiIHkxPSIzLjQ3NCIgeDE9IjIuMDM5IiBpZD0iQSI+JiN4YTsJCQk8c3RvcCBjbGFzcz0ic3QwIi8+JiN4YTsJCQk8c3RvcCBjbGFzcz0ic3QxIiBvZmZzZXQ9IjEiLz4mI3hhOwkJPC9saW5lYXJHcmFkaWVudD4mI3hhOwk8L2RlZnM+JiN4YTsJPHBhdGggZmlsbD0idXJsKCNBKSIgZD0iTS0uNSAxMy40NzJjMC0xLjkzLjM3MS0zLjczIDEuMTEzLTUuNC43NDItMS43MDcgMS43NDQtMy4xOTIgMy4wMDYtNC40NTNTNi4zNjUgMS4zNTYgOC4wNzMuNjEzIDExLjU5OC0uNSAxMy41MjgtLjVzMy43My4zNzEgNS40IDEuMTEzYzEuNzA3Ljc0MiAzLjE5MiAxLjc0NCA0LjQ1MyAzLjAwNnMyLjI2NCAyLjc0NiAzLjAwNiA0LjQ1M2MuNzQyIDEuNjcgMS4xMTMgMy40NyAxLjExMyA1LjRzLS4zNzEgMy43NDgtMS4xMTMgNS40NTUtMS43NDQgMy4xOTItMy4wMDYgNC40NTNhMTQuMjggMTQuMjggMCAwIDEtNC40NTMgMy4wMDZjLTEuNjcuNzQyLTMuNDcgMS4xMTMtNS40IDEuMTEzcy0zLjc0OC0uMzcxLTUuNDU1LTEuMTEzYTE0LjI4IDE0LjI4IDAgMCAxLTQuNDUzLTMuMDA2IDE0LjI4IDE0LjI4IDAgMCAxLTMuMDA2LTQuNDUzQy0uMTI5IDE3LjIyLS41IDE1LjQwMi0uNSAxMy40NzJ6bTE2LjgxMSA0LjIzMWE2LjY1IDYuNjUgMCAwIDEgMy4yODQuODM1YzEuMDAyLjUyIDEuODE4IDEuMjQzIDIuNDQ5IDIuMTcxYTEwLjE0IDEwLjE0IDAgMCAwIDEuOTQ4LTMuMjg0Yy40ODItMS4yMjUuNzI0LTIuNTQyLjcyNC0zLjk1MiAwLTEuNTU5LS4yOTctMy4wMDYtLjg5MS00LjM0Mi0uNTk0LTEuMzczLTEuMzkyLTIuNTYxLTIuMzk0LTMuNTYzcy0yLjE5LTEuOC0zLjU2My0yLjM5NGMtMS4zMzYtLjU5NC0yLjc4My0uODkxLTQuMzQyLS44OTFzLTMuMDI0LjI5Ny00LjM5OC44OTFjLTEuMzM2LjU5NC0yLjUyNCAxLjM5Mi0zLjU2MyAyLjM5NEExMS4zNSAxMS4zNSAwIDAgMCAzLjE3NCA5LjEzYy0uNTk0IDEuMzM2LS44OTEgMi43ODMtLjg5MSA0LjM0MiAwIDEuNDEuMjIzIDIuNzI4LjY2OCAzLjk1Mi40ODIgMS4yMjUgMS4xNSAyLjMxOSAyLjAwNCAzLjI4NC42MzEtLjkyOCAxLjQ0Ny0xLjY1MSAyLjQ0OS0yLjE3MWE2LjY1IDYuNjUgMCAwIDEgMy4yODQtLjgzNXptMi43ODMtNy4wMTRhNS42OCA1LjY4IDAgMCAxLS40NDUgMi4yMjcgNS44NyA1Ljg3IDAgMCAxLTEuMjI1IDEuNzgxYy0uNDgyLjQ4Mi0xLjA1OC44NzItMS43MjYgMS4xNjlzLTEuMzkyLjQ0NS0yLjE3MS40NDVhNS42OCA1LjY4IDAgMCAxLTIuMjI3LS40NDUgNi40NCA2LjQ0IDAgMCAxLTEuNzgxLTEuMTY5IDYuNDQgNi40NCAwIDAgMS0xLjE2OS0xLjc4MSA1LjY4IDUuNjggMCAwIDEtLjQ0NS0yLjIyN2MwLS43NzkuMTQ4LTEuNTAzLjQ0NS0yLjE3MUE2LjQ0IDYuNDQgMCAwIDEgOS41MiA2LjczN2E1Ljg3IDUuODcgMCAwIDEgMS43ODEtMS4yMjUgNS42OCA1LjY4IDAgMCAxIDIuMjI3LS40NDVjLjc3OSAwIDEuNTAzLjE0OCAyLjE3MS40NDVzMS4yNDMuNzA1IDEuNzI2IDEuMjI1YTUuODcgNS44NyAwIDAgMSAxLjIyNSAxLjc4MWMuMjk3LjY2OC40NDUgMS4zOTIuNDQ1IDIuMTcxem0tMi43ODMgMGMwLS43NzktLjI3OC0xLjQyOS0uODM1LTEuOTQ4LS41NTctLjU1Ny0xLjIwNi0uODM1LTEuOTQ4LS44MzVhMi43MyAyLjczIDAgMCAwLTIuMDA0LjgzNWMtLjU1Ny41Mi0uODM1IDEuMTY5LS44MzUgMS45NDhhMi43MyAyLjczIDAgMCAwIC44MzUgMi4wMDRjLjU1Ny41MiAxLjIyNS43NzkgMi4wMDQuNzc5Ljc0MiAwIDEuMzkyLS4yNiAxLjk0OC0uNzc5YTIuNzMgMi43MyAwIDAgMCAuODM1LTIuMDA0ek03LjA3MSAyMi42NTdjLjg5MS42MzEgMS44NzQgMS4xMzIgMi45NSAxLjUwMyAxLjExMy4zNzEgMi4yODIuNTU3IDMuNTA3LjU1NyAxLjE4OCAwIDIuMzE5LS4xODYgMy4zOTYtLjU1NyAxLjExMy0uMzcxIDIuMTE1LS44NzIgMy4wMDYtMS41MDMtLjM3MS0uNjY4LS44OTEtMS4xODgtMS41NTktMS41NTktLjYzMS0uNDA4LTEuMzE3LS42MTItMi4wNi0uNjEyaC01LjYyMmMtLjc0MiAwLTEuNDQ3LjIwNC0yLjExNS42MTItLjYzMS4zNzEtMS4xMzIuODkxLTEuNTAzIDEuNTU5eiIvPiYjeGE7PC9zdmc+;imageBackground=default;" parent="1" vertex="1">
          <mxGeometry x="512" y="774" width="28" height="28" as="geometry" />
        </mxCell>
        <mxCell id="3t2poUQqlpVYaqUKuZvh-91" value="" style="shape=image;editableCssRules=.*;verticalLabelPosition=bottom;labelBackgroundColor=default;verticalAlign=top;aspect=fixed;imageAspect=0;image=data:image/svg+xml,PHN2ZyB4bWxucz0iaHR0cDovL3d3dy53My5vcmcvMjAwMC9zdmciIHZpZXdCb3g9Ii0wLjUgLTAuNSAyOCAyOCIgaGVpZ2h0PSIyOCIgd2lkdGg9IjI4Ij4mI3hhOwkgIDxzdHlsZSB0eXBlPSJ0ZXh0L2NzcyI+LnN0MCB7IHN0b3AtY29sb3I6IHJnYigyNDEsIDE1NiwgMTUzKTsgfSAuc3QxIHsgc3RvcC1jb2xvcjogcmdiKDIzNCwgMTA3LCAxMDIpOyB9IDwvc3R5bGU+JiN4YTsJPGRlZnM+JiN4YTsJCTxsaW5lYXJHcmFkaWVudCBncmFkaWVudFVuaXRzPSJ1c2VyU3BhY2VPblVzZSIgeTI9IjI1LjMwOSIgeDI9IjIzLjQ1NCIgeTE9IjMuNDc0IiB4MT0iMi4wMzkiIGlkPSJBIj4mI3hhOwkJCTxzdG9wIGNsYXNzPSJzdDAiLz4mI3hhOwkJCTxzdG9wIGNsYXNzPSJzdDEiIG9mZnNldD0iMSIvPiYjeGE7CQk8L2xpbmVhckdyYWRpZW50PiYjeGE7CTwvZGVmcz4mI3hhOwk8cGF0aCBmaWxsPSJ1cmwoI0EpIiBkPSJNLS41IDEzLjQ3MmMwLTEuOTMuMzcxLTMuNzMgMS4xMTMtNS40Ljc0Mi0xLjcwNyAxLjc0NC0zLjE5MiAzLjAwNi00LjQ1M1M2LjM2NSAxLjM1NiA4LjA3My42MTMgMTEuNTk4LS41IDEzLjUyOC0uNXMzLjczLjM3MSA1LjQgMS4xMTNjMS43MDcuNzQyIDMuMTkyIDEuNzQ0IDQuNDUzIDMuMDA2czIuMjY0IDIuNzQ2IDMuMDA2IDQuNDUzYy43NDIgMS42NyAxLjExMyAzLjQ3IDEuMTEzIDUuNHMtLjM3MSAzLjc0OC0xLjExMyA1LjQ1NS0xLjc0NCAzLjE5Mi0zLjAwNiA0LjQ1M2ExNC4yOCAxNC4yOCAwIDAgMS00LjQ1MyAzLjAwNmMtMS42Ny43NDItMy40NyAxLjExMy01LjQgMS4xMTNzLTMuNzQ4LS4zNzEtNS40NTUtMS4xMTNhMTQuMjggMTQuMjggMCAwIDEtNC40NTMtMy4wMDYgMTQuMjggMTQuMjggMCAwIDEtMy4wMDYtNC40NTNDLS4xMjkgMTcuMjItLjUgMTUuNDAyLS41IDEzLjQ3MnptMTYuODExIDQuMjMxYTYuNjUgNi42NSAwIDAgMSAzLjI4NC44MzVjMS4wMDIuNTIgMS44MTggMS4yNDMgMi40NDkgMi4xNzFhMTAuMTQgMTAuMTQgMCAwIDAgMS45NDgtMy4yODRjLjQ4Mi0xLjIyNS43MjQtMi41NDIuNzI0LTMuOTUyIDAtMS41NTktLjI5Ny0zLjAwNi0uODkxLTQuMzQyLS41OTQtMS4zNzMtMS4zOTItMi41NjEtMi4zOTQtMy41NjNzLTIuMTktMS44LTMuNTYzLTIuMzk0Yy0xLjMzNi0uNTk0LTIuNzgzLS44OTEtNC4zNDItLjg5MXMtMy4wMjQuMjk3LTQuMzk4Ljg5MWMtMS4zMzYuNTk0LTIuNTI0IDEuMzkyLTMuNTYzIDIuMzk0QTExLjM1IDExLjM1IDAgMCAwIDMuMTc0IDkuMTNjLS41OTQgMS4zMzYtLjg5MSAyLjc4My0uODkxIDQuMzQyIDAgMS40MS4yMjMgMi43MjguNjY4IDMuOTUyLjQ4MiAxLjIyNSAxLjE1IDIuMzE5IDIuMDA0IDMuMjg0LjYzMS0uOTI4IDEuNDQ3LTEuNjUxIDIuNDQ5LTIuMTcxYTYuNjUgNi42NSAwIDAgMSAzLjI4NC0uODM1em0yLjc4My03LjAxNGE1LjY4IDUuNjggMCAwIDEtLjQ0NSAyLjIyNyA1Ljg3IDUuODcgMCAwIDEtMS4yMjUgMS43ODFjLS40ODIuNDgyLTEuMDU4Ljg3Mi0xLjcyNiAxLjE2OXMtMS4zOTIuNDQ1LTIuMTcxLjQ0NWE1LjY4IDUuNjggMCAwIDEtMi4yMjctLjQ0NSA2LjQ0IDYuNDQgMCAwIDEtMS43ODEtMS4xNjkgNi40NCA2LjQ0IDAgMCAxLTEuMTY5LTEuNzgxIDUuNjggNS42OCAwIDAgMS0uNDQ1LTIuMjI3YzAtLjc3OS4xNDgtMS41MDMuNDQ1LTIuMTcxQTYuNDQgNi40NCAwIDAgMSA5LjUyIDYuNzM3YTUuODcgNS44NyAwIDAgMSAxLjc4MS0xLjIyNSA1LjY4IDUuNjggMCAwIDEgMi4yMjctLjQ0NWMuNzc5IDAgMS41MDMuMTQ4IDIuMTcxLjQ0NXMxLjI0My43MDUgMS43MjYgMS4yMjVhNS44NyA1Ljg3IDAgMCAxIDEuMjI1IDEuNzgxYy4yOTcuNjY4LjQ0NSAxLjM5Mi40NDUgMi4xNzF6bS0yLjc4MyAwYzAtLjc3OS0uMjc4LTEuNDI5LS44MzUtMS45NDgtLjU1Ny0uNTU3LTEuMjA2LS44MzUtMS45NDgtLjgzNWEyLjczIDIuNzMgMCAwIDAtMi4wMDQuODM1Yy0uNTU3LjUyLS44MzUgMS4xNjktLjgzNSAxLjk0OGEyLjczIDIuNzMgMCAwIDAgLjgzNSAyLjAwNGMuNTU3LjUyIDEuMjI1Ljc3OSAyLjAwNC43NzkuNzQyIDAgMS4zOTItLjI2IDEuOTQ4LS43NzlhMi43MyAyLjczIDAgMCAwIC44MzUtMi4wMDR6TTcuMDcxIDIyLjY1N2MuODkxLjYzMSAxLjg3NCAxLjEzMiAyLjk1IDEuNTAzIDEuMTEzLjM3MSAyLjI4Mi41NTcgMy41MDcuNTU3IDEuMTg4IDAgMi4zMTktLjE4NiAzLjM5Ni0uNTU3IDEuMTEzLS4zNzEgMi4xMTUtLjg3MiAzLjAwNi0xLjUwMy0uMzcxLS42NjgtLjg5MS0xLjE4OC0xLjU1OS0xLjU1OS0uNjMxLS40MDgtMS4zMTctLjYxMi0yLjA2LS42MTJoLTUuNjIyYy0uNzQyIDAtMS40NDcuMjA0LTIuMTE1LjYxMi0uNjMxLjM3MS0xLjEzMi44OTEtMS41MDMgMS41NTl6Ii8+JiN4YTs8L3N2Zz4=;imageBackground=default;" parent="1" vertex="1">
          <mxGeometry x="569" y="774" width="28" height="28" as="geometry" />
        </mxCell>
        <mxCell id="3t2poUQqlpVYaqUKuZvh-96" value="" style="strokeWidth=1;html=1;shape=mxgraph.flowchart.database;whiteSpace=wrap;dashed=1;dashPattern=1 2;strokeColor=#007FFF;" parent="1" vertex="1">
          <mxGeometry x="510" y="808" width="30" height="20" as="geometry" />
        </mxCell>
        <mxCell id="3t2poUQqlpVYaqUKuZvh-97" value="" style="strokeWidth=2;html=1;shape=mxgraph.flowchart.database;whiteSpace=wrap;strokeColor=#EA6B66;" parent="1" vertex="1">
          <mxGeometry x="567" y="808" width="30" height="20" as="geometry" />
        </mxCell>
        <mxCell id="tqv7MVxMLacuMXUG4oiM-5" value="&lt;b&gt;&lt;font style=&quot;font-size: 15px;&quot;&gt;+&lt;/font&gt;&lt;/b&gt;" style="text;html=1;align=center;verticalAlign=middle;whiteSpace=wrap;rounded=0;" parent="1" vertex="1">
          <mxGeometry x="539" y="772" width="30" height="30" as="geometry" />
        </mxCell>
        <mxCell id="XyM_OAOQx8LqlBEVPGMq-2" value="" style="shape=image;editableCssRules=.*;verticalLabelPosition=bottom;labelBackgroundColor=default;verticalAlign=top;aspect=fixed;imageAspect=0;image=data:image/svg+xml,PHN2ZyB4bWxucz0iaHR0cDovL3d3dy53My5vcmcvMjAwMC9zdmciIHZpZXdCb3g9Ii0wLjUgLTAuNSAyOCAyOCIgaGVpZ2h0PSIyOCIgd2lkdGg9IjI4Ij4mI3hhOwkgIDxzdHlsZSB0eXBlPSJ0ZXh0L2NzcyI+LnN0MCB7IHN0b3AtY29sb3I6IHJnYigxMDIsIDE3OCwgMjU1KTsgfSAuc3QxIHsgc3RvcC1jb2xvcjogcmdiKDAsIDEyNywgMjU1KTsgfSA8L3N0eWxlPiYjeGE7CTxkZWZzPiYjeGE7CQk8bGluZWFyR3JhZGllbnQgZ3JhZGllbnRVbml0cz0idXNlclNwYWNlT25Vc2UiIHkyPSIyNS4zMDkiIHgyPSIyMy40NTQiIHkxPSIzLjQ3NCIgeDE9IjIuMDM5IiBpZD0iQSI+JiN4YTsJCQk8c3RvcCBjbGFzcz0ic3QwIi8+JiN4YTsJCQk8c3RvcCBjbGFzcz0ic3QxIiBvZmZzZXQ9IjEiLz4mI3hhOwkJPC9saW5lYXJHcmFkaWVudD4mI3hhOwk8L2RlZnM+JiN4YTsJPHBhdGggZmlsbD0idXJsKCNBKSIgZD0iTS0uNSAxMy40NzJjMC0xLjkzLjM3MS0zLjczIDEuMTEzLTUuNC43NDItMS43MDcgMS43NDQtMy4xOTIgMy4wMDYtNC40NTNTNi4zNjUgMS4zNTYgOC4wNzMuNjEzIDExLjU5OC0uNSAxMy41MjgtLjVzMy43My4zNzEgNS40IDEuMTEzYzEuNzA3Ljc0MiAzLjE5MiAxLjc0NCA0LjQ1MyAzLjAwNnMyLjI2NCAyLjc0NiAzLjAwNiA0LjQ1M2MuNzQyIDEuNjcgMS4xMTMgMy40NyAxLjExMyA1LjRzLS4zNzEgMy43NDgtMS4xMTMgNS40NTUtMS43NDQgMy4xOTItMy4wMDYgNC40NTNhMTQuMjggMTQuMjggMCAwIDEtNC40NTMgMy4wMDZjLTEuNjcuNzQyLTMuNDcgMS4xMTMtNS40IDEuMTEzcy0zLjc0OC0uMzcxLTUuNDU1LTEuMTEzYTE0LjI4IDE0LjI4IDAgMCAxLTQuNDUzLTMuMDA2IDE0LjI4IDE0LjI4IDAgMCAxLTMuMDA2LTQuNDUzQy0uMTI5IDE3LjIyLS41IDE1LjQwMi0uNSAxMy40NzJ6bTE2LjgxMSA0LjIzMWE2LjY1IDYuNjUgMCAwIDEgMy4yODQuODM1YzEuMDAyLjUyIDEuODE4IDEuMjQzIDIuNDQ5IDIuMTcxYTEwLjE0IDEwLjE0IDAgMCAwIDEuOTQ4LTMuMjg0Yy40ODItMS4yMjUuNzI0LTIuNTQyLjcyNC0zLjk1MiAwLTEuNTU5LS4yOTctMy4wMDYtLjg5MS00LjM0Mi0uNTk0LTEuMzczLTEuMzkyLTIuNTYxLTIuMzk0LTMuNTYzcy0yLjE5LTEuOC0zLjU2My0yLjM5NGMtMS4zMzYtLjU5NC0yLjc4My0uODkxLTQuMzQyLS44OTFzLTMuMDI0LjI5Ny00LjM5OC44OTFjLTEuMzM2LjU5NC0yLjUyNCAxLjM5Mi0zLjU2MyAyLjM5NEExMS4zNSAxMS4zNSAwIDAgMCAzLjE3NCA5LjEzYy0uNTk0IDEuMzM2LS44OTEgMi43ODMtLjg5MSA0LjM0MiAwIDEuNDEuMjIzIDIuNzI4LjY2OCAzLjk1Mi40ODIgMS4yMjUgMS4xNSAyLjMxOSAyLjAwNCAzLjI4NC42MzEtLjkyOCAxLjQ0Ny0xLjY1MSAyLjQ0OS0yLjE3MWE2LjY1IDYuNjUgMCAwIDEgMy4yODQtLjgzNXptMi43ODMtNy4wMTRhNS42OCA1LjY4IDAgMCAxLS40NDUgMi4yMjcgNS44NyA1Ljg3IDAgMCAxLTEuMjI1IDEuNzgxYy0uNDgyLjQ4Mi0xLjA1OC44NzItMS43MjYgMS4xNjlzLTEuMzkyLjQ0NS0yLjE3MS40NDVhNS42OCA1LjY4IDAgMCAxLTIuMjI3LS40NDUgNi40NCA2LjQ0IDAgMCAxLTEuNzgxLTEuMTY5IDYuNDQgNi40NCAwIDAgMS0xLjE2OS0xLjc4MSA1LjY4IDUuNjggMCAwIDEtLjQ0NS0yLjIyN2MwLS43NzkuMTQ4LTEuNTAzLjQ0NS0yLjE3MUE2LjQ0IDYuNDQgMCAwIDEgOS41MiA2LjczN2E1Ljg3IDUuODcgMCAwIDEgMS43ODEtMS4yMjUgNS42OCA1LjY4IDAgMCAxIDIuMjI3LS40NDVjLjc3OSAwIDEuNTAzLjE0OCAyLjE3MS40NDVzMS4yNDMuNzA1IDEuNzI2IDEuMjI1YTUuODcgNS44NyAwIDAgMSAxLjIyNSAxLjc4MWMuMjk3LjY2OC40NDUgMS4zOTIuNDQ1IDIuMTcxem0tMi43ODMgMGMwLS43NzktLjI3OC0xLjQyOS0uODM1LTEuOTQ4LS41NTctLjU1Ny0xLjIwNi0uODM1LTEuOTQ4LS44MzVhMi43MyAyLjczIDAgMCAwLTIuMDA0LjgzNWMtLjU1Ny41Mi0uODM1IDEuMTY5LS44MzUgMS45NDhhMi43MyAyLjczIDAgMCAwIC44MzUgMi4wMDRjLjU1Ny41MiAxLjIyNS43NzkgMi4wMDQuNzc5Ljc0MiAwIDEuMzkyLS4yNiAxLjk0OC0uNzc5YTIuNzMgMi43MyAwIDAgMCAuODM1LTIuMDA0ek03LjA3MSAyMi42NTdjLjg5MS42MzEgMS44NzQgMS4xMzIgMi45NSAxLjUwMyAxLjExMy4zNzEgMi4yODIuNTU3IDMuNTA3LjU1NyAxLjE4OCAwIDIuMzE5LS4xODYgMy4zOTYtLjU1NyAxLjExMy0uMzcxIDIuMTE1LS44NzIgMy4wMDYtMS41MDMtLjM3MS0uNjY4LS44OTEtMS4xODgtMS41NTktMS41NTktLjYzMS0uNDA4LTEuMzE3LS42MTItMi4wNi0uNjEyaC01LjYyMmMtLjc0MiAwLTEuNDQ3LjIwNC0yLjExNS42MTItLjYzMS4zNzEtMS4xMzIuODkxLTEuNTAzIDEuNTU5eiIvPiYjeGE7PC9zdmc+;imageBackground=default;" parent="1" vertex="1">
          <mxGeometry x="290.88" y="1071" width="20" height="20" as="geometry" />
        </mxCell>
        <mxCell id="XyM_OAOQx8LqlBEVPGMq-3" value="" style="shape=image;editableCssRules=.*;verticalLabelPosition=bottom;labelBackgroundColor=default;verticalAlign=top;aspect=fixed;imageAspect=0;image=data:image/svg+xml,PHN2ZyB4bWxucz0iaHR0cDovL3d3dy53My5vcmcvMjAwMC9zdmciIHZpZXdCb3g9Ii0wLjUgLTAuNSAyOCAyOCIgaGVpZ2h0PSIyOCIgd2lkdGg9IjI4Ij4mI3hhOwkgIDxzdHlsZSB0eXBlPSJ0ZXh0L2NzcyI+LnN0MCB7IHN0b3AtY29sb3I6IHJnYigyNDEsIDE1NiwgMTUzKTsgfSAuc3QxIHsgc3RvcC1jb2xvcjogcmdiKDIzNCwgMTA3LCAxMDIpOyB9IDwvc3R5bGU+JiN4YTsJPGRlZnM+JiN4YTsJCTxsaW5lYXJHcmFkaWVudCBncmFkaWVudFVuaXRzPSJ1c2VyU3BhY2VPblVzZSIgeTI9IjI1LjMwOSIgeDI9IjIzLjQ1NCIgeTE9IjMuNDc0IiB4MT0iMi4wMzkiIGlkPSJBIj4mI3hhOwkJCTxzdG9wIGNsYXNzPSJzdDAiLz4mI3hhOwkJCTxzdG9wIGNsYXNzPSJzdDEiIG9mZnNldD0iMSIvPiYjeGE7CQk8L2xpbmVhckdyYWRpZW50PiYjeGE7CTwvZGVmcz4mI3hhOwk8cGF0aCBmaWxsPSJ1cmwoI0EpIiBkPSJNLS41IDEzLjQ3MmMwLTEuOTMuMzcxLTMuNzMgMS4xMTMtNS40Ljc0Mi0xLjcwNyAxLjc0NC0zLjE5MiAzLjAwNi00LjQ1M1M2LjM2NSAxLjM1NiA4LjA3My42MTMgMTEuNTk4LS41IDEzLjUyOC0uNXMzLjczLjM3MSA1LjQgMS4xMTNjMS43MDcuNzQyIDMuMTkyIDEuNzQ0IDQuNDUzIDMuMDA2czIuMjY0IDIuNzQ2IDMuMDA2IDQuNDUzYy43NDIgMS42NyAxLjExMyAzLjQ3IDEuMTEzIDUuNHMtLjM3MSAzLjc0OC0xLjExMyA1LjQ1NS0xLjc0NCAzLjE5Mi0zLjAwNiA0LjQ1M2ExNC4yOCAxNC4yOCAwIDAgMS00LjQ1MyAzLjAwNmMtMS42Ny43NDItMy40NyAxLjExMy01LjQgMS4xMTNzLTMuNzQ4LS4zNzEtNS40NTUtMS4xMTNhMTQuMjggMTQuMjggMCAwIDEtNC40NTMtMy4wMDYgMTQuMjggMTQuMjggMCAwIDEtMy4wMDYtNC40NTNDLS4xMjkgMTcuMjItLjUgMTUuNDAyLS41IDEzLjQ3MnptMTYuODExIDQuMjMxYTYuNjUgNi42NSAwIDAgMSAzLjI4NC44MzVjMS4wMDIuNTIgMS44MTggMS4yNDMgMi40NDkgMi4xNzFhMTAuMTQgMTAuMTQgMCAwIDAgMS45NDgtMy4yODRjLjQ4Mi0xLjIyNS43MjQtMi41NDIuNzI0LTMuOTUyIDAtMS41NTktLjI5Ny0zLjAwNi0uODkxLTQuMzQyLS41OTQtMS4zNzMtMS4zOTItMi41NjEtMi4zOTQtMy41NjNzLTIuMTktMS44LTMuNTYzLTIuMzk0Yy0xLjMzNi0uNTk0LTIuNzgzLS44OTEtNC4zNDItLjg5MXMtMy4wMjQuMjk3LTQuMzk4Ljg5MWMtMS4zMzYuNTk0LTIuNTI0IDEuMzkyLTMuNTYzIDIuMzk0QTExLjM1IDExLjM1IDAgMCAwIDMuMTc0IDkuMTNjLS41OTQgMS4zMzYtLjg5MSAyLjc4My0uODkxIDQuMzQyIDAgMS40MS4yMjMgMi43MjguNjY4IDMuOTUyLjQ4MiAxLjIyNSAxLjE1IDIuMzE5IDIuMDA0IDMuMjg0LjYzMS0uOTI4IDEuNDQ3LTEuNjUxIDIuNDQ5LTIuMTcxYTYuNjUgNi42NSAwIDAgMSAzLjI4NC0uODM1em0yLjc4My03LjAxNGE1LjY4IDUuNjggMCAwIDEtLjQ0NSAyLjIyNyA1Ljg3IDUuODcgMCAwIDEtMS4yMjUgMS43ODFjLS40ODIuNDgyLTEuMDU4Ljg3Mi0xLjcyNiAxLjE2OXMtMS4zOTIuNDQ1LTIuMTcxLjQ0NWE1LjY4IDUuNjggMCAwIDEtMi4yMjctLjQ0NSA2LjQ0IDYuNDQgMCAwIDEtMS43ODEtMS4xNjkgNi40NCA2LjQ0IDAgMCAxLTEuMTY5LTEuNzgxIDUuNjggNS42OCAwIDAgMS0uNDQ1LTIuMjI3YzAtLjc3OS4xNDgtMS41MDMuNDQ1LTIuMTcxQTYuNDQgNi40NCAwIDAgMSA5LjUyIDYuNzM3YTUuODcgNS44NyAwIDAgMSAxLjc4MS0xLjIyNSA1LjY4IDUuNjggMCAwIDEgMi4yMjctLjQ0NWMuNzc5IDAgMS41MDMuMTQ4IDIuMTcxLjQ0NXMxLjI0My43MDUgMS43MjYgMS4yMjVhNS44NyA1Ljg3IDAgMCAxIDEuMjI1IDEuNzgxYy4yOTcuNjY4LjQ0NSAxLjM5Mi40NDUgMi4xNzF6bS0yLjc4MyAwYzAtLjc3OS0uMjc4LTEuNDI5LS44MzUtMS45NDgtLjU1Ny0uNTU3LTEuMjA2LS44MzUtMS45NDgtLjgzNWEyLjczIDIuNzMgMCAwIDAtMi4wMDQuODM1Yy0uNTU3LjUyLS44MzUgMS4xNjktLjgzNSAxLjk0OGEyLjczIDIuNzMgMCAwIDAgLjgzNSAyLjAwNGMuNTU3LjUyIDEuMjI1Ljc3OSAyLjAwNC43NzkuNzQyIDAgMS4zOTItLjI2IDEuOTQ4LS43NzlhMi43MyAyLjczIDAgMCAwIC44MzUtMi4wMDR6TTcuMDcxIDIyLjY1N2MuODkxLjYzMSAxLjg3NCAxLjEzMiAyLjk1IDEuNTAzIDEuMTEzLjM3MSAyLjI4Mi41NTcgMy41MDcuNTU3IDEuMTg4IDAgMi4zMTktLjE4NiAzLjM5Ni0uNTU3IDEuMTEzLS4zNzEgMi4xMTUtLjg3MiAzLjAwNi0xLjUwMy0uMzcxLS42NjgtLjg5MS0xLjE4OC0xLjU1OS0xLjU1OS0uNjMxLS40MDgtMS4zMTctLjYxMi0yLjA2LS42MTJoLTUuNjIyYy0uNzQyIDAtMS40NDcuMjA0LTIuMTE1LjYxMi0uNjMxLjM3MS0xLjEzMi44OTEtMS41MDMgMS41NTl6Ii8+JiN4YTs8L3N2Zz4=;imageBackground=default;" parent="1" vertex="1">
          <mxGeometry x="290.88" y="1096" width="20" height="20" as="geometry" />
        </mxCell>
        <mxCell id="XyM_OAOQx8LqlBEVPGMq-4" value="&lt;font style=&quot;font-size: 10px;&quot;&gt;Account variant (marketing user)&lt;/font&gt;" style="text;html=1;align=center;verticalAlign=middle;whiteSpace=wrap;rounded=0;fontSize=11;shadow=0;glass=0;fillColor=none;fillStyle=solid;textShadow=1;" parent="1" vertex="1">
          <mxGeometry x="312" y="1127.5" width="130.12" height="15" as="geometry" />
        </mxCell>
        <mxCell id="XyM_OAOQx8LqlBEVPGMq-5" value="&lt;font style=&quot;font-size: 10px;&quot;&gt;Normalised user account&lt;/font&gt;" style="text;html=1;align=center;verticalAlign=middle;whiteSpace=wrap;rounded=0;fontSize=11;shadow=0;textShadow=1;" parent="1" vertex="1">
          <mxGeometry x="314.88" y="1073" width="121" height="16" as="geometry" />
        </mxCell>
        <mxCell id="XyM_OAOQx8LqlBEVPGMq-6" value="&lt;h1 style=&quot;margin-top: 0px;&quot;&gt;Legend&lt;/h1&gt;&lt;h1 style=&quot;margin-top: 0px;&quot;&gt;&lt;br&gt;&lt;/h1&gt;" style="text;html=1;whiteSpace=wrap;overflow=hidden;rounded=0;shadow=0;" parent="1" vertex="1">
          <mxGeometry x="411" y="988" width="88" height="42" as="geometry" />
        </mxCell>
        <mxCell id="XyM_OAOQx8LqlBEVPGMq-7" value="" style="shape=image;editableCssRules=.*;verticalLabelPosition=bottom;labelBackgroundColor=default;verticalAlign=top;aspect=fixed;imageAspect=0;image=data:image/svg+xml,PHN2ZyB4bWxucz0iaHR0cDovL3d3dy53My5vcmcvMjAwMC9zdmciIHZpZXdCb3g9Ii0wLjUgLTAuNSAyOCAyOCIgaGVpZ2h0PSIyOCIgd2lkdGg9IjI4Ij4mI3hhOwkgIDxzdHlsZSB0eXBlPSJ0ZXh0L2NzcyI+LnN0MCB7IHN0b3AtY29sb3I6IHJnYigxODUsIDIyNCwgMTY1KTsgfSAuc3QxIHsgc3RvcC1jb2xvcjogcmdiKDE1MSwgMjA4LCAxMTkpOyB9IDwvc3R5bGU+JiN4YTsJPGRlZnM+JiN4YTsJCTxsaW5lYXJHcmFkaWVudCBncmFkaWVudFVuaXRzPSJ1c2VyU3BhY2VPblVzZSIgeTI9IjI1LjMwOSIgeDI9IjIzLjQ1NCIgeTE9IjMuNDc0IiB4MT0iMi4wMzkiIGlkPSJBIj4mI3hhOwkJCTxzdG9wIGNsYXNzPSJzdDAiLz4mI3hhOwkJCTxzdG9wIGNsYXNzPSJzdDEiIG9mZnNldD0iMSIvPiYjeGE7CQk8L2xpbmVhckdyYWRpZW50PiYjeGE7CTwvZGVmcz4mI3hhOwk8cGF0aCBmaWxsPSJ1cmwoI0EpIiBkPSJNLS41IDEzLjQ3MmMwLTEuOTMuMzcxLTMuNzMgMS4xMTMtNS40Ljc0Mi0xLjcwNyAxLjc0NC0zLjE5MiAzLjAwNi00LjQ1M1M2LjM2NSAxLjM1NiA4LjA3My42MTMgMTEuNTk4LS41IDEzLjUyOC0uNXMzLjczLjM3MSA1LjQgMS4xMTNjMS43MDcuNzQyIDMuMTkyIDEuNzQ0IDQuNDUzIDMuMDA2czIuMjY0IDIuNzQ2IDMuMDA2IDQuNDUzYy43NDIgMS42NyAxLjExMyAzLjQ3IDEuMTEzIDUuNHMtLjM3MSAzLjc0OC0xLjExMyA1LjQ1NS0xLjc0NCAzLjE5Mi0zLjAwNiA0LjQ1M2ExNC4yOCAxNC4yOCAwIDAgMS00LjQ1MyAzLjAwNmMtMS42Ny43NDItMy40NyAxLjExMy01LjQgMS4xMTNzLTMuNzQ4LS4zNzEtNS40NTUtMS4xMTNhMTQuMjggMTQuMjggMCAwIDEtNC40NTMtMy4wMDYgMTQuMjggMTQuMjggMCAwIDEtMy4wMDYtNC40NTNDLS4xMjkgMTcuMjItLjUgMTUuNDAyLS41IDEzLjQ3MnptMTYuODExIDQuMjMxYTYuNjUgNi42NSAwIDAgMSAzLjI4NC44MzVjMS4wMDIuNTIgMS44MTggMS4yNDMgMi40NDkgMi4xNzFhMTAuMTQgMTAuMTQgMCAwIDAgMS45NDgtMy4yODRjLjQ4Mi0xLjIyNS43MjQtMi41NDIuNzI0LTMuOTUyIDAtMS41NTktLjI5Ny0zLjAwNi0uODkxLTQuMzQyLS41OTQtMS4zNzMtMS4zOTItMi41NjEtMi4zOTQtMy41NjNzLTIuMTktMS44LTMuNTYzLTIuMzk0Yy0xLjMzNi0uNTk0LTIuNzgzLS44OTEtNC4zNDItLjg5MXMtMy4wMjQuMjk3LTQuMzk4Ljg5MWMtMS4zMzYuNTk0LTIuNTI0IDEuMzkyLTMuNTYzIDIuMzk0QTExLjM1IDExLjM1IDAgMCAwIDMuMTc0IDkuMTNjLS41OTQgMS4zMzYtLjg5MSAyLjc4My0uODkxIDQuMzQyIDAgMS40MS4yMjMgMi43MjguNjY4IDMuOTUyLjQ4MiAxLjIyNSAxLjE1IDIuMzE5IDIuMDA0IDMuMjg0LjYzMS0uOTI4IDEuNDQ3LTEuNjUxIDIuNDQ5LTIuMTcxYTYuNjUgNi42NSAwIDAgMSAzLjI4NC0uODM1em0yLjc4My03LjAxNGE1LjY4IDUuNjggMCAwIDEtLjQ0NSAyLjIyNyA1Ljg3IDUuODcgMCAwIDEtMS4yMjUgMS43ODFjLS40ODIuNDgyLTEuMDU4Ljg3Mi0xLjcyNiAxLjE2OXMtMS4zOTIuNDQ1LTIuMTcxLjQ0NWE1LjY4IDUuNjggMCAwIDEtMi4yMjctLjQ0NSA2LjQ0IDYuNDQgMCAwIDEtMS43ODEtMS4xNjkgNi40NCA2LjQ0IDAgMCAxLTEuMTY5LTEuNzgxIDUuNjggNS42OCAwIDAgMS0uNDQ1LTIuMjI3YzAtLjc3OS4xNDgtMS41MDMuNDQ1LTIuMTcxQTYuNDQgNi40NCAwIDAgMSA5LjUyIDYuNzM3YTUuODcgNS44NyAwIDAgMSAxLjc4MS0xLjIyNSA1LjY4IDUuNjggMCAwIDEgMi4yMjctLjQ0NWMuNzc5IDAgMS41MDMuMTQ4IDIuMTcxLjQ0NXMxLjI0My43MDUgMS43MjYgMS4yMjVhNS44NyA1Ljg3IDAgMCAxIDEuMjI1IDEuNzgxYy4yOTcuNjY4LjQ0NSAxLjM5Mi40NDUgMi4xNzF6bS0yLjc4MyAwYzAtLjc3OS0uMjc4LTEuNDI5LS44MzUtMS45NDgtLjU1Ny0uNTU3LTEuMjA2LS44MzUtMS45NDgtLjgzNWEyLjczIDIuNzMgMCAwIDAtMi4wMDQuODM1Yy0uNTU3LjUyLS44MzUgMS4xNjktLjgzNSAxLjk0OGEyLjczIDIuNzMgMCAwIDAgLjgzNSAyLjAwNGMuNTU3LjUyIDEuMjI1Ljc3OSAyLjAwNC43NzkuNzQyIDAgMS4zOTItLjI2IDEuOTQ4LS43NzlhMi43MyAyLjczIDAgMCAwIC44MzUtMi4wMDR6TTcuMDcxIDIyLjY1N2MuODkxLjYzMSAxLjg3NCAxLjEzMiAyLjk1IDEuNTAzIDEuMTEzLjM3MSAyLjI4Mi41NTcgMy41MDcuNTU3IDEuMTg4IDAgMi4zMTktLjE4NiAzLjM5Ni0uNTU3IDEuMTEzLS4zNzEgMi4xMTUtLjg3MiAzLjAwNi0xLjUwMy0uMzcxLS42NjgtLjg5MS0xLjE4OC0xLjU1OS0xLjU1OS0uNjMxLS40MDgtMS4zMTctLjYxMi0yLjA2LS42MTJoLTUuNjIyYy0uNzQyIDAtMS40NDcuMjA0LTIuMTE1LjYxMi0uNjMxLjM3MS0xLjEzMi44OTEtMS41MDMgMS41NTl6Ii8+JiN4YTs8L3N2Zz4=;imageBackground=default;" parent="1" vertex="1">
          <mxGeometry x="290.88" y="1120" width="20" height="20" as="geometry" />
        </mxCell>
        <mxCell id="XyM_OAOQx8LqlBEVPGMq-9" value="&lt;font style=&quot;font-size: 10px;&quot;&gt;Account variant (customer)&lt;/font&gt;" style="text;html=1;align=center;verticalAlign=middle;whiteSpace=wrap;rounded=0;fontSize=11;shadow=0;textShadow=1;" parent="1" vertex="1">
          <mxGeometry x="314.88" y="1096.5" width="135.12" height="19" as="geometry" />
        </mxCell>
        <mxCell id="dd3niifwiFmpnuj567sv-1" style="rounded=0;orthogonalLoop=1;jettySize=auto;html=1;strokeColor=#FF00FF;sketch=1;curveFitting=1;jiggle=2;" parent="1" edge="1">
          <mxGeometry relative="1" as="geometry">
            <mxPoint x="490.63" y="1105.04" as="sourcePoint" />
            <mxPoint x="590.63" y="1106.04" as="targetPoint" />
          </mxGeometry>
        </mxCell>
        <mxCell id="dd3niifwiFmpnuj567sv-2" value="&amp;nbsp;Consume event&amp;nbsp;" style="edgeLabel;html=1;align=center;verticalAlign=middle;resizable=0;points=[];fontSize=8;textShadow=1;" parent="dd3niifwiFmpnuj567sv-1" vertex="1" connectable="0">
          <mxGeometry x="0.19" y="-2" relative="1" as="geometry">
            <mxPoint x="-11" y="-2" as="offset" />
          </mxGeometry>
        </mxCell>
        <mxCell id="dd3niifwiFmpnuj567sv-3" style="rounded=0;orthogonalLoop=1;jettySize=auto;html=1;strokeColor=#d79b00;sketch=1;curveFitting=1;jiggle=2;fillColor=#ffe6cc;" parent="1" edge="1">
          <mxGeometry relative="1" as="geometry">
            <mxPoint x="490.63" y="1081.54" as="sourcePoint" />
            <mxPoint x="591" y="1082" as="targetPoint" />
          </mxGeometry>
        </mxCell>
        <mxCell id="dd3niifwiFmpnuj567sv-4" value="&amp;nbsp;Emit event&amp;nbsp;" style="edgeLabel;html=1;align=center;verticalAlign=middle;resizable=0;points=[];fontSize=8;spacing=3;spacingLeft=-1;spacingTop=2;spacingRight=0;labelBackgroundColor=default;labelBorderColor=none;textShadow=1;" parent="dd3niifwiFmpnuj567sv-3" vertex="1" connectable="0">
          <mxGeometry x="0.19" y="-2" relative="1" as="geometry">
            <mxPoint x="-7" y="-3" as="offset" />
          </mxGeometry>
        </mxCell>
        <mxCell id="dd3niifwiFmpnuj567sv-5" style="rounded=0;orthogonalLoop=1;jettySize=auto;html=1;strokeColor=#000000;dashed=1;dashPattern=8 8;flowAnimation=1;" parent="1" edge="1">
          <mxGeometry relative="1" as="geometry">
            <mxPoint x="490.63" y="1128.62" as="sourcePoint" />
            <mxPoint x="590.63" y="1130.4699999999998" as="targetPoint" />
          </mxGeometry>
        </mxCell>
        <mxCell id="dd3niifwiFmpnuj567sv-6" value="&lt;span style=&quot;caret-color: rgba(0, 0, 0, 0); color: rgba(0, 0, 0, 0); font-family: monospace; font-size: 0px; text-align: start; background-color: rgb(251, 251, 251);&quot;&gt;%3CmxGraphModel%3E%3Croot%3E%3CmxCell%20id%3D%220%22%2F%3E%3CmxCell%20id%3D%221%22%20parent%3D%220%22%2F%3E%3CmxCell%20id%3D%222%22%20value%3D%22API%20Call%3A%26amp%3Bnbsp%3B%26lt%3Bdiv%26gt%3BGet%20New%20User%20Profile%26lt%3B%2Fdiv%26gt%3B%26lt%3Bdiv%26gt%3BGet%20Updated%20User%20Profile%26lt%3Bbr%26gt%3B%26lt%3B%2Fdiv%26gt%3B%22%20style%3D%22edgeLabel%3Bhtml%3D1%3Balign%3Dcenter%3BverticalAlign%3Dmiddle%3Bresizable%3D0%3Bpoints%3D%5B%5D%3B%22%20vertex%3D%221%22%20connectable%3D%220%22%20parent%3D%221%22%3E%3CmxGeometry%20x%3D%22248%22%20y%3D%22515%22%20as%3D%22geometry%22%2F%3E%3C%2FmxCell%3E%3C%2Froot%3E%3C%2FmxGraphModel%3E&lt;/span&gt;" style="edgeLabel;html=1;align=center;verticalAlign=middle;resizable=0;points=[];" parent="dd3niifwiFmpnuj567sv-5" vertex="1" connectable="0">
          <mxGeometry x="0.0114" y="-4" relative="1" as="geometry">
            <mxPoint as="offset" />
          </mxGeometry>
        </mxCell>
        <mxCell id="dd3niifwiFmpnuj567sv-7" value="&amp;nbsp;Event outcome&amp;nbsp;" style="edgeLabel;html=1;align=center;verticalAlign=middle;resizable=0;points=[];fontSize=8;fontStyle=0;textShadow=1;spacingBottom=0;spacingTop=4;" parent="dd3niifwiFmpnuj567sv-5" vertex="1" connectable="0">
          <mxGeometry x="0.0195" y="-3" relative="1" as="geometry">
            <mxPoint x="-2" y="-6" as="offset" />
          </mxGeometry>
        </mxCell>
        <mxCell id="dd3niifwiFmpnuj567sv-10" value="&lt;h1 style=&quot;margin-top: 0px; font-size: 12px;&quot;&gt;Publish / Subscribe pattern&lt;/h1&gt;" style="text;html=1;whiteSpace=wrap;overflow=hidden;rounded=0;shadow=0;fontSize=12;" parent="1" vertex="1">
          <mxGeometry x="464.63" y="1040" width="160" height="30" as="geometry" />
        </mxCell>
        <mxCell id="3t2poUQqlpVYaqUKuZvh-41" value="Customer Account&lt;div&gt;&lt;div&gt;Aria variant&lt;/div&gt;&lt;/div&gt;" style="swimlane;whiteSpace=wrap;html=1;fillColor=#f8cecc;strokeColor=#b85450;startSize=30;sketch=1;curveFitting=1;jiggle=2;rounded=0;swimlaneFillColor=default;" parent="1" vertex="1">
          <mxGeometry x="610" y="820" width="190" height="180" as="geometry" />
        </mxCell>
        <mxCell id="3t2poUQqlpVYaqUKuZvh-42" value="&lt;div&gt;Aria ID:&amp;nbsp;&lt;/div&gt;&lt;div&gt;Billing Group:&lt;/div&gt;&lt;div&gt;Christian Name:&lt;br&gt;&lt;/div&gt;" style="text;html=1;align=left;verticalAlign=middle;resizable=0;points=[[0,0.47,0,-6,0],[0,0.72,0,-6,0]];autosize=1;strokeColor=none;fillColor=none;fontStyle=0" parent="3t2poUQqlpVYaqUKuZvh-41" vertex="1">
          <mxGeometry x="31" y="25" width="110" height="60" as="geometry" />
        </mxCell>
        <mxCell id="3t2poUQqlpVYaqUKuZvh-43" value="Normalised User Account" style="swimlane;whiteSpace=wrap;html=1;fillColor=#dae8fc;strokeColor=#6c8ebf;fontSize=10;align=right;sketch=1;curveFitting=1;jiggle=2;rounded=0;" parent="3t2poUQqlpVYaqUKuZvh-41" vertex="1">
          <mxGeometry x="41" y="80" width="130" height="85" as="geometry" />
        </mxCell>
        <mxCell id="3t2poUQqlpVYaqUKuZvh-44" value="Stampen ID:&lt;div&gt;Förnamn:&lt;div&gt;Efternamn:&lt;/div&gt;&lt;div&gt;Emailadress:&lt;/div&gt;&lt;/div&gt;" style="text;html=1;align=left;verticalAlign=middle;resizable=0;points=[[0,0.37,0,-6,0],[0,0.77,0,-6,0]];autosize=1;strokeColor=none;fillColor=none;fontSize=10;" parent="3t2poUQqlpVYaqUKuZvh-43" vertex="1">
          <mxGeometry x="10" y="20" width="80" height="60" as="geometry" />
        </mxCell>
        <mxCell id="3t2poUQqlpVYaqUKuZvh-46" style="edgeStyle=orthogonalEdgeStyle;rounded=0;orthogonalLoop=1;jettySize=auto;html=1;exitX=0;exitY=0.72;exitDx=-6;exitDy=0;exitPerimeter=0;dashed=1;entryX=0;entryY=0.5;entryDx=0;entryDy=0;" parent="3t2poUQqlpVYaqUKuZvh-41" target="3t2poUQqlpVYaqUKuZvh-43" edge="1">
          <mxGeometry relative="1" as="geometry">
            <mxPoint x="25" y="70.20000000000005" as="sourcePoint" />
            <mxPoint x="40" y="132" as="targetPoint" />
            <Array as="points">
              <mxPoint x="17" y="70" />
              <mxPoint x="17" y="123" />
              <mxPoint x="41" y="123" />
            </Array>
          </mxGeometry>
        </mxCell>
        <mxCell id="dd3niifwiFmpnuj567sv-11" value="&lt;h1 style=&quot;margin-top: 0px; font-size: 12px;&quot;&gt;Distributed customer data&amp;nbsp;&lt;/h1&gt;" style="text;html=1;whiteSpace=wrap;overflow=hidden;rounded=0;shadow=0;fontSize=12;" parent="1" vertex="1">
          <mxGeometry x="290.88" y="1040" width="160" height="30" as="geometry" />
        </mxCell>
        <mxCell id="JIOs8HF9aQNVbFvBmBlv-10" value="&lt;b&gt;Event Mesh&lt;/b&gt;" style="rounded=0;whiteSpace=wrap;html=1;sketch=1;curveFitting=1;jiggle=2;" parent="1" vertex="1">
          <mxGeometry x="510" y="525" width="200.5" height="60" as="geometry" />
        </mxCell>
        <mxCell id="3t2poUQqlpVYaqUKuZvh-32" value="Event Delivery Mgmt" style="rounded=1;whiteSpace=wrap;html=1;fillColor=#f5f5f5;strokeColor=#666666;sketch=1;curveFitting=1;jiggle=2;glass=0;fillWeight=3;disableMultiStroke=0;disableMultiStrokeFill=0;fillStyle=auto;sketchStyle=rough;align=center;verticalAlign=middle;fontFamily=Helvetica;fontSize=12;gradientColor=#b3b3b3;gradientDirection=north;" parent="1" vertex="1">
          <mxGeometry x="624.63" y="574.5" width="130" height="20" as="geometry" />
        </mxCell>
        <mxCell id="3t2poUQqlpVYaqUKuZvh-99" value="6" style="ellipse;whiteSpace=wrap;html=1;aspect=fixed;rotation=0;gradientColor=#223548;strokeColor=none;gradientDirection=east;fillColor=#5b738b;rounded=0;pointerEvents=0;fontFamily=Helvetica;fontSize=16;fontColor=#FFFFFF;spacingTop=4;spacingBottom=4;spacingLeft=4;spacingRight=4;points=[];fontStyle=1" parent="1" vertex="1">
          <mxGeometry x="610" y="774" width="30" height="30" as="geometry" />
        </mxCell>
        <mxCell id="3t2poUQqlpVYaqUKuZvh-98" value="6" style="ellipse;whiteSpace=wrap;html=1;aspect=fixed;rotation=0;gradientColor=#223548;strokeColor=none;gradientDirection=east;fillColor=#5b738b;rounded=0;pointerEvents=0;fontFamily=Helvetica;fontSize=16;fontColor=#FFFFFF;spacingTop=4;spacingBottom=4;spacingLeft=4;spacingRight=4;points=[];fontStyle=1" parent="1" vertex="1">
          <mxGeometry x="260" y="774" width="30" height="30" as="geometry" />
        </mxCell>
        <mxCell id="N4uxb6JnLH10JCopEIms-14" value="Customer Data Analysis" style="rounded=1;whiteSpace=wrap;html=1;fillColor=#f5f5f5;strokeColor=#666666;sketch=1;curveFitting=1;jiggle=2;fillStyle=auto;glass=0;fillWeight=3;disableMultiStroke=0;disableMultiStrokeFill=0;sketchStyle=rough;align=center;verticalAlign=middle;fontFamily=Helvetica;fontSize=12;gradientColor=#b3b3b3;gradientDirection=north;" parent="1" vertex="1">
          <mxGeometry x="429" y="356" width="140" height="20" as="geometry" />
        </mxCell>
        <mxCell id="3ExE7GxzhrG30xC6ED5a-24" value="&lt;b&gt;User Service 2.0&lt;/b&gt;" style="rounded=0;whiteSpace=wrap;html=1;sketch=1;curveFitting=1;jiggle=2;" parent="1" vertex="1">
          <mxGeometry x="50" y="534.75" width="120" height="60" as="geometry" />
        </mxCell>
        <mxCell id="3ExE7GxzhrG30xC6ED5a-25" value="User Data Aggregation" style="rounded=1;whiteSpace=wrap;html=1;fillColor=#f5f5f5;strokeColor=#666666;sketch=1;curveFitting=1;jiggle=2;glass=0;fillWeight=3;disableMultiStroke=0;disableMultiStrokeFill=0;fillStyle=auto;sketchStyle=rough;align=center;verticalAlign=middle;fontFamily=Helvetica;fontSize=12;gradientColor=#b3b3b3;gradientDirection=north;" parent="1" vertex="1">
          <mxGeometry x="13" y="525.25" width="130" height="20" as="geometry" />
        </mxCell>
      </root>
    </mxGraphModel>
  </diagram>
  <diagram id="FymMR3PM9aJKeHiOm6oR" name="Paying customers">
    <mxGraphModel dx="1026" dy="590" grid="1" gridSize="10" guides="1" tooltips="1" connect="1" arrows="1" fold="1" page="1" pageScale="1" pageWidth="827" pageHeight="1169" math="0" shadow="0">
      <root>
        <mxCell id="0" />
        <mxCell id="1" parent="0" />
        <mxCell id="4X83Fl2oLOCMitRsY0ut-1" style="edgeStyle=orthogonalEdgeStyle;rounded=0;orthogonalLoop=1;jettySize=auto;html=1;exitX=1;exitY=0.5;exitDx=0;exitDy=0;sketch=1;curveFitting=1;jiggle=2;elbow=vertical;dashed=1;" parent="1" source="8qgibkEP4KIhBPvQSuZ9-6" target="8qgibkEP4KIhBPvQSuZ9-55" edge="1">
          <mxGeometry relative="1" as="geometry">
            <Array as="points">
              <mxPoint x="554" y="480" />
              <mxPoint x="810" y="480" />
              <mxPoint x="810" y="110" />
              <mxPoint x="404" y="110" />
            </Array>
            <mxPoint x="284" y="296" as="sourcePoint" />
            <mxPoint x="420" y="130" as="targetPoint" />
          </mxGeometry>
        </mxCell>
        <mxCell id="4X83Fl2oLOCMitRsY0ut-2" value="Set password&amp;nbsp;&lt;div&gt;(first time registration email)&lt;/div&gt;" style="edgeLabel;html=1;align=center;verticalAlign=middle;resizable=0;points=[];" parent="4X83Fl2oLOCMitRsY0ut-1" vertex="1" connectable="0">
          <mxGeometry x="0.5601" y="1" relative="1" as="geometry">
            <mxPoint x="-15" y="-1" as="offset" />
          </mxGeometry>
        </mxCell>
        <mxCell id="8qgibkEP4KIhBPvQSuZ9-1" style="edgeStyle=orthogonalEdgeStyle;rounded=0;orthogonalLoop=1;jettySize=auto;html=1;exitX=1;exitY=0.5;exitDx=0;exitDy=0;entryX=0.5;entryY=0;entryDx=0;entryDy=0;strokeColor=#000000;sketch=1;curveFitting=1;jiggle=2;fillColor=#dae8fc;" parent="1" source="8qgibkEP4KIhBPvQSuZ9-3" target="8qgibkEP4KIhBPvQSuZ9-6" edge="1">
          <mxGeometry relative="1" as="geometry" />
        </mxCell>
        <mxCell id="8qgibkEP4KIhBPvQSuZ9-2" value="SSO" style="edgeLabel;html=1;align=center;verticalAlign=middle;resizable=0;points=[];" parent="8qgibkEP4KIhBPvQSuZ9-1" vertex="1" connectable="0">
          <mxGeometry x="-0.3333" relative="1" as="geometry">
            <mxPoint as="offset" />
          </mxGeometry>
        </mxCell>
        <mxCell id="T3K_JFK7z1kkOa9Re8E--3" style="edgeStyle=orthogonalEdgeStyle;rounded=0;orthogonalLoop=1;jettySize=auto;html=1;exitX=0;exitY=0.5;exitDx=0;exitDy=0;entryX=0.25;entryY=0;entryDx=0;entryDy=0;sketch=1;curveFitting=1;jiggle=2;fillColor=#d5e8d4;strokeColor=#82b366;gradientColor=#97d077;" parent="1" source="8qgibkEP4KIhBPvQSuZ9-62" target="T3K_JFK7z1kkOa9Re8E--1" edge="1">
          <mxGeometry relative="1" as="geometry" />
        </mxCell>
        <mxCell id="a8elecHNZdTuDkbv1ZgN-3" value="anna.andersson@hotmail.com" style="edgeLabel;html=1;align=center;verticalAlign=middle;resizable=0;points=[];" parent="T3K_JFK7z1kkOa9Re8E--3" vertex="1" connectable="0">
          <mxGeometry x="0.6506" y="-1" relative="1" as="geometry">
            <mxPoint x="11" y="-81" as="offset" />
          </mxGeometry>
        </mxCell>
        <mxCell id="Uq1pCeKUHMeNmKVQieHc-3" style="edgeStyle=orthogonalEdgeStyle;rounded=0;orthogonalLoop=1;jettySize=auto;html=1;exitX=1;exitY=0.863;exitDx=0;exitDy=0;entryX=0.25;entryY=0;entryDx=0;entryDy=0;sketch=1;curveFitting=1;jiggle=2;exitPerimeter=0;" parent="1" source="8qgibkEP4KIhBPvQSuZ9-3" target="8qgibkEP4KIhBPvQSuZ9-6" edge="1">
          <mxGeometry relative="1" as="geometry" />
        </mxCell>
        <mxCell id="Uq1pCeKUHMeNmKVQieHc-4" value="API Call: Get User&amp;nbsp;&lt;div&gt;Authorisation Token&lt;/div&gt;" style="edgeLabel;html=1;align=center;verticalAlign=middle;resizable=0;points=[];" parent="Uq1pCeKUHMeNmKVQieHc-3" vertex="1" connectable="0">
          <mxGeometry x="-0.1795" y="-1" relative="1" as="geometry">
            <mxPoint x="-9" y="2" as="offset" />
          </mxGeometry>
        </mxCell>
        <mxCell id="8qgibkEP4KIhBPvQSuZ9-3" value="GP.se&amp;nbsp;&lt;div&gt;&lt;br&gt;&lt;div&gt;Thanos&amp;nbsp;&lt;br&gt;&lt;/div&gt;&lt;div&gt;&lt;div&gt;Front End&lt;/div&gt;&lt;/div&gt;&lt;/div&gt;" style="whiteSpace=wrap;html=1;aspect=fixed;strokeColor=#000000;fontStyle=1;sketch=1;curveFitting=1;jiggle=2;rounded=1;glass=0;align=center;" parent="1" vertex="1">
          <mxGeometry x="204" y="287" width="80" height="80" as="geometry" />
        </mxCell>
        <mxCell id="8qgibkEP4KIhBPvQSuZ9-4" style="edgeStyle=orthogonalEdgeStyle;rounded=0;orthogonalLoop=1;jettySize=auto;html=1;entryX=0.5;entryY=0;entryDx=0;entryDy=0;strokeColor=#000000;sketch=1;curveFitting=1;jiggle=2;exitX=0.5;exitY=1.033;exitDx=0;exitDy=0;exitPerimeter=0;" parent="1" source="8qgibkEP4KIhBPvQSuZ9-67" target="8qgibkEP4KIhBPvQSuZ9-16" edge="1">
          <mxGeometry relative="1" as="geometry">
            <Array as="points">
              <mxPoint x="514" y="548" />
            </Array>
          </mxGeometry>
        </mxCell>
        <mxCell id="8qgibkEP4KIhBPvQSuZ9-5" value="Events #UserProfile:&amp;nbsp;&lt;div&gt;User Profile Created&lt;div&gt;User Profile Updated&lt;/div&gt;&lt;/div&gt;" style="edgeLabel;html=1;align=center;verticalAlign=middle;resizable=0;points=[];" parent="8qgibkEP4KIhBPvQSuZ9-4" vertex="1" connectable="0">
          <mxGeometry x="-0.478" y="-2" relative="1" as="geometry">
            <mxPoint x="2" y="58" as="offset" />
          </mxGeometry>
        </mxCell>
        <mxCell id="8qgibkEP4KIhBPvQSuZ9-6" value="Okta&amp;nbsp;&lt;div&gt;Auth0&lt;/div&gt;" style="whiteSpace=wrap;html=1;aspect=fixed;strokeColor=#000000;fontStyle=1;sketch=1;curveFitting=1;jiggle=2;rounded=1;glass=0;" parent="1" vertex="1">
          <mxGeometry x="464" y="437" width="90" height="90" as="geometry" />
        </mxCell>
        <mxCell id="8qgibkEP4KIhBPvQSuZ9-7" value="ARIA" style="whiteSpace=wrap;html=1;aspect=fixed;strokeColor=#000000;fontStyle=1;sketch=1;curveFitting=1;jiggle=2;rounded=1;glass=0;" parent="1" vertex="1">
          <mxGeometry x="474" y="847" width="80" height="80" as="geometry" />
        </mxCell>
        <mxCell id="8qgibkEP4KIhBPvQSuZ9-16" value="Event Mesh" style="whiteSpace=wrap;html=1;aspect=fixed;strokeColor=#000000;fontStyle=1;sketch=1;curveFitting=1;jiggle=2;rounded=1;glass=0;" parent="1" vertex="1">
          <mxGeometry x="474" y="682" width="80" height="80" as="geometry" />
        </mxCell>
        <mxCell id="8qgibkEP4KIhBPvQSuZ9-19" style="edgeStyle=orthogonalEdgeStyle;rounded=0;orthogonalLoop=1;jettySize=auto;html=1;strokeColor=#000000;exitX=0.5;exitY=0.133;exitDx=0;exitDy=0;entryX=0.5;entryY=1;entryDx=0;entryDy=0;sketch=1;curveFitting=1;jiggle=2;exitPerimeter=0;" parent="1" source="8qgibkEP4KIhBPvQSuZ9-69" target="8qgibkEP4KIhBPvQSuZ9-16" edge="1">
          <mxGeometry relative="1" as="geometry">
            <mxPoint x="472" y="812" as="sourcePoint" />
            <mxPoint x="512" y="787" as="targetPoint" />
          </mxGeometry>
        </mxCell>
        <mxCell id="8qgibkEP4KIhBPvQSuZ9-20" value="Event Listener:&amp;nbsp;&lt;div&gt;#UserProfile Topics&lt;/div&gt;" style="edgeLabel;html=1;align=center;verticalAlign=middle;resizable=0;points=[];" parent="8qgibkEP4KIhBPvQSuZ9-19" vertex="1" connectable="0">
          <mxGeometry x="0.19" y="-2" relative="1" as="geometry">
            <mxPoint x="-2" y="12" as="offset" />
          </mxGeometry>
        </mxCell>
        <mxCell id="8qgibkEP4KIhBPvQSuZ9-21" value="sven.svensson@goteborgsenergi.se" style="edgeStyle=orthogonalEdgeStyle;rounded=0;orthogonalLoop=1;jettySize=auto;html=1;entryX=1;entryY=0.25;entryDx=0;entryDy=0;strokeColor=#d6b656;flowAnimation=0;sketch=1;curveFitting=1;jiggle=2;fillColor=#fff2cc;gradientColor=#ffd966;" parent="1" source="8qgibkEP4KIhBPvQSuZ9-56" target="8qgibkEP4KIhBPvQSuZ9-3" edge="1">
          <mxGeometry x="0.1861" y="-7" relative="1" as="geometry">
            <mxPoint as="offset" />
            <mxPoint x="590" y="217" as="sourcePoint" />
            <Array as="points">
              <mxPoint x="580" y="211" />
              <mxPoint x="580" y="307" />
            </Array>
          </mxGeometry>
        </mxCell>
        <mxCell id="8qgibkEP4KIhBPvQSuZ9-22" style="edgeStyle=orthogonalEdgeStyle;rounded=0;orthogonalLoop=1;jettySize=auto;html=1;entryX=0.5;entryY=1;entryDx=0;entryDy=0;sketch=1;curveFitting=1;jiggle=2;exitX=1;exitY=0.25;exitDx=0;exitDy=0;fillColor=#fff2cc;strokeColor=#d6b656;gradientColor=#ffd966;" parent="1" source="8qgibkEP4KIhBPvQSuZ9-6" target="8qgibkEP4KIhBPvQSuZ9-23" edge="1">
          <mxGeometry relative="1" as="geometry">
            <mxPoint x="620" y="460" as="sourcePoint" />
          </mxGeometry>
        </mxCell>
        <mxCell id="Uq1pCeKUHMeNmKVQieHc-5" value="API Call:&amp;nbsp;&lt;div&gt;Get User&amp;nbsp;&lt;/div&gt;&lt;div&gt;Authorisation Token&lt;/div&gt;" style="edgeLabel;html=1;align=center;verticalAlign=middle;resizable=0;points=[];" parent="8qgibkEP4KIhBPvQSuZ9-22" vertex="1" connectable="0">
          <mxGeometry x="-0.5587" y="3" relative="1" as="geometry">
            <mxPoint x="109" y="-36" as="offset" />
          </mxGeometry>
        </mxCell>
        <mxCell id="uMjAtUbEPXIBOVqxAqrq-2" style="edgeStyle=orthogonalEdgeStyle;rounded=0;orthogonalLoop=1;jettySize=auto;html=1;exitX=0;exitY=0.5;exitDx=0;exitDy=0;entryX=0.25;entryY=0;entryDx=0;entryDy=0;sketch=1;jiggle=2;curveFitting=1;strokeColor=#d6b656;align=center;verticalAlign=middle;fontFamily=Helvetica;fontSize=11;fontColor=default;labelBackgroundColor=default;endArrow=classic;fillColor=#fff2cc;gradientColor=#ffd966;" parent="1" source="uMjAtUbEPXIBOVqxAqrq-4" target="8qgibkEP4KIhBPvQSuZ9-28" edge="1">
          <mxGeometry relative="1" as="geometry" />
        </mxCell>
        <mxCell id="8qgibkEP4KIhBPvQSuZ9-23" value="Okta Enterprise Adapter" style="whiteSpace=wrap;html=1;aspect=fixed;strokeColor=#000000;fontStyle=1;sketch=1;curveFitting=1;jiggle=2;rounded=1;glass=0;" parent="1" vertex="1">
          <mxGeometry x="680" y="287" width="80" height="80" as="geometry" />
        </mxCell>
        <mxCell id="8qgibkEP4KIhBPvQSuZ9-25" value="Contract Management" style="rounded=1;whiteSpace=wrap;html=1;sketch=1;curveFitting=1;jiggle=2;fillStyle=auto;glass=0;fillWeight=3;disableMultiStroke=0;disableMultiStrokeFill=0;sketchStyle=rough;align=center;verticalAlign=middle;fontFamily=Helvetica;fontSize=12;gradientDirection=north;fillColor=#eeeeee;strokeColor=#36393d;" parent="1" vertex="1">
          <mxGeometry x="380" y="917" width="130" height="20" as="geometry" />
        </mxCell>
        <mxCell id="8qgibkEP4KIhBPvQSuZ9-26" value="Billing Management" style="rounded=1;whiteSpace=wrap;html=1;sketch=1;curveFitting=1;jiggle=2;fillStyle=auto;glass=0;fillWeight=3;disableMultiStroke=0;disableMultiStrokeFill=0;sketchStyle=rough;align=center;verticalAlign=middle;fontFamily=Helvetica;fontSize=12;gradientDirection=north;fillColor=#eeeeee;strokeColor=#36393d;" parent="1" vertex="1">
          <mxGeometry x="380" y="937" width="130" height="20" as="geometry" />
        </mxCell>
        <mxCell id="8qgibkEP4KIhBPvQSuZ9-28" value="Authentication &amp;amp; Authorisation Mgmt" style="rounded=1;whiteSpace=wrap;html=1;sketch=1;curveFitting=1;jiggle=2;fillStyle=auto;glass=0;fillWeight=3;disableMultiStroke=0;disableMultiStrokeFill=0;sketchStyle=rough;align=center;verticalAlign=middle;fontFamily=Helvetica;fontSize=12;gradientDirection=north;fillColor=#eeeeee;strokeColor=#36393d;" parent="1" vertex="1">
          <mxGeometry x="520" y="407" width="130" height="40" as="geometry" />
        </mxCell>
        <mxCell id="8qgibkEP4KIhBPvQSuZ9-30" value="Event Delivery Mgmt" style="rounded=1;whiteSpace=wrap;html=1;sketch=1;curveFitting=1;jiggle=2;glass=0;fillWeight=3;disableMultiStroke=0;disableMultiStrokeFill=0;fillStyle=auto;sketchStyle=rough;align=center;verticalAlign=middle;fontFamily=Helvetica;fontSize=12;gradientDirection=north;fillColor=#eeeeee;strokeColor=#36393d;" parent="1" vertex="1">
          <mxGeometry x="530" y="671.5" width="130" height="20" as="geometry" />
        </mxCell>
        <mxCell id="8qgibkEP4KIhBPvQSuZ9-31" value="User Experience Mgmt" style="rounded=1;whiteSpace=wrap;html=1;sketch=1;curveFitting=1;jiggle=2;fillStyle=auto;glass=0;fillWeight=3;disableMultiStroke=0;disableMultiStrokeFill=0;sketchStyle=rough;align=center;verticalAlign=middle;fontFamily=Helvetica;fontSize=12;gradientDirection=north;fillColor=#eeeeee;strokeColor=#36393d;" parent="1" vertex="1">
          <mxGeometry x="110" y="357" width="130" height="20" as="geometry" />
        </mxCell>
        <mxCell id="8qgibkEP4KIhBPvQSuZ9-34" value="Thanos&amp;nbsp;&lt;div&gt;Back End&lt;/div&gt;" style="whiteSpace=wrap;html=1;aspect=fixed;strokeColor=#000000;fontStyle=1;sketch=1;curveFitting=1;jiggle=2;rounded=1;glass=0;" parent="1" vertex="1">
          <mxGeometry x="204" y="397" width="80" height="80" as="geometry" />
        </mxCell>
        <mxCell id="8qgibkEP4KIhBPvQSuZ9-35" value="Content Management" style="rounded=1;whiteSpace=wrap;html=1;sketch=1;curveFitting=1;jiggle=2;fillStyle=auto;glass=0;fillWeight=3;disableMultiStroke=0;disableMultiStrokeFill=0;sketchStyle=rough;align=center;verticalAlign=middle;fontFamily=Helvetica;fontSize=12;gradientDirection=north;fillColor=#eeeeee;strokeColor=#36393d;" parent="1" vertex="1">
          <mxGeometry x="110" y="467" width="130" height="20" as="geometry" />
        </mxCell>
        <mxCell id="8qgibkEP4KIhBPvQSuZ9-36" value="" style="endArrow=none;html=1;rounded=0;entryX=0.5;entryY=1;entryDx=0;entryDy=0;exitX=0.5;exitY=0;exitDx=0;exitDy=0;" parent="1" source="8qgibkEP4KIhBPvQSuZ9-34" target="8qgibkEP4KIhBPvQSuZ9-3" edge="1">
          <mxGeometry width="50" height="50" relative="1" as="geometry">
            <mxPoint x="380" y="517" as="sourcePoint" />
            <mxPoint x="430" y="467" as="targetPoint" />
          </mxGeometry>
        </mxCell>
        <mxCell id="8qgibkEP4KIhBPvQSuZ9-37" value="Normalised User Profile" style="swimlane;whiteSpace=wrap;html=1;fillColor=#dae8fc;strokeColor=#6c8ebf;fontSize=10;align=right;sketch=1;curveFitting=1;jiggle=2;" parent="1" vertex="1">
          <mxGeometry x="349" y="527" width="131" height="90" as="geometry">
            <mxRectangle x="349" y="430" width="150" height="30" as="alternateBounds" />
          </mxGeometry>
        </mxCell>
        <mxCell id="8qgibkEP4KIhBPvQSuZ9-38" value="Förnamn:&lt;div&gt;Efternamn:&lt;/div&gt;&lt;div&gt;Emailadress:&lt;/div&gt;&lt;div&gt;Telefonnummer:&lt;/div&gt;&lt;div&gt;Personnummer:&lt;/div&gt;" style="text;html=1;align=left;verticalAlign=middle;resizable=0;points=[];autosize=1;strokeColor=none;fillColor=none;fontSize=10;" parent="8qgibkEP4KIhBPvQSuZ9-37" vertex="1">
          <mxGeometry x="10" y="18" width="100" height="70" as="geometry" />
        </mxCell>
        <mxCell id="8qgibkEP4KIhBPvQSuZ9-39" value="User Profile&lt;div&gt;ARIA variant&lt;/div&gt;" style="swimlane;whiteSpace=wrap;html=1;fillColor=#f8cecc;strokeColor=#b85450;startSize=30;swimlaneLine=1;glass=0;sketch=1;curveFitting=1;jiggle=2;" parent="1" vertex="1">
          <mxGeometry x="565" y="847" width="190" height="195" as="geometry" />
        </mxCell>
        <mxCell id="8qgibkEP4KIhBPvQSuZ9-40" value="Contract Number:&lt;div&gt;Telephone:&lt;br&gt;&lt;div&gt;Products:&amp;nbsp;&lt;/div&gt;&lt;div&gt;Christian Name:&lt;/div&gt;&lt;/div&gt;" style="text;html=1;align=left;verticalAlign=middle;resizable=0;points=[[0,0.39,0,-6,0],[0,0.79,0,-6,0]];autosize=1;strokeColor=none;fillColor=none;fontStyle=0;sketch=1;curveFitting=1;jiggle=2;" parent="8qgibkEP4KIhBPvQSuZ9-39" vertex="1">
          <mxGeometry x="42" y="27" width="120" height="70" as="geometry" />
        </mxCell>
        <mxCell id="8qgibkEP4KIhBPvQSuZ9-41" value="Normalised User Profile" style="swimlane;whiteSpace=wrap;html=1;fillColor=#dae8fc;strokeColor=#6c8ebf;fontSize=10;align=right;sketch=1;curveFitting=1;jiggle=2;" parent="8qgibkEP4KIhBPvQSuZ9-39" vertex="1">
          <mxGeometry x="52" y="95" width="130" height="85" as="geometry" />
        </mxCell>
        <mxCell id="8qgibkEP4KIhBPvQSuZ9-42" value="Förnamn:&lt;div&gt;Efternamn:&lt;/div&gt;&lt;div&gt;Emailadress:&lt;/div&gt;&lt;div&gt;Telefonnummer:&lt;/div&gt;&lt;div&gt;Personnummer:&lt;/div&gt;" style="text;html=1;align=left;verticalAlign=middle;resizable=0;points=[[0,0.3,0,-6,0],[0,0.66,0,-6,0]];autosize=1;strokeColor=none;fillColor=none;fontSize=10;" parent="8qgibkEP4KIhBPvQSuZ9-41" vertex="1">
          <mxGeometry x="10" y="18" width="100" height="70" as="geometry" />
        </mxCell>
        <mxCell id="8qgibkEP4KIhBPvQSuZ9-43" style="edgeStyle=orthogonalEdgeStyle;rounded=0;orthogonalLoop=1;jettySize=auto;html=1;dashed=1;exitX=0;exitY=0.39;exitDx=-6;exitDy=0;exitPerimeter=0;entryX=0;entryY=0.66;entryDx=-6;entryDy=0;entryPerimeter=0;" parent="8qgibkEP4KIhBPvQSuZ9-39" source="8qgibkEP4KIhBPvQSuZ9-40" target="8qgibkEP4KIhBPvQSuZ9-42" edge="1">
          <mxGeometry relative="1" as="geometry">
            <mxPoint x="15" y="40" as="sourcePoint" />
            <mxPoint x="36" y="160" as="targetPoint" />
            <Array as="points">
              <mxPoint x="15" y="54" />
              <mxPoint x="15" y="159" />
            </Array>
          </mxGeometry>
        </mxCell>
        <mxCell id="8qgibkEP4KIhBPvQSuZ9-44" style="edgeStyle=orthogonalEdgeStyle;rounded=0;orthogonalLoop=1;jettySize=auto;html=1;entryX=0;entryY=0.37;entryDx=-6;entryDy=0;entryPerimeter=0;dashed=1;exitX=0;exitY=0.79;exitDx=-6;exitDy=0;exitPerimeter=0;" parent="8qgibkEP4KIhBPvQSuZ9-39" source="8qgibkEP4KIhBPvQSuZ9-40" target="8qgibkEP4KIhBPvQSuZ9-42" edge="1">
          <mxGeometry relative="1" as="geometry">
            <mxPoint x="25" y="80" as="sourcePoint" />
            <mxPoint x="-33" y="135" as="targetPoint" />
            <Array as="points">
              <mxPoint x="25" y="82" />
              <mxPoint x="25" y="139" />
            </Array>
          </mxGeometry>
        </mxCell>
        <mxCell id="8qgibkEP4KIhBPvQSuZ9-51" value="User Profile Mgmt" style="rounded=1;whiteSpace=wrap;html=1;glass=0;sketch=1;curveFitting=1;jiggle=2;fillStyle=auto;fillWeight=3;disableMultiStroke=0;disableMultiStrokeFill=0;sketchStyle=rough;align=center;verticalAlign=middle;fontFamily=Helvetica;fontSize=12;gradientDirection=north;fillColor=#eeeeee;strokeColor=#36393d;" parent="1" vertex="1">
          <mxGeometry x="349" y="507" width="131" height="20" as="geometry" />
        </mxCell>
        <mxCell id="8qgibkEP4KIhBPvQSuZ9-52" style="edgeStyle=orthogonalEdgeStyle;rounded=0;orthogonalLoop=1;jettySize=auto;html=1;exitX=0;exitY=0.25;exitDx=0;exitDy=0;strokeColor=#000000;dashed=1;dashPattern=8 8;flowAnimation=1;" parent="1" source="8qgibkEP4KIhBPvQSuZ9-7" edge="1">
          <mxGeometry relative="1" as="geometry">
            <Array as="points">
              <mxPoint x="290" y="867" />
              <mxPoint x="290" y="517" />
            </Array>
            <mxPoint x="254" y="827" as="sourcePoint" />
            <mxPoint x="350" y="517" as="targetPoint" />
          </mxGeometry>
        </mxCell>
        <mxCell id="8qgibkEP4KIhBPvQSuZ9-53" value="&lt;span style=&quot;caret-color: rgba(0, 0, 0, 0); color: rgba(0, 0, 0, 0); font-family: monospace; font-size: 0px; text-align: start; background-color: rgb(251, 251, 251);&quot;&gt;%3CmxGraphModel%3E%3Croot%3E%3CmxCell%20id%3D%220%22%2F%3E%3CmxCell%20id%3D%221%22%20parent%3D%220%22%2F%3E%3CmxCell%20id%3D%222%22%20value%3D%22API%20Call%3A%26amp%3Bnbsp%3B%26lt%3Bdiv%26gt%3BGet%20New%20User%20Profile%26lt%3B%2Fdiv%26gt%3B%26lt%3Bdiv%26gt%3BGet%20Updated%20User%20Profile%26lt%3Bbr%26gt%3B%26lt%3B%2Fdiv%26gt%3B%22%20style%3D%22edgeLabel%3Bhtml%3D1%3Balign%3Dcenter%3BverticalAlign%3Dmiddle%3Bresizable%3D0%3Bpoints%3D%5B%5D%3B%22%20vertex%3D%221%22%20connectable%3D%220%22%20parent%3D%221%22%3E%3CmxGeometry%20x%3D%22248%22%20y%3D%22515%22%20as%3D%22geometry%22%2F%3E%3C%2FmxCell%3E%3C%2Froot%3E%3C%2FmxGraphModel%3E&lt;/span&gt;" style="edgeLabel;html=1;align=center;verticalAlign=middle;resizable=0;points=[];" parent="8qgibkEP4KIhBPvQSuZ9-52" vertex="1" connectable="0">
          <mxGeometry x="0.0114" y="-4" relative="1" as="geometry">
            <mxPoint as="offset" />
          </mxGeometry>
        </mxCell>
        <mxCell id="8qgibkEP4KIhBPvQSuZ9-54" value="API Call:&amp;nbsp;&lt;div&gt;Get New User Profile&lt;/div&gt;&lt;div&gt;Get Updated User Profile&lt;/div&gt;" style="edgeLabel;html=1;align=center;verticalAlign=middle;resizable=0;points=[];" parent="8qgibkEP4KIhBPvQSuZ9-52" vertex="1" connectable="0">
          <mxGeometry x="0.0195" y="-3" relative="1" as="geometry">
            <mxPoint x="77" y="119" as="offset" />
          </mxGeometry>
        </mxCell>
        <mxCell id="T3K_JFK7z1kkOa9Re8E--4" style="edgeStyle=orthogonalEdgeStyle;rounded=0;orthogonalLoop=1;jettySize=auto;html=1;entryX=0.5;entryY=0;entryDx=0;entryDy=0;sketch=1;curveFitting=1;jiggle=2;fillColor=#d5e8d4;strokeColor=#82b366;gradientColor=#97d077;" parent="1" source="8qgibkEP4KIhBPvQSuZ9-55" target="8qgibkEP4KIhBPvQSuZ9-3" edge="1">
          <mxGeometry relative="1" as="geometry">
            <Array as="points">
              <mxPoint x="240" y="211" />
              <mxPoint x="240" y="210" />
              <mxPoint x="244" y="210" />
            </Array>
          </mxGeometry>
        </mxCell>
        <mxCell id="8qgibkEP4KIhBPvQSuZ9-55" value="B2C User" style="sketch=0;outlineConnect=0;fontColor=#232F3E;gradientColor=none;fillColor=#232F3D;strokeColor=none;dashed=0;verticalLabelPosition=bottom;verticalAlign=top;align=center;html=1;fontSize=12;fontStyle=1;aspect=fixed;pointerEvents=1;shape=mxgraph.aws4.user;" parent="1" vertex="1">
          <mxGeometry x="380" y="187" width="48" height="48" as="geometry" />
        </mxCell>
        <mxCell id="8qgibkEP4KIhBPvQSuZ9-56" value="(pre-paid) B2B User" style="sketch=0;outlineConnect=0;fontColor=#232F3E;gradientColor=none;fillColor=#232F3D;strokeColor=none;dashed=0;verticalLabelPosition=bottom;verticalAlign=top;align=center;html=1;fontSize=12;fontStyle=1;aspect=fixed;pointerEvents=1;shape=mxgraph.aws4.user;" parent="1" vertex="1">
          <mxGeometry x="490" y="187" width="48" height="48" as="geometry" />
        </mxCell>
        <mxCell id="8qgibkEP4KIhBPvQSuZ9-57" value="" style="shape=image;editableCssRules=.*;verticalLabelPosition=bottom;labelBackgroundColor=default;verticalAlign=top;aspect=fixed;imageAspect=0;image=data:image/svg+xml,PHN2ZyB4bWxucz0iaHR0cDovL3d3dy53My5vcmcvMjAwMC9zdmciIHZpZXdCb3g9Ii0wLjUgLTAuNSAyOCAyOCIgaGVpZ2h0PSIyOCIgd2lkdGg9IjI4Ij4mI3hhOwkgIDxzdHlsZSB0eXBlPSJ0ZXh0L2NzcyI+LnN0MCB7IHN0b3AtY29sb3I6IHJnYigxMDIsIDE3OCwgMjU1KTsgfSAuc3QxIHsgc3RvcC1jb2xvcjogcmdiKDAsIDEyNywgMjU1KTsgfSA8L3N0eWxlPiYjeGE7CTxkZWZzPiYjeGE7CQk8bGluZWFyR3JhZGllbnQgZ3JhZGllbnRVbml0cz0idXNlclNwYWNlT25Vc2UiIHkyPSIyNS4zMDkiIHgyPSIyMy40NTQiIHkxPSIzLjQ3NCIgeDE9IjIuMDM5IiBpZD0iQSI+JiN4YTsJCQk8c3RvcCBjbGFzcz0ic3QwIi8+JiN4YTsJCQk8c3RvcCBjbGFzcz0ic3QxIiBvZmZzZXQ9IjEiLz4mI3hhOwkJPC9saW5lYXJHcmFkaWVudD4mI3hhOwk8L2RlZnM+JiN4YTsJPHBhdGggZmlsbD0idXJsKCNBKSIgZD0iTS0uNSAxMy40NzJjMC0xLjkzLjM3MS0zLjczIDEuMTEzLTUuNC43NDItMS43MDcgMS43NDQtMy4xOTIgMy4wMDYtNC40NTNTNi4zNjUgMS4zNTYgOC4wNzMuNjEzIDExLjU5OC0uNSAxMy41MjgtLjVzMy43My4zNzEgNS40IDEuMTEzYzEuNzA3Ljc0MiAzLjE5MiAxLjc0NCA0LjQ1MyAzLjAwNnMyLjI2NCAyLjc0NiAzLjAwNiA0LjQ1M2MuNzQyIDEuNjcgMS4xMTMgMy40NyAxLjExMyA1LjRzLS4zNzEgMy43NDgtMS4xMTMgNS40NTUtMS43NDQgMy4xOTItMy4wMDYgNC40NTNhMTQuMjggMTQuMjggMCAwIDEtNC40NTMgMy4wMDZjLTEuNjcuNzQyLTMuNDcgMS4xMTMtNS40IDEuMTEzcy0zLjc0OC0uMzcxLTUuNDU1LTEuMTEzYTE0LjI4IDE0LjI4IDAgMCAxLTQuNDUzLTMuMDA2IDE0LjI4IDE0LjI4IDAgMCAxLTMuMDA2LTQuNDUzQy0uMTI5IDE3LjIyLS41IDE1LjQwMi0uNSAxMy40NzJ6bTE2LjgxMSA0LjIzMWE2LjY1IDYuNjUgMCAwIDEgMy4yODQuODM1YzEuMDAyLjUyIDEuODE4IDEuMjQzIDIuNDQ5IDIuMTcxYTEwLjE0IDEwLjE0IDAgMCAwIDEuOTQ4LTMuMjg0Yy40ODItMS4yMjUuNzI0LTIuNTQyLjcyNC0zLjk1MiAwLTEuNTU5LS4yOTctMy4wMDYtLjg5MS00LjM0Mi0uNTk0LTEuMzczLTEuMzkyLTIuNTYxLTIuMzk0LTMuNTYzcy0yLjE5LTEuOC0zLjU2My0yLjM5NGMtMS4zMzYtLjU5NC0yLjc4My0uODkxLTQuMzQyLS44OTFzLTMuMDI0LjI5Ny00LjM5OC44OTFjLTEuMzM2LjU5NC0yLjUyNCAxLjM5Mi0zLjU2MyAyLjM5NEExMS4zNSAxMS4zNSAwIDAgMCAzLjE3NCA5LjEzYy0uNTk0IDEuMzM2LS44OTEgMi43ODMtLjg5MSA0LjM0MiAwIDEuNDEuMjIzIDIuNzI4LjY2OCAzLjk1Mi40ODIgMS4yMjUgMS4xNSAyLjMxOSAyLjAwNCAzLjI4NC42MzEtLjkyOCAxLjQ0Ny0xLjY1MSAyLjQ0OS0yLjE3MWE2LjY1IDYuNjUgMCAwIDEgMy4yODQtLjgzNXptMi43ODMtNy4wMTRhNS42OCA1LjY4IDAgMCAxLS40NDUgMi4yMjcgNS44NyA1Ljg3IDAgMCAxLTEuMjI1IDEuNzgxYy0uNDgyLjQ4Mi0xLjA1OC44NzItMS43MjYgMS4xNjlzLTEuMzkyLjQ0NS0yLjE3MS40NDVhNS42OCA1LjY4IDAgMCAxLTIuMjI3LS40NDUgNi40NCA2LjQ0IDAgMCAxLTEuNzgxLTEuMTY5IDYuNDQgNi40NCAwIDAgMS0xLjE2OS0xLjc4MSA1LjY4IDUuNjggMCAwIDEtLjQ0NS0yLjIyN2MwLS43NzkuMTQ4LTEuNTAzLjQ0NS0yLjE3MUE2LjQ0IDYuNDQgMCAwIDEgOS41MiA2LjczN2E1Ljg3IDUuODcgMCAwIDEgMS43ODEtMS4yMjUgNS42OCA1LjY4IDAgMCAxIDIuMjI3LS40NDVjLjc3OSAwIDEuNTAzLjE0OCAyLjE3MS40NDVzMS4yNDMuNzA1IDEuNzI2IDEuMjI1YTUuODcgNS44NyAwIDAgMSAxLjIyNSAxLjc4MWMuMjk3LjY2OC40NDUgMS4zOTIuNDQ1IDIuMTcxem0tMi43ODMgMGMwLS43NzktLjI3OC0xLjQyOS0uODM1LTEuOTQ4LS41NTctLjU1Ny0xLjIwNi0uODM1LTEuOTQ4LS44MzVhMi43MyAyLjczIDAgMCAwLTIuMDA0LjgzNWMtLjU1Ny41Mi0uODM1IDEuMTY5LS44MzUgMS45NDhhMi43MyAyLjczIDAgMCAwIC44MzUgMi4wMDRjLjU1Ny41MiAxLjIyNS43NzkgMi4wMDQuNzc5Ljc0MiAwIDEuMzkyLS4yNiAxLjk0OC0uNzc5YTIuNzMgMi43MyAwIDAgMCAuODM1LTIuMDA0ek03LjA3MSAyMi42NTdjLjg5MS42MzEgMS44NzQgMS4xMzIgMi45NSAxLjUwMyAxLjExMy4zNzEgMi4yODIuNTU3IDMuNTA3LjU1NyAxLjE4OCAwIDIuMzE5LS4xODYgMy4zOTYtLjU1NyAxLjExMy0uMzcxIDIuMTE1LS44NzIgMy4wMDYtMS41MDMtLjM3MS0uNjY4LS44OTEtMS4xODgtMS41NTktMS41NTktLjYzMS0uNDA4LTEuMzE3LS42MTItMi4wNi0uNjEyaC01LjYyMmMtLjc0MiAwLTEuNDQ3LjIwNC0yLjExNS42MTItLjYzMS4zNzEtMS4xMzIuODkxLTEuNTAzIDEuNTU5eiIvPiYjeGE7PC9zdmc+;imageBackground=default;" parent="1" vertex="1">
          <mxGeometry x="652" y="783" width="28" height="28" as="geometry" />
        </mxCell>
        <mxCell id="8qgibkEP4KIhBPvQSuZ9-58" value="" style="shape=image;editableCssRules=.*;verticalLabelPosition=bottom;labelBackgroundColor=default;verticalAlign=top;aspect=fixed;imageAspect=0;image=data:image/svg+xml,PHN2ZyB4bWxucz0iaHR0cDovL3d3dy53My5vcmcvMjAwMC9zdmciIHZpZXdCb3g9Ii0wLjUgLTAuNSAyOCAyOCIgaGVpZ2h0PSIyOCIgd2lkdGg9IjI4Ij4mI3hhOwkgIDxzdHlsZSB0eXBlPSJ0ZXh0L2NzcyI+LnN0MCB7IHN0b3AtY29sb3I6IHJnYigxMDIsIDE3OCwgMjU1KTsgfSAuc3QxIHsgc3RvcC1jb2xvcjogcmdiKDAsIDEyNywgMjU1KTsgfSA8L3N0eWxlPiYjeGE7CTxkZWZzPiYjeGE7CQk8bGluZWFyR3JhZGllbnQgZ3JhZGllbnRVbml0cz0idXNlclNwYWNlT25Vc2UiIHkyPSIyNS4zMDkiIHgyPSIyMy40NTQiIHkxPSIzLjQ3NCIgeDE9IjIuMDM5IiBpZD0iQSI+JiN4YTsJCQk8c3RvcCBjbGFzcz0ic3QwIi8+JiN4YTsJCQk8c3RvcCBjbGFzcz0ic3QxIiBvZmZzZXQ9IjEiLz4mI3hhOwkJPC9saW5lYXJHcmFkaWVudD4mI3hhOwk8L2RlZnM+JiN4YTsJPHBhdGggZmlsbD0idXJsKCNBKSIgZD0iTS0uNSAxMy40NzJjMC0xLjkzLjM3MS0zLjczIDEuMTEzLTUuNC43NDItMS43MDcgMS43NDQtMy4xOTIgMy4wMDYtNC40NTNTNi4zNjUgMS4zNTYgOC4wNzMuNjEzIDExLjU5OC0uNSAxMy41MjgtLjVzMy43My4zNzEgNS40IDEuMTEzYzEuNzA3Ljc0MiAzLjE5MiAxLjc0NCA0LjQ1MyAzLjAwNnMyLjI2NCAyLjc0NiAzLjAwNiA0LjQ1M2MuNzQyIDEuNjcgMS4xMTMgMy40NyAxLjExMyA1LjRzLS4zNzEgMy43NDgtMS4xMTMgNS40NTUtMS43NDQgMy4xOTItMy4wMDYgNC40NTNhMTQuMjggMTQuMjggMCAwIDEtNC40NTMgMy4wMDZjLTEuNjcuNzQyLTMuNDcgMS4xMTMtNS40IDEuMTEzcy0zLjc0OC0uMzcxLTUuNDU1LTEuMTEzYTE0LjI4IDE0LjI4IDAgMCAxLTQuNDUzLTMuMDA2IDE0LjI4IDE0LjI4IDAgMCAxLTMuMDA2LTQuNDUzQy0uMTI5IDE3LjIyLS41IDE1LjQwMi0uNSAxMy40NzJ6bTE2LjgxMSA0LjIzMWE2LjY1IDYuNjUgMCAwIDEgMy4yODQuODM1YzEuMDAyLjUyIDEuODE4IDEuMjQzIDIuNDQ5IDIuMTcxYTEwLjE0IDEwLjE0IDAgMCAwIDEuOTQ4LTMuMjg0Yy40ODItMS4yMjUuNzI0LTIuNTQyLjcyNC0zLjk1MiAwLTEuNTU5LS4yOTctMy4wMDYtLjg5MS00LjM0Mi0uNTk0LTEuMzczLTEuMzkyLTIuNTYxLTIuMzk0LTMuNTYzcy0yLjE5LTEuOC0zLjU2My0yLjM5NGMtMS4zMzYtLjU5NC0yLjc4My0uODkxLTQuMzQyLS44OTFzLTMuMDI0LjI5Ny00LjM5OC44OTFjLTEuMzM2LjU5NC0yLjUyNCAxLjM5Mi0zLjU2MyAyLjM5NEExMS4zNSAxMS4zNSAwIDAgMCAzLjE3NCA5LjEzYy0uNTk0IDEuMzM2LS44OTEgMi43ODMtLjg5MSA0LjM0MiAwIDEuNDEuMjIzIDIuNzI4LjY2OCAzLjk1Mi40ODIgMS4yMjUgMS4xNSAyLjMxOSAyLjAwNCAzLjI4NC42MzEtLjkyOCAxLjQ0Ny0xLjY1MSAyLjQ0OS0yLjE3MWE2LjY1IDYuNjUgMCAwIDEgMy4yODQtLjgzNXptMi43ODMtNy4wMTRhNS42OCA1LjY4IDAgMCAxLS40NDUgMi4yMjcgNS44NyA1Ljg3IDAgMCAxLTEuMjI1IDEuNzgxYy0uNDgyLjQ4Mi0xLjA1OC44NzItMS43MjYgMS4xNjlzLTEuMzkyLjQ0NS0yLjE3MS40NDVhNS42OCA1LjY4IDAgMCAxLTIuMjI3LS40NDUgNi40NCA2LjQ0IDAgMCAxLTEuNzgxLTEuMTY5IDYuNDQgNi40NCAwIDAgMS0xLjE2OS0xLjc4MSA1LjY4IDUuNjggMCAwIDEtLjQ0NS0yLjIyN2MwLS43NzkuMTQ4LTEuNTAzLjQ0NS0yLjE3MUE2LjQ0IDYuNDQgMCAwIDEgOS41MiA2LjczN2E1Ljg3IDUuODcgMCAwIDEgMS43ODEtMS4yMjUgNS42OCA1LjY4IDAgMCAxIDIuMjI3LS40NDVjLjc3OSAwIDEuNTAzLjE0OCAyLjE3MS40NDVzMS4yNDMuNzA1IDEuNzI2IDEuMjI1YTUuODcgNS44NyAwIDAgMSAxLjIyNSAxLjc4MWMuMjk3LjY2OC40NDUgMS4zOTIuNDQ1IDIuMTcxem0tMi43ODMgMGMwLS43NzktLjI3OC0xLjQyOS0uODM1LTEuOTQ4LS41NTctLjU1Ny0xLjIwNi0uODM1LTEuOTQ4LS44MzVhMi43MyAyLjczIDAgMCAwLTIuMDA0LjgzNWMtLjU1Ny41Mi0uODM1IDEuMTY5LS44MzUgMS45NDhhMi43MyAyLjczIDAgMCAwIC44MzUgMi4wMDRjLjU1Ny41MiAxLjIyNS43NzkgMi4wMDQuNzc5Ljc0MiAwIDEuMzkyLS4yNiAxLjk0OC0uNzc5YTIuNzMgMi43MyAwIDAgMCAuODM1LTIuMDA0ek03LjA3MSAyMi42NTdjLjg5MS42MzEgMS44NzQgMS4xMzIgMi45NSAxLjUwMyAxLjExMy4zNzEgMi4yODIuNTU3IDMuNTA3LjU1NyAxLjE4OCAwIDIuMzE5LS4xODYgMy4zOTYtLjU1NyAxLjExMy0uMzcxIDIuMTE1LS44NzIgMy4wMDYtMS41MDMtLjM3MS0uNjY4LS44OTEtMS4xODgtMS41NTktMS41NTktLjYzMS0uNDA4LTEuMzE3LS42MTItMi4wNi0uNjEyaC01LjYyMmMtLjc0MiAwLTEuNDQ3LjIwNC0yLjExNS42MTItLjYzMS4zNzEtMS4xMzIuODkxLTEuNTAzIDEuNTU5eiIvPiYjeGE7PC9zdmc+;imageBackground=default;" parent="1" vertex="1">
          <mxGeometry x="349" y="477" width="28" height="28" as="geometry" />
        </mxCell>
        <mxCell id="8qgibkEP4KIhBPvQSuZ9-60" value="&lt;h1 style=&quot;margin-top: 0px;&quot;&gt;&lt;b style=&quot;font-size: 12px;&quot;&gt;Paying customer with registered account&lt;/b&gt;&lt;br&gt;&lt;/h1&gt;&lt;p&gt;&lt;b&gt;(1) &lt;/b&gt;B2C user registration happens via the product sales flow. (&lt;b&gt;2)&lt;/b&gt; Common user profile data is captured by Walley, or in the Secondary use case pre-populated via the Enterprise adapter.&amp;nbsp;&lt;b&gt;(3)&lt;/b&gt;&amp;nbsp;consumed and stored in Auth0. &lt;b&gt;(4)&lt;/b&gt; Data is published to downstream systems via events on Event Mesh. &lt;b&gt;(5)&lt;/b&gt; Common user profile data is consumed, &lt;b&gt;(6)&lt;/b&gt; cached&amp;nbsp;and &lt;b&gt;(7) &lt;/b&gt;extended in downstream systems.&lt;/p&gt;" style="text;html=1;whiteSpace=wrap;overflow=hidden;rounded=0;" parent="1" vertex="1">
          <mxGeometry x="10" width="340" height="180" as="geometry" />
        </mxCell>
        <mxCell id="8qgibkEP4KIhBPvQSuZ9-61" value="User Federation Mgmt" style="rounded=1;whiteSpace=wrap;html=1;sketch=1;curveFitting=1;jiggle=2;fillStyle=auto;glass=0;fillWeight=3;disableMultiStroke=0;disableMultiStrokeFill=0;sketchStyle=rough;align=center;verticalAlign=middle;fontFamily=Helvetica;fontSize=12;gradientDirection=north;fillColor=#eeeeee;strokeColor=#36393d;" parent="1" vertex="1">
          <mxGeometry x="578" y="357" width="130" height="20" as="geometry" />
        </mxCell>
        <mxCell id="8qgibkEP4KIhBPvQSuZ9-65" value="3" style="ellipse;whiteSpace=wrap;html=1;aspect=fixed;rotation=0;gradientColor=#223548;strokeColor=none;gradientDirection=east;fillColor=#5b738b;rounded=0;pointerEvents=0;fontFamily=Helvetica;fontSize=16;fontColor=#FFFFFF;spacingTop=4;spacingBottom=4;spacingLeft=4;spacingRight=4;points=[];fontStyle=1" parent="1" vertex="1">
          <mxGeometry x="444" y="481" width="30" height="30" as="geometry" />
        </mxCell>
        <mxCell id="8qgibkEP4KIhBPvQSuZ9-67" value="4" style="ellipse;whiteSpace=wrap;html=1;aspect=fixed;rotation=0;gradientColor=#223548;strokeColor=none;gradientDirection=east;fillColor=#5b738b;rounded=0;pointerEvents=0;fontFamily=Helvetica;fontSize=16;fontColor=#FFFFFF;spacingTop=4;spacingBottom=4;spacingLeft=4;spacingRight=4;points=[];fontStyle=1" parent="1" vertex="1">
          <mxGeometry x="500" y="517" width="30" height="30" as="geometry" />
        </mxCell>
        <mxCell id="8qgibkEP4KIhBPvQSuZ9-69" value="5" style="ellipse;whiteSpace=wrap;html=1;aspect=fixed;rotation=0;gradientColor=#223548;strokeColor=none;gradientDirection=east;fillColor=#5b738b;rounded=0;pointerEvents=0;fontFamily=Helvetica;fontSize=16;fontColor=#FFFFFF;spacingTop=4;spacingBottom=4;spacingLeft=4;spacingRight=4;points=[];fontStyle=1" parent="1" vertex="1">
          <mxGeometry x="500" y="830" width="30" height="30" as="geometry" />
        </mxCell>
        <mxCell id="8qgibkEP4KIhBPvQSuZ9-71" value="" style="shape=image;editableCssRules=.*;verticalLabelPosition=bottom;labelBackgroundColor=default;verticalAlign=top;aspect=fixed;imageAspect=0;image=data:image/svg+xml,PHN2ZyB4bWxucz0iaHR0cDovL3d3dy53My5vcmcvMjAwMC9zdmciIHZpZXdCb3g9Ii0wLjUgLTAuNSAyOCAyOCIgaGVpZ2h0PSIyOCIgd2lkdGg9IjI4Ij4mI3hhOwkgIDxzdHlsZSB0eXBlPSJ0ZXh0L2NzcyI+LnN0MCB7IHN0b3AtY29sb3I6IHJnYigyNDEsIDE1NiwgMTUzKTsgfSAuc3QxIHsgc3RvcC1jb2xvcjogcmdiKDIzNCwgMTA3LCAxMDIpOyB9IDwvc3R5bGU+JiN4YTsJPGRlZnM+JiN4YTsJCTxsaW5lYXJHcmFkaWVudCBncmFkaWVudFVuaXRzPSJ1c2VyU3BhY2VPblVzZSIgeTI9IjI1LjMwOSIgeDI9IjIzLjQ1NCIgeTE9IjMuNDc0IiB4MT0iMi4wMzkiIGlkPSJBIj4mI3hhOwkJCTxzdG9wIGNsYXNzPSJzdDAiLz4mI3hhOwkJCTxzdG9wIGNsYXNzPSJzdDEiIG9mZnNldD0iMSIvPiYjeGE7CQk8L2xpbmVhckdyYWRpZW50PiYjeGE7CTwvZGVmcz4mI3hhOwk8cGF0aCBmaWxsPSJ1cmwoI0EpIiBkPSJNLS41IDEzLjQ3MmMwLTEuOTMuMzcxLTMuNzMgMS4xMTMtNS40Ljc0Mi0xLjcwNyAxLjc0NC0zLjE5MiAzLjAwNi00LjQ1M1M2LjM2NSAxLjM1NiA4LjA3My42MTMgMTEuNTk4LS41IDEzLjUyOC0uNXMzLjczLjM3MSA1LjQgMS4xMTNjMS43MDcuNzQyIDMuMTkyIDEuNzQ0IDQuNDUzIDMuMDA2czIuMjY0IDIuNzQ2IDMuMDA2IDQuNDUzYy43NDIgMS42NyAxLjExMyAzLjQ3IDEuMTEzIDUuNHMtLjM3MSAzLjc0OC0xLjExMyA1LjQ1NS0xLjc0NCAzLjE5Mi0zLjAwNiA0LjQ1M2ExNC4yOCAxNC4yOCAwIDAgMS00LjQ1MyAzLjAwNmMtMS42Ny43NDItMy40NyAxLjExMy01LjQgMS4xMTNzLTMuNzQ4LS4zNzEtNS40NTUtMS4xMTNhMTQuMjggMTQuMjggMCAwIDEtNC40NTMtMy4wMDYgMTQuMjggMTQuMjggMCAwIDEtMy4wMDYtNC40NTNDLS4xMjkgMTcuMjItLjUgMTUuNDAyLS41IDEzLjQ3MnptMTYuODExIDQuMjMxYTYuNjUgNi42NSAwIDAgMSAzLjI4NC44MzVjMS4wMDIuNTIgMS44MTggMS4yNDMgMi40NDkgMi4xNzFhMTAuMTQgMTAuMTQgMCAwIDAgMS45NDgtMy4yODRjLjQ4Mi0xLjIyNS43MjQtMi41NDIuNzI0LTMuOTUyIDAtMS41NTktLjI5Ny0zLjAwNi0uODkxLTQuMzQyLS41OTQtMS4zNzMtMS4zOTItMi41NjEtMi4zOTQtMy41NjNzLTIuMTktMS44LTMuNTYzLTIuMzk0Yy0xLjMzNi0uNTk0LTIuNzgzLS44OTEtNC4zNDItLjg5MXMtMy4wMjQuMjk3LTQuMzk4Ljg5MWMtMS4zMzYuNTk0LTIuNTI0IDEuMzkyLTMuNTYzIDIuMzk0QTExLjM1IDExLjM1IDAgMCAwIDMuMTc0IDkuMTNjLS41OTQgMS4zMzYtLjg5MSAyLjc4My0uODkxIDQuMzQyIDAgMS40MS4yMjMgMi43MjguNjY4IDMuOTUyLjQ4MiAxLjIyNSAxLjE1IDIuMzE5IDIuMDA0IDMuMjg0LjYzMS0uOTI4IDEuNDQ3LTEuNjUxIDIuNDQ5LTIuMTcxYTYuNjUgNi42NSAwIDAgMSAzLjI4NC0uODM1em0yLjc4My03LjAxNGE1LjY4IDUuNjggMCAwIDEtLjQ0NSAyLjIyNyA1Ljg3IDUuODcgMCAwIDEtMS4yMjUgMS43ODFjLS40ODIuNDgyLTEuMDU4Ljg3Mi0xLjcyNiAxLjE2OXMtMS4zOTIuNDQ1LTIuMTcxLjQ0NWE1LjY4IDUuNjggMCAwIDEtMi4yMjctLjQ0NSA2LjQ0IDYuNDQgMCAwIDEtMS43ODEtMS4xNjkgNi40NCA2LjQ0IDAgMCAxLTEuMTY5LTEuNzgxIDUuNjggNS42OCAwIDAgMS0uNDQ1LTIuMjI3YzAtLjc3OS4xNDgtMS41MDMuNDQ1LTIuMTcxQTYuNDQgNi40NCAwIDAgMSA5LjUyIDYuNzM3YTUuODcgNS44NyAwIDAgMSAxLjc4MS0xLjIyNSA1LjY4IDUuNjggMCAwIDEgMi4yMjctLjQ0NWMuNzc5IDAgMS41MDMuMTQ4IDIuMTcxLjQ0NXMxLjI0My43MDUgMS43MjYgMS4yMjVhNS44NyA1Ljg3IDAgMCAxIDEuMjI1IDEuNzgxYy4yOTcuNjY4LjQ0NSAxLjM5Mi40NDUgMi4xNzF6bS0yLjc4MyAwYzAtLjc3OS0uMjc4LTEuNDI5LS44MzUtMS45NDgtLjU1Ny0uNTU3LTEuMjA2LS44MzUtMS45NDgtLjgzNWEyLjczIDIuNzMgMCAwIDAtMi4wMDQuODM1Yy0uNTU3LjUyLS44MzUgMS4xNjktLjgzNSAxLjk0OGEyLjczIDIuNzMgMCAwIDAgLjgzNSAyLjAwNGMuNTU3LjUyIDEuMjI1Ljc3OSAyLjAwNC43NzkuNzQyIDAgMS4zOTItLjI2IDEuOTQ4LS43NzlhMi43MyAyLjczIDAgMCAwIC44MzUtMi4wMDR6TTcuMDcxIDIyLjY1N2MuODkxLjYzMSAxLjg3NCAxLjEzMiAyLjk1IDEuNTAzIDEuMTEzLjM3MSAyLjI4Mi41NTcgMy41MDcuNTU3IDEuMTg4IDAgMi4zMTktLjE4NiAzLjM5Ni0uNTU3IDEuMTEzLS4zNzEgMi4xMTUtLjg3MiAzLjAwNi0xLjUwMy0uMzcxLS42NjgtLjg5MS0xLjE4OC0xLjU1OS0xLjU1OS0uNjMxLS40MDgtMS4zMTctLjYxMi0yLjA2LS42MTJoLTUuNjIyYy0uNzQyIDAtMS40NDcuMjA0LTIuMTE1LjYxMi0uNjMxLjM3MS0xLjEzMi44OTEtMS41MDMgMS41NTl6Ii8+JiN4YTs8L3N2Zz4=;imageBackground=default;" parent="1" vertex="1">
          <mxGeometry x="699" y="783" width="28" height="28" as="geometry" />
        </mxCell>
        <mxCell id="8qgibkEP4KIhBPvQSuZ9-72" value="" style="strokeWidth=2;html=1;shape=mxgraph.flowchart.database;whiteSpace=wrap;strokeColor=#007FFF;" parent="1" vertex="1">
          <mxGeometry x="380" y="481" width="30" height="20" as="geometry" />
        </mxCell>
        <mxCell id="8qgibkEP4KIhBPvQSuZ9-75" value="" style="strokeWidth=1;html=1;shape=mxgraph.flowchart.database;whiteSpace=wrap;dashed=1;dashPattern=1 2;strokeColor=#007FFF;" parent="1" vertex="1">
          <mxGeometry x="650" y="817" width="30" height="20" as="geometry" />
        </mxCell>
        <mxCell id="8qgibkEP4KIhBPvQSuZ9-76" value="" style="strokeWidth=2;html=1;shape=mxgraph.flowchart.database;whiteSpace=wrap;strokeColor=#EA6B66;" parent="1" vertex="1">
          <mxGeometry x="699" y="817" width="30" height="20" as="geometry" />
        </mxCell>
        <mxCell id="T3K_JFK7z1kkOa9Re8E--9" style="edgeStyle=orthogonalEdgeStyle;rounded=0;orthogonalLoop=1;jettySize=auto;html=1;entryX=0;entryY=0.5;entryDx=0;entryDy=0;exitX=0.5;exitY=0.983;exitDx=0;exitDy=0;sketch=1;curveFitting=1;jiggle=2;fillColor=#d5e8d4;strokeColor=#82b366;gradientColor=#97d077;exitPerimeter=0;" parent="1" source="8qgibkEP4KIhBPvQSuZ9-64" target="8qgibkEP4KIhBPvQSuZ9-16" edge="1">
          <mxGeometry relative="1" as="geometry">
            <mxPoint x="150" y="617" as="sourcePoint" />
          </mxGeometry>
        </mxCell>
        <mxCell id="T3K_JFK7z1kkOa9Re8E--10" value="Event:&amp;nbsp;&lt;div&gt;User Profile&amp;nbsp;&lt;/div&gt;&lt;div&gt;Data Capture&lt;/div&gt;" style="edgeLabel;html=1;align=center;verticalAlign=middle;resizable=0;points=[];" parent="T3K_JFK7z1kkOa9Re8E--9" vertex="1" connectable="0">
          <mxGeometry x="-0.1375" y="1" relative="1" as="geometry">
            <mxPoint x="-49" y="1" as="offset" />
          </mxGeometry>
        </mxCell>
        <mxCell id="T3K_JFK7z1kkOa9Re8E--2" value="Check Out &amp;amp; Payment Management" style="rounded=1;whiteSpace=wrap;html=1;sketch=1;curveFitting=1;jiggle=2;fillStyle=auto;glass=0;fillWeight=3;disableMultiStroke=0;disableMultiStrokeFill=0;sketchStyle=rough;align=center;verticalAlign=middle;fontFamily=Helvetica;fontSize=12;gradientDirection=north;fillColor=#eeeeee;strokeColor=#36393d;" parent="1" vertex="1">
          <mxGeometry x="110" y="551.5" width="130" height="35.5" as="geometry" />
        </mxCell>
        <mxCell id="T3K_JFK7z1kkOa9Re8E--11" style="edgeStyle=orthogonalEdgeStyle;rounded=0;orthogonalLoop=1;jettySize=auto;html=1;strokeColor=#000000;entryX=1;entryY=0.5;entryDx=0;entryDy=0;sketch=1;curveFitting=1;jiggle=2;exitX=0.967;exitY=0.467;exitDx=0;exitDy=0;exitPerimeter=0;" parent="1" source="3Cpb6p6IqoMU9a2Gz5XD-1" target="8qgibkEP4KIhBPvQSuZ9-16" edge="1">
          <mxGeometry relative="1" as="geometry">
            <mxPoint x="720" y="500" as="sourcePoint" />
            <mxPoint x="524" y="772" as="targetPoint" />
            <Array as="points">
              <mxPoint x="720" y="501" />
              <mxPoint x="720" y="722" />
            </Array>
          </mxGeometry>
        </mxCell>
        <mxCell id="T3K_JFK7z1kkOa9Re8E--12" value="Event Listener:&amp;nbsp;&lt;div&gt;#ExternalUserProfile Topics&lt;/div&gt;" style="edgeLabel;html=1;align=center;verticalAlign=middle;resizable=0;points=[];" parent="T3K_JFK7z1kkOa9Re8E--11" vertex="1" connectable="0">
          <mxGeometry x="0.19" y="-2" relative="1" as="geometry">
            <mxPoint x="-41" y="-163" as="offset" />
          </mxGeometry>
        </mxCell>
        <mxCell id="7kCnIFDjgbVqlDO9NK-F-1" value="6" style="ellipse;whiteSpace=wrap;html=1;aspect=fixed;rotation=0;gradientColor=#223548;strokeColor=none;gradientDirection=east;fillColor=#5b738b;rounded=0;pointerEvents=0;fontFamily=Helvetica;fontSize=16;fontColor=#FFFFFF;spacingTop=4;spacingBottom=4;spacingLeft=4;spacingRight=4;points=[];fontStyle=1" parent="1" vertex="1">
          <mxGeometry x="538" y="830" width="30" height="30" as="geometry" />
        </mxCell>
        <mxCell id="3Cpb6p6IqoMU9a2Gz5XD-2" value="Primary use case" style="text;html=1;align=center;verticalAlign=middle;whiteSpace=wrap;rounded=0;fillColor=#d5e8d4;strokeColor=#82b366;sketch=1;curveFitting=1;jiggle=2;fillStyle=auto;gradientColor=#97d077;fontStyle=1" parent="1" vertex="1">
          <mxGeometry x="317" y="170" width="60" height="30" as="geometry" />
        </mxCell>
        <mxCell id="Uq1pCeKUHMeNmKVQieHc-7" style="edgeStyle=orthogonalEdgeStyle;rounded=0;orthogonalLoop=1;jettySize=auto;html=1;entryX=1;entryY=0.5;entryDx=0;entryDy=0;fillColor=#fff2cc;strokeColor=#d6b656;sketch=1;curveFitting=1;jiggle=2;gradientColor=#ffd966;" parent="1" source="Uq1pCeKUHMeNmKVQieHc-2" target="8qgibkEP4KIhBPvQSuZ9-23" edge="1">
          <mxGeometry relative="1" as="geometry">
            <Array as="points">
              <mxPoint x="790" y="180" />
              <mxPoint x="790" y="327" />
            </Array>
          </mxGeometry>
        </mxCell>
        <mxCell id="Uq1pCeKUHMeNmKVQieHc-8" value="User&amp;nbsp;&lt;div&gt;profile&amp;nbsp;&lt;/div&gt;&lt;div&gt;data&lt;/div&gt;" style="edgeLabel;html=1;align=center;verticalAlign=middle;resizable=0;points=[];" parent="Uq1pCeKUHMeNmKVQieHc-7" vertex="1" connectable="0">
          <mxGeometry x="0.0998" relative="1" as="geometry">
            <mxPoint as="offset" />
          </mxGeometry>
        </mxCell>
        <mxCell id="Uq1pCeKUHMeNmKVQieHc-2" value="Göteborgs Energi" style="sketch=0;outlineConnect=0;fontColor=#232F3E;gradientColor=none;fillColor=#232F3D;strokeColor=none;dashed=0;verticalLabelPosition=bottom;verticalAlign=top;align=center;html=1;fontSize=12;fontStyle=0;aspect=fixed;pointerEvents=1;shape=mxgraph.aws4.office_building;" parent="1" vertex="1">
          <mxGeometry x="695" y="130" width="50" height="78" as="geometry" />
        </mxCell>
        <mxCell id="S20N0frMvKcGpQsej0k3-2" style="edgeStyle=orthogonalEdgeStyle;rounded=0;orthogonalLoop=1;jettySize=auto;html=1;sketch=1;curveFitting=1;jiggle=2;curved=1;entryX=0;entryY=0.5;entryDx=0;entryDy=0;" parent="1" source="LZEgFXu-dzcTSyENN5qA-2" target="S20N0frMvKcGpQsej0k3-1" edge="1">
          <mxGeometry relative="1" as="geometry">
            <Array as="points">
              <mxPoint x="690" y="750" />
            </Array>
          </mxGeometry>
        </mxCell>
        <mxCell id="LZEgFXu-dzcTSyENN5qA-2" value="+" style="text;html=1;align=center;verticalAlign=middle;whiteSpace=wrap;rounded=0;fontSize=15;fontStyle=1" parent="1" vertex="1">
          <mxGeometry x="680" y="781" width="20" height="30" as="geometry" />
        </mxCell>
        <mxCell id="LZEgFXu-dzcTSyENN5qA-11" value="" style="group" parent="1" vertex="1" connectable="0">
          <mxGeometry x="34" y="881" width="186" height="120" as="geometry" />
        </mxCell>
        <mxCell id="LZEgFXu-dzcTSyENN5qA-3" value="" style="shape=image;editableCssRules=.*;verticalLabelPosition=bottom;labelBackgroundColor=default;verticalAlign=top;aspect=fixed;imageAspect=0;image=data:image/svg+xml,PHN2ZyB4bWxucz0iaHR0cDovL3d3dy53My5vcmcvMjAwMC9zdmciIHZpZXdCb3g9Ii0wLjUgLTAuNSAyOCAyOCIgaGVpZ2h0PSIyOCIgd2lkdGg9IjI4Ij4mI3hhOwkgIDxzdHlsZSB0eXBlPSJ0ZXh0L2NzcyI+LnN0MCB7IHN0b3AtY29sb3I6IHJnYigxMDIsIDE3OCwgMjU1KTsgfSAuc3QxIHsgc3RvcC1jb2xvcjogcmdiKDAsIDEyNywgMjU1KTsgfSA8L3N0eWxlPiYjeGE7CTxkZWZzPiYjeGE7CQk8bGluZWFyR3JhZGllbnQgZ3JhZGllbnRVbml0cz0idXNlclNwYWNlT25Vc2UiIHkyPSIyNS4zMDkiIHgyPSIyMy40NTQiIHkxPSIzLjQ3NCIgeDE9IjIuMDM5IiBpZD0iQSI+JiN4YTsJCQk8c3RvcCBjbGFzcz0ic3QwIi8+JiN4YTsJCQk8c3RvcCBjbGFzcz0ic3QxIiBvZmZzZXQ9IjEiLz4mI3hhOwkJPC9saW5lYXJHcmFkaWVudD4mI3hhOwk8L2RlZnM+JiN4YTsJPHBhdGggZmlsbD0idXJsKCNBKSIgZD0iTS0uNSAxMy40NzJjMC0xLjkzLjM3MS0zLjczIDEuMTEzLTUuNC43NDItMS43MDcgMS43NDQtMy4xOTIgMy4wMDYtNC40NTNTNi4zNjUgMS4zNTYgOC4wNzMuNjEzIDExLjU5OC0uNSAxMy41MjgtLjVzMy43My4zNzEgNS40IDEuMTEzYzEuNzA3Ljc0MiAzLjE5MiAxLjc0NCA0LjQ1MyAzLjAwNnMyLjI2NCAyLjc0NiAzLjAwNiA0LjQ1M2MuNzQyIDEuNjcgMS4xMTMgMy40NyAxLjExMyA1LjRzLS4zNzEgMy43NDgtMS4xMTMgNS40NTUtMS43NDQgMy4xOTItMy4wMDYgNC40NTNhMTQuMjggMTQuMjggMCAwIDEtNC40NTMgMy4wMDZjLTEuNjcuNzQyLTMuNDcgMS4xMTMtNS40IDEuMTEzcy0zLjc0OC0uMzcxLTUuNDU1LTEuMTEzYTE0LjI4IDE0LjI4IDAgMCAxLTQuNDUzLTMuMDA2IDE0LjI4IDE0LjI4IDAgMCAxLTMuMDA2LTQuNDUzQy0uMTI5IDE3LjIyLS41IDE1LjQwMi0uNSAxMy40NzJ6bTE2LjgxMSA0LjIzMWE2LjY1IDYuNjUgMCAwIDEgMy4yODQuODM1YzEuMDAyLjUyIDEuODE4IDEuMjQzIDIuNDQ5IDIuMTcxYTEwLjE0IDEwLjE0IDAgMCAwIDEuOTQ4LTMuMjg0Yy40ODItMS4yMjUuNzI0LTIuNTQyLjcyNC0zLjk1MiAwLTEuNTU5LS4yOTctMy4wMDYtLjg5MS00LjM0Mi0uNTk0LTEuMzczLTEuMzkyLTIuNTYxLTIuMzk0LTMuNTYzcy0yLjE5LTEuOC0zLjU2My0yLjM5NGMtMS4zMzYtLjU5NC0yLjc4My0uODkxLTQuMzQyLS44OTFzLTMuMDI0LjI5Ny00LjM5OC44OTFjLTEuMzM2LjU5NC0yLjUyNCAxLjM5Mi0zLjU2MyAyLjM5NEExMS4zNSAxMS4zNSAwIDAgMCAzLjE3NCA5LjEzYy0uNTk0IDEuMzM2LS44OTEgMi43ODMtLjg5MSA0LjM0MiAwIDEuNDEuMjIzIDIuNzI4LjY2OCAzLjk1Mi40ODIgMS4yMjUgMS4xNSAyLjMxOSAyLjAwNCAzLjI4NC42MzEtLjkyOCAxLjQ0Ny0xLjY1MSAyLjQ0OS0yLjE3MWE2LjY1IDYuNjUgMCAwIDEgMy4yODQtLjgzNXptMi43ODMtNy4wMTRhNS42OCA1LjY4IDAgMCAxLS40NDUgMi4yMjcgNS44NyA1Ljg3IDAgMCAxLTEuMjI1IDEuNzgxYy0uNDgyLjQ4Mi0xLjA1OC44NzItMS43MjYgMS4xNjlzLTEuMzkyLjQ0NS0yLjE3MS40NDVhNS42OCA1LjY4IDAgMCAxLTIuMjI3LS40NDUgNi40NCA2LjQ0IDAgMCAxLTEuNzgxLTEuMTY5IDYuNDQgNi40NCAwIDAgMS0xLjE2OS0xLjc4MSA1LjY4IDUuNjggMCAwIDEtLjQ0NS0yLjIyN2MwLS43NzkuMTQ4LTEuNTAzLjQ0NS0yLjE3MUE2LjQ0IDYuNDQgMCAwIDEgOS41MiA2LjczN2E1Ljg3IDUuODcgMCAwIDEgMS43ODEtMS4yMjUgNS42OCA1LjY4IDAgMCAxIDIuMjI3LS40NDVjLjc3OSAwIDEuNTAzLjE0OCAyLjE3MS40NDVzMS4yNDMuNzA1IDEuNzI2IDEuMjI1YTUuODcgNS44NyAwIDAgMSAxLjIyNSAxLjc4MWMuMjk3LjY2OC40NDUgMS4zOTIuNDQ1IDIuMTcxem0tMi43ODMgMGMwLS43NzktLjI3OC0xLjQyOS0uODM1LTEuOTQ4LS41NTctLjU1Ny0xLjIwNi0uODM1LTEuOTQ4LS44MzVhMi43MyAyLjczIDAgMCAwLTIuMDA0LjgzNWMtLjU1Ny41Mi0uODM1IDEuMTY5LS44MzUgMS45NDhhMi43MyAyLjczIDAgMCAwIC44MzUgMi4wMDRjLjU1Ny41MiAxLjIyNS43NzkgMi4wMDQuNzc5Ljc0MiAwIDEuMzkyLS4yNiAxLjk0OC0uNzc5YTIuNzMgMi43MyAwIDAgMCAuODM1LTIuMDA0ek03LjA3MSAyMi42NTdjLjg5MS42MzEgMS44NzQgMS4xMzIgMi45NSAxLjUwMyAxLjExMy4zNzEgMi4yODIuNTU3IDMuNTA3LjU1NyAxLjE4OCAwIDIuMzE5LS4xODYgMy4zOTYtLjU1NyAxLjExMy0uMzcxIDIuMTE1LS44NzIgMy4wMDYtMS41MDMtLjM3MS0uNjY4LS44OTEtMS4xODgtMS41NTktMS41NTktLjYzMS0uNDA4LTEuMzE3LS42MTItMi4wNi0uNjEyaC01LjYyMmMtLjc0MiAwLTEuNDQ3LjIwNC0yLjExNS42MTItLjYzMS4zNzEtMS4xMzIuODkxLTEuNTAzIDEuNTU5eiIvPiYjeGE7PC9zdmc+;imageBackground=default;" parent="LZEgFXu-dzcTSyENN5qA-11" vertex="1">
          <mxGeometry x="6" y="46" width="28" height="28" as="geometry" />
        </mxCell>
        <mxCell id="LZEgFXu-dzcTSyENN5qA-4" value="" style="shape=image;editableCssRules=.*;verticalLabelPosition=bottom;labelBackgroundColor=default;verticalAlign=top;aspect=fixed;imageAspect=0;image=data:image/svg+xml,PHN2ZyB4bWxucz0iaHR0cDovL3d3dy53My5vcmcvMjAwMC9zdmciIHZpZXdCb3g9Ii0wLjUgLTAuNSAyOCAyOCIgaGVpZ2h0PSIyOCIgd2lkdGg9IjI4Ij4mI3hhOwkgIDxzdHlsZSB0eXBlPSJ0ZXh0L2NzcyI+LnN0MCB7IHN0b3AtY29sb3I6IHJnYigyNDEsIDE1NiwgMTUzKTsgfSAuc3QxIHsgc3RvcC1jb2xvcjogcmdiKDIzNCwgMTA3LCAxMDIpOyB9IDwvc3R5bGU+JiN4YTsJPGRlZnM+JiN4YTsJCTxsaW5lYXJHcmFkaWVudCBncmFkaWVudFVuaXRzPSJ1c2VyU3BhY2VPblVzZSIgeTI9IjI1LjMwOSIgeDI9IjIzLjQ1NCIgeTE9IjMuNDc0IiB4MT0iMi4wMzkiIGlkPSJBIj4mI3hhOwkJCTxzdG9wIGNsYXNzPSJzdDAiLz4mI3hhOwkJCTxzdG9wIGNsYXNzPSJzdDEiIG9mZnNldD0iMSIvPiYjeGE7CQk8L2xpbmVhckdyYWRpZW50PiYjeGE7CTwvZGVmcz4mI3hhOwk8cGF0aCBmaWxsPSJ1cmwoI0EpIiBkPSJNLS41IDEzLjQ3MmMwLTEuOTMuMzcxLTMuNzMgMS4xMTMtNS40Ljc0Mi0xLjcwNyAxLjc0NC0zLjE5MiAzLjAwNi00LjQ1M1M2LjM2NSAxLjM1NiA4LjA3My42MTMgMTEuNTk4LS41IDEzLjUyOC0uNXMzLjczLjM3MSA1LjQgMS4xMTNjMS43MDcuNzQyIDMuMTkyIDEuNzQ0IDQuNDUzIDMuMDA2czIuMjY0IDIuNzQ2IDMuMDA2IDQuNDUzYy43NDIgMS42NyAxLjExMyAzLjQ3IDEuMTEzIDUuNHMtLjM3MSAzLjc0OC0xLjExMyA1LjQ1NS0xLjc0NCAzLjE5Mi0zLjAwNiA0LjQ1M2ExNC4yOCAxNC4yOCAwIDAgMS00LjQ1MyAzLjAwNmMtMS42Ny43NDItMy40NyAxLjExMy01LjQgMS4xMTNzLTMuNzQ4LS4zNzEtNS40NTUtMS4xMTNhMTQuMjggMTQuMjggMCAwIDEtNC40NTMtMy4wMDYgMTQuMjggMTQuMjggMCAwIDEtMy4wMDYtNC40NTNDLS4xMjkgMTcuMjItLjUgMTUuNDAyLS41IDEzLjQ3MnptMTYuODExIDQuMjMxYTYuNjUgNi42NSAwIDAgMSAzLjI4NC44MzVjMS4wMDIuNTIgMS44MTggMS4yNDMgMi40NDkgMi4xNzFhMTAuMTQgMTAuMTQgMCAwIDAgMS45NDgtMy4yODRjLjQ4Mi0xLjIyNS43MjQtMi41NDIuNzI0LTMuOTUyIDAtMS41NTktLjI5Ny0zLjAwNi0uODkxLTQuMzQyLS41OTQtMS4zNzMtMS4zOTItMi41NjEtMi4zOTQtMy41NjNzLTIuMTktMS44LTMuNTYzLTIuMzk0Yy0xLjMzNi0uNTk0LTIuNzgzLS44OTEtNC4zNDItLjg5MXMtMy4wMjQuMjk3LTQuMzk4Ljg5MWMtMS4zMzYuNTk0LTIuNTI0IDEuMzkyLTMuNTYzIDIuMzk0QTExLjM1IDExLjM1IDAgMCAwIDMuMTc0IDkuMTNjLS41OTQgMS4zMzYtLjg5MSAyLjc4My0uODkxIDQuMzQyIDAgMS40MS4yMjMgMi43MjguNjY4IDMuOTUyLjQ4MiAxLjIyNSAxLjE1IDIuMzE5IDIuMDA0IDMuMjg0LjYzMS0uOTI4IDEuNDQ3LTEuNjUxIDIuNDQ5LTIuMTcxYTYuNjUgNi42NSAwIDAgMSAzLjI4NC0uODM1em0yLjc4My03LjAxNGE1LjY4IDUuNjggMCAwIDEtLjQ0NSAyLjIyNyA1Ljg3IDUuODcgMCAwIDEtMS4yMjUgMS43ODFjLS40ODIuNDgyLTEuMDU4Ljg3Mi0xLjcyNiAxLjE2OXMtMS4zOTIuNDQ1LTIuMTcxLjQ0NWE1LjY4IDUuNjggMCAwIDEtMi4yMjctLjQ0NSA2LjQ0IDYuNDQgMCAwIDEtMS43ODEtMS4xNjkgNi40NCA2LjQ0IDAgMCAxLTEuMTY5LTEuNzgxIDUuNjggNS42OCAwIDAgMS0uNDQ1LTIuMjI3YzAtLjc3OS4xNDgtMS41MDMuNDQ1LTIuMTcxQTYuNDQgNi40NCAwIDAgMSA5LjUyIDYuNzM3YTUuODcgNS44NyAwIDAgMSAxLjc4MS0xLjIyNSA1LjY4IDUuNjggMCAwIDEgMi4yMjctLjQ0NWMuNzc5IDAgMS41MDMuMTQ4IDIuMTcxLjQ0NXMxLjI0My43MDUgMS43MjYgMS4yMjVhNS44NyA1Ljg3IDAgMCAxIDEuMjI1IDEuNzgxYy4yOTcuNjY4LjQ0NSAxLjM5Mi40NDUgMi4xNzF6bS0yLjc4MyAwYzAtLjc3OS0uMjc4LTEuNDI5LS44MzUtMS45NDgtLjU1Ny0uNTU3LTEuMjA2LS44MzUtMS45NDgtLjgzNWEyLjczIDIuNzMgMCAwIDAtMi4wMDQuODM1Yy0uNTU3LjUyLS44MzUgMS4xNjktLjgzNSAxLjk0OGEyLjczIDIuNzMgMCAwIDAgLjgzNSAyLjAwNGMuNTU3LjUyIDEuMjI1Ljc3OSAyLjAwNC43NzkuNzQyIDAgMS4zOTItLjI2IDEuOTQ4LS43NzlhMi43MyAyLjczIDAgMCAwIC44MzUtMi4wMDR6TTcuMDcxIDIyLjY1N2MuODkxLjYzMSAxLjg3NCAxLjEzMiAyLjk1IDEuNTAzIDEuMTEzLjM3MSAyLjI4Mi41NTcgMy41MDcuNTU3IDEuMTg4IDAgMi4zMTktLjE4NiAzLjM5Ni0uNTU3IDEuMTEzLS4zNzEgMi4xMTUtLjg3MiAzLjAwNi0xLjUwMy0uMzcxLS42NjgtLjg5MS0xLjE4OC0xLjU1OS0xLjU1OS0uNjMxLS40MDgtMS4zMTctLjYxMi0yLjA2LS42MTJoLTUuNjIyYy0uNzQyIDAtMS40NDcuMjA0LTIuMTE1LjYxMi0uNjMxLjM3MS0xLjEzMi44OTEtMS41MDMgMS41NTl6Ii8+JiN4YTs8L3N2Zz4=;imageBackground=default;" parent="LZEgFXu-dzcTSyENN5qA-11" vertex="1">
          <mxGeometry x="7" y="84" width="28" height="28" as="geometry" />
        </mxCell>
        <mxCell id="LZEgFXu-dzcTSyENN5qA-6" value="User profile variant" style="text;html=1;align=center;verticalAlign=middle;whiteSpace=wrap;rounded=0;" parent="LZEgFXu-dzcTSyENN5qA-11" vertex="1">
          <mxGeometry x="40" y="84" width="120" height="30" as="geometry" />
        </mxCell>
        <mxCell id="LZEgFXu-dzcTSyENN5qA-7" value="Normalised user profile" style="text;html=1;align=center;verticalAlign=middle;whiteSpace=wrap;rounded=0;" parent="LZEgFXu-dzcTSyENN5qA-11" vertex="1">
          <mxGeometry x="40" y="46" width="140" height="30" as="geometry" />
        </mxCell>
        <mxCell id="LZEgFXu-dzcTSyENN5qA-10" value="&lt;h1 style=&quot;margin-top: 0px;&quot;&gt;Legend&lt;/h1&gt;&lt;h1 style=&quot;margin-top: 0px;&quot;&gt;&lt;br&gt;&lt;/h1&gt;" style="text;html=1;whiteSpace=wrap;overflow=hidden;rounded=0;" parent="LZEgFXu-dzcTSyENN5qA-11" vertex="1">
          <mxGeometry width="186" height="120" as="geometry" />
        </mxCell>
        <mxCell id="Apc_Dfm3Do_mlC3O6xLD-1" value="Secondary use case" style="text;html=1;align=center;verticalAlign=middle;whiteSpace=wrap;rounded=0;fillColor=#fff2cc;strokeColor=#d6b656;sketch=1;curveFitting=1;jiggle=2;fillStyle=auto;labelBackgroundColor=none;labelBorderColor=none;gradientColor=#ffd966;fontStyle=1" parent="1" vertex="1">
          <mxGeometry x="550" y="170" width="70" height="30" as="geometry" />
        </mxCell>
        <mxCell id="S20N0frMvKcGpQsej0k3-1" value="&lt;font style=&quot;font-size: 13px;&quot;&gt;Extended&amp;nbsp;&lt;/font&gt;&lt;div style=&quot;font-size: 13px;&quot;&gt;&lt;font style=&quot;font-size: 13px;&quot;&gt;user profile&lt;/font&gt;&lt;/div&gt;" style="text;html=1;align=center;verticalAlign=middle;whiteSpace=wrap;rounded=1;fontStyle=1;fontSize=13;strokeColor=default;sketch=1;curveFitting=1;jiggle=2;" parent="1" vertex="1">
          <mxGeometry x="729" y="730" width="90" height="40" as="geometry" />
        </mxCell>
        <mxCell id="uMjAtUbEPXIBOVqxAqrq-5" value="" style="edgeStyle=orthogonalEdgeStyle;rounded=0;orthogonalLoop=1;jettySize=auto;html=1;exitX=0;exitY=0.5;exitDx=0;exitDy=0;entryX=0.25;entryY=0;entryDx=0;entryDy=0;sketch=1;jiggle=2;curveFitting=1;strokeColor=#d6b656;align=center;verticalAlign=middle;fontFamily=Helvetica;fontSize=11;fontColor=default;labelBackgroundColor=default;endArrow=classic;fillColor=#fff2cc;gradientColor=#ffd966;" parent="1" source="8qgibkEP4KIhBPvQSuZ9-23" target="uMjAtUbEPXIBOVqxAqrq-4" edge="1">
          <mxGeometry relative="1" as="geometry">
            <mxPoint x="680" y="327" as="sourcePoint" />
            <mxPoint x="553" y="407" as="targetPoint" />
          </mxGeometry>
        </mxCell>
        <mxCell id="uMjAtUbEPXIBOVqxAqrq-6" value="User profile data&amp;nbsp;&lt;div&gt;pre-population&lt;/div&gt;" style="edgeLabel;html=1;align=center;verticalAlign=middle;resizable=0;points=[];rounded=0;sketch=1;jiggle=2;curveFitting=1;strokeColor=#d6b656;fontFamily=Helvetica;fontSize=11;fontColor=default;labelBackgroundColor=default;fillColor=#fff2cc;gradientColor=#ffd966;" parent="uMjAtUbEPXIBOVqxAqrq-5" vertex="1" connectable="0">
          <mxGeometry x="-0.5663" y="-4" relative="1" as="geometry">
            <mxPoint x="-18" y="4" as="offset" />
          </mxGeometry>
        </mxCell>
        <mxCell id="uMjAtUbEPXIBOVqxAqrq-4" value="2" style="ellipse;whiteSpace=wrap;html=1;aspect=fixed;rotation=0;gradientColor=#223548;strokeColor=none;gradientDirection=east;fillColor=#5b738b;rounded=0;pointerEvents=0;fontFamily=Helvetica;fontSize=16;fontColor=#FFFFFF;spacingTop=4;spacingBottom=4;spacingLeft=4;spacingRight=4;points=[];fontStyle=1" parent="1" vertex="1">
          <mxGeometry x="535" y="380" width="30" height="30" as="geometry" />
        </mxCell>
        <mxCell id="3Cpb6p6IqoMU9a2Gz5XD-1" value="3" style="ellipse;whiteSpace=wrap;html=1;aspect=fixed;rotation=0;gradientColor=#223548;strokeColor=none;gradientDirection=east;fillColor=#5b738b;rounded=0;pointerEvents=0;fontFamily=Helvetica;fontSize=16;fontColor=#FFFFFF;spacingTop=4;spacingBottom=4;spacingLeft=4;spacingRight=4;points=[];fontStyle=1" parent="1" vertex="1">
          <mxGeometry x="538" y="487" width="30" height="30" as="geometry" />
        </mxCell>
        <mxCell id="T3K_JFK7z1kkOa9Re8E--1" value="Walley" style="whiteSpace=wrap;html=1;aspect=fixed;strokeColor=#000000;fontStyle=1;sketch=1;curveFitting=1;jiggle=2;rounded=1;glass=0;" parent="1" vertex="1">
          <mxGeometry x="65" y="571.5" width="80" height="80" as="geometry" />
        </mxCell>
        <mxCell id="8qgibkEP4KIhBPvQSuZ9-64" value="2" style="ellipse;whiteSpace=wrap;html=1;aspect=fixed;rotation=0;gradientColor=#223548;strokeColor=none;gradientDirection=east;fillColor=#5b738b;rounded=0;pointerEvents=0;fontFamily=Helvetica;fontSize=16;fontColor=#FFFFFF;spacingTop=4;spacingBottom=4;spacingLeft=4;spacingRight=4;points=[];fontStyle=1" parent="1" vertex="1">
          <mxGeometry x="80" y="641.5" width="30" height="30" as="geometry" />
        </mxCell>
        <mxCell id="m52TPUyrv8jSFzZ_0_wf-3" value="" style="edgeStyle=orthogonalEdgeStyle;rounded=0;orthogonalLoop=1;jettySize=auto;html=1;exitX=0;exitY=0.5;exitDx=0;exitDy=0;entryX=0.25;entryY=0;entryDx=0;entryDy=0;sketch=1;curveFitting=1;jiggle=2;fillColor=#d5e8d4;strokeColor=#82b366;gradientColor=#97d077;" edge="1" parent="1" source="8qgibkEP4KIhBPvQSuZ9-3" target="8qgibkEP4KIhBPvQSuZ9-62">
          <mxGeometry relative="1" as="geometry">
            <mxPoint x="204" y="327" as="sourcePoint" />
            <mxPoint x="85" y="572" as="targetPoint" />
          </mxGeometry>
        </mxCell>
        <mxCell id="8qgibkEP4KIhBPvQSuZ9-62" value="1" style="ellipse;whiteSpace=wrap;html=1;aspect=fixed;rotation=0;gradientColor=#223548;strokeColor=none;gradientDirection=east;fillColor=#5b738b;rounded=0;pointerEvents=0;fontFamily=Helvetica;fontSize=16;fontColor=#FFFFFF;spacingTop=4;spacingBottom=4;spacingLeft=4;spacingRight=4;points=[];fontStyle=1" parent="1" vertex="1">
          <mxGeometry x="184" y="310" width="30" height="30" as="geometry" />
        </mxCell>
        <mxCell id="8qgibkEP4KIhBPvQSuZ9-78" value="7" style="ellipse;whiteSpace=wrap;html=1;aspect=fixed;rotation=0;gradientColor=#223548;strokeColor=none;gradientDirection=east;fillColor=#5b738b;rounded=0;pointerEvents=0;fontFamily=Helvetica;fontSize=16;fontColor=#FFFFFF;spacingTop=4;spacingBottom=4;spacingLeft=4;spacingRight=4;points=[];fontStyle=1" parent="1" vertex="1">
          <mxGeometry x="575" y="830" width="30" height="30" as="geometry" />
        </mxCell>
      </root>
    </mxGraphModel>
  </diagram>
</mxfile>
